<mxfile host="drawio.corp.amazon.com" modified="2024-01-11T04:19:14.478Z" agent="Mozilla/5.0 (Macintosh; Intel Mac OS X 10_15_7) AppleWebKit/537.36 (KHTML, like Gecko) Chrome/120.0.0.0 Safari/537.36" etag="W1-touGDUPikO7T_pJ0m" version="21.7.4" type="device">
  <diagram id="FukMHeDB37K8RXDOaziL" name="Page-1">
    <mxGraphModel dx="1057" dy="623" grid="1" gridSize="10" guides="1" tooltips="1" connect="1" arrows="1" fold="1" page="1" pageScale="1" pageWidth="850" pageHeight="1100" math="0" shadow="0">
      <root>
        <mxCell id="0" />
        <object label="Demo-Asterisk" id="_xa58697VZdUaDmlX0MW-1">
          <mxCell style="locked=1;" parent="0" visible="0" />
        </object>
        <mxCell id="KoorY9JCDB_PhM-aPZwH-63" value=" Call Processing" style="fillColor=none;strokeColor=#5A6C86;dashed=1;verticalAlign=top;fontStyle=0;fontColor=#5A6C86;align=left;" parent="_xa58697VZdUaDmlX0MW-1" vertex="1">
          <mxGeometry x="1311" y="640" width="351.5" height="300" as="geometry" />
        </mxCell>
        <mxCell id="_xa58697VZdUaDmlX0MW-7" value=" Call Ingestion" style="fillColor=none;strokeColor=#5A6C86;dashed=1;verticalAlign=top;fontStyle=0;fontColor=#5A6C86;align=left;" parent="_xa58697VZdUaDmlX0MW-1" vertex="1">
          <mxGeometry x="680" y="640" width="610" height="300" as="geometry" />
        </mxCell>
        <mxCell id="_xa58697VZdUaDmlX0MW-8" style="edgeStyle=orthogonalEdgeStyle;rounded=0;orthogonalLoop=1;jettySize=auto;html=1;" parent="_xa58697VZdUaDmlX0MW-1" source="_xa58697VZdUaDmlX0MW-10" edge="1">
          <mxGeometry relative="1" as="geometry">
            <mxPoint x="634.25" y="711" as="sourcePoint" />
            <mxPoint x="713" y="719.1300000000001" as="targetPoint" />
          </mxGeometry>
        </mxCell>
        <mxCell id="_xa58697VZdUaDmlX0MW-9" value="" style="group" parent="_xa58697VZdUaDmlX0MW-1" vertex="1" connectable="0">
          <mxGeometry x="542" y="680.13" width="120" height="108.12" as="geometry" />
        </mxCell>
        <mxCell id="_xa58697VZdUaDmlX0MW-10" value="" style="outlineConnect=0;fontColor=#232F3E;gradientColor=#F78E04;gradientDirection=north;fillColor=#D05C17;strokeColor=#ffffff;dashed=0;verticalLabelPosition=bottom;verticalAlign=top;align=center;html=1;fontSize=12;fontStyle=0;aspect=fixed;shape=mxgraph.aws4.resourceIcon;resIcon=mxgraph.aws4.ec2;" parent="_xa58697VZdUaDmlX0MW-9" vertex="1">
          <mxGeometry x="21" width="78" height="78" as="geometry" />
        </mxCell>
        <mxCell id="_xa58697VZdUaDmlX0MW-11" value="&lt;div align=&quot;center&quot;&gt;Amazon EC2&lt;br&gt;&lt;/div&gt;&lt;div align=&quot;center&quot;&gt;Demo Asterisk server&lt;/div&gt;" style="text;html=1;align=center;" parent="_xa58697VZdUaDmlX0MW-9" vertex="1">
          <mxGeometry y="78.12" width="120" height="30" as="geometry" />
        </mxCell>
        <mxCell id="_xa58697VZdUaDmlX0MW-15" value="" style="edgeStyle=orthogonalEdgeStyle;html=1;endArrow=block;elbow=vertical;startArrow=none;endFill=1;strokeColor=#545B64;rounded=0;" parent="_xa58697VZdUaDmlX0MW-1" target="_xa58697VZdUaDmlX0MW-10" edge="1">
          <mxGeometry width="100" relative="1" as="geometry">
            <mxPoint x="456.02720225872713" y="719" as="sourcePoint" />
            <mxPoint x="541.1700000000001" y="721" as="targetPoint" />
          </mxGeometry>
        </mxCell>
        <mxCell id="_xa58697VZdUaDmlX0MW-16" value="" style="group" parent="_xa58697VZdUaDmlX0MW-1" vertex="1" connectable="0">
          <mxGeometry x="940" y="680" width="120" height="113.12" as="geometry" />
        </mxCell>
        <mxCell id="_xa58697VZdUaDmlX0MW-17" value="" style="outlineConnect=0;fontColor=#232F3E;gradientColor=#945DF2;gradientDirection=north;fillColor=#5A30B5;strokeColor=#ffffff;dashed=0;verticalLabelPosition=bottom;verticalAlign=top;align=center;html=1;fontSize=12;fontStyle=0;aspect=fixed;shape=mxgraph.aws4.resourceIcon;resIcon=mxgraph.aws4.kinesis_video_streams;" parent="_xa58697VZdUaDmlX0MW-16" vertex="1">
          <mxGeometry x="21" width="78" height="78" as="geometry" />
        </mxCell>
        <mxCell id="_xa58697VZdUaDmlX0MW-18" value="&lt;div align=&quot;center&quot;&gt;Amazon Kinesis Video Streams&lt;br&gt;&lt;/div&gt;&lt;div align=&quot;center&quot;&gt;Audio Streams&lt;br&gt;&lt;/div&gt;" style="text;html=1;align=center;" parent="_xa58697VZdUaDmlX0MW-16" vertex="1">
          <mxGeometry y="77.12" width="120" height="30" as="geometry" />
        </mxCell>
        <mxCell id="_xa58697VZdUaDmlX0MW-19" value="&lt;div align=&quot;center&quot;&gt;Call signaling events&lt;/div&gt;" style="text;html=1;align=center;" parent="_xa58697VZdUaDmlX0MW-1" vertex="1">
          <mxGeometry x="770" y="855" width="170" height="30" as="geometry" />
        </mxCell>
        <mxCell id="_xa58697VZdUaDmlX0MW-23" value="&lt;div&gt;Call audio streams&lt;br&gt;&lt;/div&gt;" style="text;html=1;align=left;" parent="_xa58697VZdUaDmlX0MW-1" vertex="1">
          <mxGeometry x="1089" y="694" width="170" height="30" as="geometry" />
        </mxCell>
        <mxCell id="_xa58697VZdUaDmlX0MW-24" value="" style="group" parent="_xa58697VZdUaDmlX0MW-1" vertex="1" connectable="0">
          <mxGeometry x="940" y="813.5" width="120" height="113" as="geometry" />
        </mxCell>
        <mxCell id="_xa58697VZdUaDmlX0MW-25" value="" style="outlineConnect=0;fontColor=#232F3E;gradientColor=#F34482;gradientDirection=north;fillColor=#BC1356;strokeColor=#ffffff;dashed=0;verticalLabelPosition=bottom;verticalAlign=top;align=center;html=1;fontSize=12;fontStyle=0;aspect=fixed;shape=mxgraph.aws4.resourceIcon;resIcon=mxgraph.aws4.eventbridge;" parent="_xa58697VZdUaDmlX0MW-24" vertex="1">
          <mxGeometry x="21" width="78" height="78" as="geometry" />
        </mxCell>
        <mxCell id="_xa58697VZdUaDmlX0MW-26" value="Amazon EventBridge&lt;br&gt;&lt;div align=&quot;center&quot;&gt;Call Signaling Events&lt;/div&gt;" style="text;html=1;" parent="_xa58697VZdUaDmlX0MW-24" vertex="1">
          <mxGeometry y="79" width="120" height="30" as="geometry" />
        </mxCell>
        <mxCell id="_xa58697VZdUaDmlX0MW-32" value="" style="edgeStyle=orthogonalEdgeStyle;html=1;endArrow=block;elbow=vertical;startArrow=none;endFill=1;strokeColor=#545B64;rounded=0;exitX=0.5;exitY=1;exitDx=0;exitDy=0;" parent="_xa58697VZdUaDmlX0MW-1" source="_xa58697VZdUaDmlX0MW-14" target="_xa58697VZdUaDmlX0MW-25" edge="1">
          <mxGeometry width="100" relative="1" as="geometry">
            <mxPoint x="742" y="878" as="sourcePoint" />
            <mxPoint x="992" y="878" as="targetPoint" />
            <Array as="points">
              <mxPoint x="752" y="853" />
            </Array>
          </mxGeometry>
        </mxCell>
        <mxCell id="_xa58697VZdUaDmlX0MW-33" value="" style="edgeStyle=orthogonalEdgeStyle;html=1;endArrow=block;elbow=vertical;startArrow=none;endFill=1;strokeColor=#545B64;rounded=0;" parent="_xa58697VZdUaDmlX0MW-1" target="_xa58697VZdUaDmlX0MW-17" edge="1">
          <mxGeometry width="100" relative="1" as="geometry">
            <mxPoint x="791" y="719" as="sourcePoint" />
            <mxPoint x="1014.25" y="721" as="targetPoint" />
          </mxGeometry>
        </mxCell>
        <mxCell id="_xa58697VZdUaDmlX0MW-38" value="&lt;div align=&quot;center&quot;&gt;Call audio streams&lt;br&gt;&lt;/div&gt;" style="text;html=1;align=center;" parent="_xa58697VZdUaDmlX0MW-1" vertex="1">
          <mxGeometry x="812" y="694" width="170" height="30" as="geometry" />
        </mxCell>
        <mxCell id="_xa58697VZdUaDmlX0MW-40" value="" style="verticalLabelPosition=bottom;aspect=fixed;html=1;verticalAlign=top;strokeColor=none;align=center;outlineConnect=0;shape=mxgraph.citrix.ip_phone;" parent="_xa58697VZdUaDmlX0MW-1" vertex="1">
          <mxGeometry x="370" y="700" width="76.5" height="37" as="geometry" />
        </mxCell>
        <mxCell id="_xa58697VZdUaDmlX0MW-42" value="&lt;div&gt;Call signaling events&lt;/div&gt;" style="text;html=1;align=left;" parent="_xa58697VZdUaDmlX0MW-1" vertex="1">
          <mxGeometry x="1089" y="825" width="170" height="30" as="geometry" />
        </mxCell>
        <mxCell id="_xa58697VZdUaDmlX0MW-43" style="edgeStyle=orthogonalEdgeStyle;rounded=0;orthogonalLoop=1;jettySize=auto;html=1;" parent="_xa58697VZdUaDmlX0MW-1" source="_xa58697VZdUaDmlX0MW-25" edge="1">
          <mxGeometry relative="1" as="geometry">
            <Array as="points">
              <mxPoint x="1290" y="852" />
              <mxPoint x="1290" y="852" />
            </Array>
            <mxPoint x="1371" y="852" as="targetPoint" />
          </mxGeometry>
        </mxCell>
        <mxCell id="KoorY9JCDB_PhM-aPZwH-43" value="" style="group" parent="_xa58697VZdUaDmlX0MW-1" vertex="1" connectable="0">
          <mxGeometry x="1491.5" y="753.59" width="125" height="100.55156046814044" as="geometry" />
        </mxCell>
        <mxCell id="KoorY9JCDB_PhM-aPZwH-44" value="" style="outlineConnect=0;fontColor=#232F3E;gradientColor=#4D72F3;gradientDirection=north;fillColor=#3334B9;strokeColor=#ffffff;dashed=0;verticalLabelPosition=bottom;verticalAlign=top;align=center;html=1;fontSize=12;fontStyle=0;aspect=fixed;shape=mxgraph.aws4.resourceIcon;resIcon=mxgraph.aws4.dynamodb;" parent="KoorY9JCDB_PhM-aPZwH-43" vertex="1">
          <mxGeometry x="17" width="60" height="60" as="geometry" />
        </mxCell>
        <mxCell id="KoorY9JCDB_PhM-aPZwH-45" value="" style="group" parent="_xa58697VZdUaDmlX0MW-1" vertex="1" connectable="0">
          <mxGeometry x="1359.5" y="787" width="100" height="111.64999999999998" as="geometry" />
        </mxCell>
        <mxCell id="KoorY9JCDB_PhM-aPZwH-46" value="&lt;div&gt;AWS Lambda&lt;br&gt;Call Transcriber&lt;/div&gt;" style="text;html=1;align=center;verticalAlign=middle;resizable=0;points=[];autosize=1;" parent="KoorY9JCDB_PhM-aPZwH-45" vertex="1">
          <mxGeometry y="81.64999999999998" width="100" height="30" as="geometry" />
        </mxCell>
        <mxCell id="KoorY9JCDB_PhM-aPZwH-47" value="" style="outlineConnect=0;fontColor=#232F3E;gradientColor=#F78E04;gradientDirection=north;fillColor=#D05C17;strokeColor=#ffffff;dashed=0;verticalLabelPosition=bottom;verticalAlign=top;align=center;html=1;fontSize=12;fontStyle=0;aspect=fixed;shape=mxgraph.aws4.resourceIcon;resIcon=mxgraph.aws4.lambda;" parent="KoorY9JCDB_PhM-aPZwH-45" vertex="1">
          <mxGeometry x="11" width="78" height="78" as="geometry" />
        </mxCell>
        <mxCell id="KoorY9JCDB_PhM-aPZwH-48" value="" style="group" parent="_xa58697VZdUaDmlX0MW-1" vertex="1" connectable="0">
          <mxGeometry x="1508.5" y="835.5" width="154" height="96.5" as="geometry" />
        </mxCell>
        <mxCell id="KoorY9JCDB_PhM-aPZwH-49" value="" style="outlineConnect=0;fontColor=#232F3E;gradientColor=#60A337;gradientDirection=north;fillColor=#277116;strokeColor=#ffffff;dashed=0;verticalLabelPosition=bottom;verticalAlign=top;align=center;html=1;fontSize=12;fontStyle=0;aspect=fixed;shape=mxgraph.aws4.resourceIcon;resIcon=mxgraph.aws4.s3;" parent="KoorY9JCDB_PhM-aPZwH-48" vertex="1">
          <mxGeometry x="0.53" y="11.59" width="59.47" height="59.47" as="geometry" />
        </mxCell>
        <mxCell id="KoorY9JCDB_PhM-aPZwH-50" value="" style="html=1;endArrow=block;elbow=vertical;startArrow=none;endFill=1;strokeColor=#545B64;rounded=0;" parent="_xa58697VZdUaDmlX0MW-1" source="KoorY9JCDB_PhM-aPZwH-47" target="KoorY9JCDB_PhM-aPZwH-49" edge="1">
          <mxGeometry width="100" relative="1" as="geometry">
            <mxPoint x="1423.5" y="918" as="sourcePoint" />
            <mxPoint x="1523.5" y="918" as="targetPoint" />
          </mxGeometry>
        </mxCell>
        <mxCell id="KoorY9JCDB_PhM-aPZwH-51" value="" style="group" parent="_xa58697VZdUaDmlX0MW-1" vertex="1" connectable="0">
          <mxGeometry x="1491.5" y="682.59" width="100" height="130" as="geometry" />
        </mxCell>
        <mxCell id="KoorY9JCDB_PhM-aPZwH-52" value="" style="outlineConnect=0;fontColor=#232F3E;gradientColor=#F78E04;gradientDirection=north;fillColor=#D05C17;strokeColor=#ffffff;dashed=0;verticalLabelPosition=bottom;verticalAlign=top;align=center;html=1;fontSize=12;fontStyle=0;aspect=fixed;shape=mxgraph.aws4.resourceIcon;resIcon=mxgraph.aws4.lambda;" parent="KoorY9JCDB_PhM-aPZwH-51" vertex="1">
          <mxGeometry x="17.5" y="-21" width="59" height="59" as="geometry" />
        </mxCell>
        <mxCell id="KoorY9JCDB_PhM-aPZwH-53" value="" style="html=1;endArrow=block;elbow=vertical;startArrow=none;endFill=1;strokeColor=#545B64;rounded=0;" parent="KoorY9JCDB_PhM-aPZwH-51" edge="1">
          <mxGeometry width="100" relative="1" as="geometry">
            <mxPoint x="-41" y="142.4128788787391" as="sourcePoint" />
            <mxPoint x="18" y="107.40999999999997" as="targetPoint" />
          </mxGeometry>
        </mxCell>
        <mxCell id="KoorY9JCDB_PhM-aPZwH-54" value="" style="edgeStyle=orthogonalEdgeStyle;rounded=0;orthogonalLoop=1;jettySize=auto;html=1;" parent="_xa58697VZdUaDmlX0MW-1" source="KoorY9JCDB_PhM-aPZwH-47" edge="1">
          <mxGeometry relative="1" as="geometry">
            <mxPoint x="1399.5" y="767" as="targetPoint" />
            <Array as="points">
              <mxPoint x="1399.5" y="767" />
            </Array>
          </mxGeometry>
        </mxCell>
        <mxCell id="KoorY9JCDB_PhM-aPZwH-56" value="Amazon S3&lt;br&gt;Call Recordings" style="text;html=1;align=center;verticalAlign=middle;resizable=0;points=[];autosize=1;" parent="_xa58697VZdUaDmlX0MW-1" vertex="1">
          <mxGeometry x="1561.500909090909" y="855.0910619469026" width="100" height="30" as="geometry" />
        </mxCell>
        <mxCell id="KoorY9JCDB_PhM-aPZwH-57" value="Amazon &lt;br&gt;DynamoDB&lt;br&gt;Event caching" style="text;html=1;align=center;verticalAlign=middle;resizable=0;points=[];autosize=1;" parent="_xa58697VZdUaDmlX0MW-1" vertex="1">
          <mxGeometry x="1563.5" y="754.7115604681405" width="90" height="50" as="geometry" />
        </mxCell>
        <mxCell id="KoorY9JCDB_PhM-aPZwH-58" value="AWS Lambda&lt;br&gt;Call Initialization&lt;br&gt;(Optional)" style="text;html=1;align=center;verticalAlign=middle;resizable=0;points=[];autosize=1;" parent="_xa58697VZdUaDmlX0MW-1" vertex="1">
          <mxGeometry x="1562.5" y="670.5880230168516" width="100" height="50" as="geometry" />
        </mxCell>
        <mxCell id="KoorY9JCDB_PhM-aPZwH-59" value="" style="html=1;endArrow=block;elbow=vertical;startArrow=none;endFill=1;strokeColor=#545B64;rounded=0;" parent="_xa58697VZdUaDmlX0MW-1" edge="1">
          <mxGeometry width="100" relative="1" as="geometry">
            <mxPoint x="1449.5" y="804.712878878739" as="sourcePoint" />
            <mxPoint x="1509.5" y="720" as="targetPoint" />
          </mxGeometry>
        </mxCell>
        <mxCell id="KoorY9JCDB_PhM-aPZwH-60" value="" style="group" parent="_xa58697VZdUaDmlX0MW-1" vertex="1" connectable="0">
          <mxGeometry x="1349.5" y="657" width="144.99999999999974" height="123" as="geometry" />
        </mxCell>
        <mxCell id="KoorY9JCDB_PhM-aPZwH-61" value="&lt;div&gt;Amazon Transcribe&lt;br&gt;Streaming&lt;br&gt;&lt;/div&gt;" style="text;html=1;align=center;verticalAlign=middle;resizable=0;points=[];autosize=1;" parent="KoorY9JCDB_PhM-aPZwH-60" vertex="1">
          <mxGeometry y="82.99999999999997" width="120" height="30" as="geometry" />
        </mxCell>
        <mxCell id="KoorY9JCDB_PhM-aPZwH-62" value="" style="outlineConnect=0;fontColor=#232F3E;gradientColor=#4AB29A;gradientDirection=north;fillColor=#116D5B;strokeColor=#ffffff;dashed=0;verticalLabelPosition=bottom;verticalAlign=top;align=center;html=1;fontSize=12;fontStyle=0;aspect=fixed;shape=mxgraph.aws4.resourceIcon;resIcon=mxgraph.aws4.transcribe;" parent="KoorY9JCDB_PhM-aPZwH-60" vertex="1">
          <mxGeometry x="21" y="5" width="78" height="78" as="geometry" />
        </mxCell>
        <mxCell id="KoorY9JCDB_PhM-aPZwH-66" value="" style="edgeStyle=orthogonalEdgeStyle;rounded=0;orthogonalLoop=1;jettySize=auto;html=1;" parent="_xa58697VZdUaDmlX0MW-1" edge="1">
          <mxGeometry relative="1" as="geometry">
            <mxPoint x="1410" y="789" as="targetPoint" />
            <Array as="points">
              <mxPoint x="1409.5" y="769" />
            </Array>
            <mxPoint x="1410" y="769" as="sourcePoint" />
          </mxGeometry>
        </mxCell>
        <mxCell id="WH3aPAxH88FhTUAuEX8l-6" style="edgeStyle=orthogonalEdgeStyle;rounded=0;orthogonalLoop=1;jettySize=auto;html=1;" parent="_xa58697VZdUaDmlX0MW-1" source="_xa58697VZdUaDmlX0MW-17" edge="1">
          <mxGeometry relative="1" as="geometry">
            <mxPoint x="1370" y="830" as="targetPoint" />
            <Array as="points">
              <mxPoint x="1260" y="719" />
              <mxPoint x="1260" y="830" />
              <mxPoint x="1370" y="830" />
            </Array>
          </mxGeometry>
        </mxCell>
        <mxCell id="y5ZOfHpRJfJ5_4OQyfgZ-3" value="" style="shape=image;verticalLabelPosition=bottom;labelBackgroundColor=#ffffff;verticalAlign=top;aspect=fixed;imageAspect=0;image=data:image/png,iVBORw0KGgoAAAANSUhEUgAAAFAAAABQCAIAAAABc2X6AAAAAXNSR0IArs4c6QAAAERlWElmTU0AKgAAAAgAAYdpAAQAAAABAAAAGgAAAAAAA6ABAAMAAAABAAEAAKACAAQAAAABAAAAUKADAAQAAAABAAAAUAAAAAAx4ExPAAAa2UlEQVR4AcVcaZRV1ZV+rwaGQkCKKmZkkCiOOLYr7Ry1kxXHLEc6GlvEeWrUNrYa2yRmiTgPjS0qEcUhLkObqLGdIo5JR0ERTdpEEQUNUoDMQ1H1Xn/DPvfeB3SblR/dp8p7z9n729/+9jnn3nfvK5blebvsVS6Xq9UqjuVyqaQDjiV08VOiXcMqT+zLY3sOlxU8sjtQcBOVS+IXI53gqVZ5zPlDwFfwA6+cKdAcmU7rUQaohNP8MISwcrkBdlRLt1qxH8pglxqCiDSL4TWxMLEGcHs61Ak8Qt1LDCZz5XCyk/hJgSRqNXrMTxXCk5GpFL4FPBxFfiAQWJcxolOpMKkbpwkmz0Uygx6NGdyzN0XQV2MBTj88KzL4TUca/RbO4iUfAis1bFwltcjmU7LU6Al6TgaayJiJnCiYnaQy1kcywoiTVGIygNMiMRBixcGdKYYgEZy2CsPsYwKC2LiMGOmXRuDR1CG/19kWwh3KGBIWa6YsBlII3dwVaNQjOMgqSpfx0wP+BqcjVlcyIs1LKgISI3OTM2DqSSJ7TMmW8EBqf9hUDATUDIpJeIUbBr9nSjCAea3bQsXk1Q/T1eihbCoGgrnpB6BGP011Eq2JMUhI5GYYa+RCwUOngiUL1KQTgq4wAo2rIvGIIVzUCLuUMJb9xA+H+ZmRQM8IrOaPWK4e1KSNo4kTE5UBw1DzF/R4Y+b8VRRMECdGVothSlJzZC50CENzT0Na0hBqsIVQhUVTgOAEQIBgwisdcJLCCLqiMUJFcjrMEENWK37roa/ALxk4WI/SBd48BXrctLQkguayOPQouPJ5hYs2nQRRPYKBN9jigmcioiXFHdKmWHeFSfuCFz+BwPAX52CQHvHAWFxnoRMlIyJAPdppKOjhTStrcIOrOERfMVo3VF1oMjHCNinkpkKE183J8gjulRzvUoimJm6MuBoKSeCiVjWYWbRIChdLgT4EJbyS2Sb6KB43Le0iBWJDoqWZBQx95ueGr3CIIAwRgDO4aOFm48EEOZ67MsLl4iHHs1waQERNJiab7c5DPJpzGk9+5iQQZXMKsgZLHX2C1Ooxr/jTCgsAKOuPvDixpZTsw1vIICky2KpwRmQyauCyh0TJDZhKMi3xSYnSMWPwAUYJrJOYgNkmB+UJr44rhwUFJDivuPxzmD6XxLsVMZbLk3w6chYQZmTgCWdEBmNADIXPw0Vqp/kFo0H5WI72toY4BB6n1MvO7BT3tjgiACf3cgYz8nOYtPRiJoRz0qCDl2Y15IzZFRn6XXYc3XvCBV12GF3X1BSg/9tTtaOjMm9e58xXNs6Y4akNqZof7E0Oo0KuCDSX/2u7Mdj69ETBAcMpevTYr/g0bNx2xMBHHih36eIc/7/HjrdmtV91NW5xXBL+SKULToJdBV4eWDn+i5JDOK8T7hnHgIAIX3kEwtXrtFNR7epfPr38uknV9nbHFacmpcN84cIJqiJAGQtTaaFgr+MTPpCFec7LyKPQa2yoH7Nrt0svadhrz84jDu948knL0OIV9IeVNebXMHc1LEjlpvL8+ciXCt5IVTQO3P+lrrvshPjld02prF+vj1/S0SUK9zkKo132OUGGD1eK45nToGBBBfBQDwTKIvjGjs5ZszfcejvgDYcczCD+RNtCaj5pqWUUHipfZAQJhnhmtCvwlWrDoIHody5eTAsDmI0xUSReBsJMT1IfMJ7YqE4B2I2MM08BLwM/OIjTFDEI/0mP4R3vzIGlbsSIyIJB3lg8RuC3LV4esu1nt32gw64y3tsLXlmkrbGRRJ2dBvOIfecPD8PoBhI0VOxW5GcES+FP1gk8YtxLDCZTdnazRORYv55U3boJQ21ZIy1VWDZA6X0YtLCiEeoQSg8LDLQVMcTVNF5kmzAoYvCbr+O3hj/ieCNAy1haX5/Z+tpMJIGFGdG06hrBxomLfnYWb8ZQZIMeMhT4CfP7MFk40WhcT7NpDxRqZqjWgVHCEs9QjniUESepTI+vsbKaZ6C9XxhivOCMzB9pySYqsuuZQSkyfOr8le/P+Vc8nBLtPa8V06GO2ItUkGR4puVXpZ7L2Lk1+Ey3yuPuxZQhMGPAjuOY1Dqb1CVx0wIPdOpQzRb4KTsFAkGULSxHK5kAhPkrHq8vsyK1fuHTltB7ho0UCnN2PUQSnqSMZWh9KRi/SGwIAUIJQRcR4i++PxtsFwLYsR7Gs4zgh8P8cJM59h365o9Y83O/KTnlEJ9/LImFPiFQrW5rnK3UmMkivFBhhxFc/9v7s4AZP9QP+t3rA//zVZgtAinyLCFAp5QOOF0jjMB/fWa+gF8gmFonZeA4DUO/V5jsnCO2+BLPg0iLQRLALsBa5yDVR7PttCQiRwS+MK+OimwaZOSMNluRX8nBQyrPRAw0kp7g1IkEhdliBAMj1r7i+3N8DiNWCw7AV7xPFpOhn99sSqXhc36HX+XgOvjuleFlyvkJgCxZvW4ZMjq8gKotr73U8tpMWlQKz6m+v+79me/DpEND9r/gfZIwZXcQ9qQIEokEYe6K789AYh0QpQ1svKNDPfGJINcTeCKTkThOUd5SWLLU6kEuyZVi3lxLej1MYGY1tdJTGTu6jE2cL1pKBDy3BoehJKUkaxLqDCpV1B4HPwITm+3pWLBTdhpqKyYGSExwplNGA9PdJ7+MpafmpsVQaKQm/qpjg1hhVzLbs5S8DoXPLWRQ7jQLaVhgC0BYFGECB8YxODESEHmy7OpwlvmonxqMtAecrGFRB8Xja1p0EwsBbDjnLAIEBkjCE95oLS3T1DZhw5S8m2Lgjv2RYk1j/JYYEg5nQWsZOfJOSxkDD4fZ8j+1wOM7HqFJPfocRoW8JPJdLSphA2PuDM9rJvFwkkRCQ2aUhfsj+AsYmvLbXsbDTNl68vbBxjA1j3SkkZWnAc7Qg1z4xgM+7HqFeXKIDbBuMyLjIVGn9+fMIYY0Eh/l4icRIh/chauPYIrYxCQzgHJx4ObrEITGL9nvYNppVdsCiR4fkFQuw6ihXOKjJavlhc454JFK2XT7YQ4rYwBtFioEDrIKXfpo5z2VAg8J1bo6RSVJ5JePuQpNzLS5EnuSMZ8OJykqCR1JT0YpJArUzRzKK9KvmbJLz9KAa7KViXMTM0cawpSpsommLAc6xMc0sR5unkrgP95170yoK8sDiVU2Tkft+3bSk4PVcxIujD/3CkLJpX2LszI6lDmgCM9OMALO92GuborUNBgqoLZETAS1cQeIMTBFPBwpUyxOCnRWhhTx5PKHR2FvawfAHvw+ZVHUzKLFrw6nl7MWTciwpKWCK0/UELOOYJWuWWCwZpFEmYVW83GTl9o/+ZQWNE4EcUkA9wgax/V1jSNHdHw0jyg2P9vIbZP5zSAzQPhOEUjxlv68z37oSQOvkdQXVBBcgZDqsTdwJsgMiI4J4T7iTYtasqqoSdGVUqWuHPdweLXlcLYToPK8vzvSmXoctH/LheeU6uuX3z991VO/wr2e+Lq6nkd+u8/Z4xuHDln35qwl11zbsWAhwzkrpU922wdJSAYJJNO7gVVTpmoATpUzSCrVYZd4fEFJOhdDt5rmOkaQQXrYA89zufz2kO2RQl2iyYH/HM2e+mFwBGUKVO6y7cj+V/5Tj/3+1ngc2+d/uuzf7sEjavPZZzRuMxQWfAdUrq/HF33LJ09Z8cBD+KjJOJWK1E44dPZv0V+4F9hUsKxUYLd0Z/2kCwbqaX39ZcTi7m08CxGv8YmAVPxY0hbKZoJQzrGWVx2SOBxHzBnC6nv3br3o3K3HnoBiOlesXHLnXdWVq5vPGd9l+LABE38MGFr7/E++vOueta//puWyCT2POqL54gt7fOuwth/8qOPDj0CC7SMyzh0LTM38UsyytULwJT3KzjI850lPRHNJVStOdYmf4nP9WOHtiNYk0KOOhlr2AlTdUrmxsfnkk1ovOKe+dy988b/80cfb7phcXb6Smurrex11uAtedPkPVj/1DJ7X9EJSatr36y3/cmXjoIHVjR3Lp05bcc/U6sb2wgpT0DZvc4UX7Pl1q6MoCUtD6cnlWY4El0v9tMJt+x1k/ZoR4lWIMFFiqc5PV5wZTSYmiPuev+ipr3dAjZG/NHz6fQOu+j6qXf3qG/OOPO6LH11X+XJ5eCuVFU/EV+GrfvEUqgUeNxKQYZ0XHH38ioceLdXX9Tnr9AH3Tia/c/GYfy8BNIXoJAhVUI+a2Wrezy013AjMY91VFokQBndpzyRHTJVuYMrASYLJWxpeDJv22gPIT8eft+blV8QQ8ydJmlRbxcY5Tq26bt2S625Y9cyzQ6b/tNtuY2A2oY8Y4k7m7eAIRkqQSQr8oTgLNJ5wTU0kZQHc94aBDW8HcOlPLWRmFMZopuaYlxBiNCM8s3jZS6teepnm9P68wx/5VfgH248hXk2BgDBCJ1pB3j5nbgZQLuIxLcX3Z0xwpOV8SY/uvuonPGuRPNPlxxr9IAIFFFAX2fA+LIXWiaMrNKs8rJOYgNkW9IFPyTRMLp25Vd0iXPxhohK0NMXsI3sKoIcDGWzFUR3pIbzI5jFkOlOSDbOW0LSgx60s3gQTqZKK2+l5lA9H721xO7c1hkjD7OURUZzUkJXxJ0BOm/FDHfGapszIDn8zHgbKhrw5v2ntc4BAjGInZOCzR0CbYMTIM58s5qEDLE178wJG633Mkbzvi6j7mF1srDlaH44iBdvXfj971PuzRr0/27DuBx9IRqeXSVhLiNpiYG+CQp6DUhmlcs+egOT3zlq8RmHCqeZ9GBSg1ZGcMXu0lcpb9Rj8k2tG/OwBxw+56bpRzz/Z65gj+102YfhjD8K4dvY7OApLiP62yGss39U0523g7TcNnHZP1512cAiOvEeoEaSaYpQZxY8bLv0SJU+1cffdYOn4dEHcw2vxFIAfHH0De7P/yK/8e2yvbxw49PofN/bvV2lvb5s8pX3BZ/3OP6vriOFIg4ZnqaX33t92279W2zfighz22INNu4+Bcdl905bePrm6EUY+A/Bi5RTiRlnf+4Tjms89s765D7Steea5L2+7s+PzRZxgXTN+5iHceNrZU3BmClvDiOHNN17fMHTIip9MXPfk04WYTfFBjoIpxXR8iY0RTDB7uOsf367r3n3NW7MXXH51+4cfUVV93dbHHDH0pomIm/edk9a9+16mpq5rl9aLzms+/VQ8h2z4cB6eQNbPfd8JIo80123Vo/nMcb1P+fu6rl07vli84LDDUfzIuW9JSH5Y+8prSy66xDPh8LqeW7XcPKnrHrvnIDzVzX1v6dnnl/2nTOorzkvW504tu2BsEdJlP6lUrAzsuy34AOxzthltDNPLvsvHv4f9vZE7WUr/71+88j+eW/8uyit3G7PzoInXdh01MlvqUkcHwGawIAwaBvQb/uIzsOPLA7g2LxiuT3ffB0jG4qexod9dtxerraxatX7mqytuuKm0YUPwO4uO2MugVTpvsfSPS1kBGePa0Ah96uPFouZLhzzcn2HECSuDY89DDmo5c1zf00/19l4/572Pjz6+9R/Pax53at8zx62b/c7amXxQMdjB4OhcpL+nMzUZ/a/Vw1su42v9mpByqeXaa1AtdkTbaWd0Lm5jjOcC8eoU+eWkWJftDu7SKkRS0g3GJYINHfetQXI9AdVSt11rbs5rXn2j7e77gGs56/Rh06eig0t68aRb5p/4vaVTpq7+9cuQEmqCno8xYXEaj9MEZy7nRkVbX3JR02GHVFatXnL+BFTLFGKg0NpYhWCp2BweR/6TBxaVWflEo2AykVEtobk9aG1sGHD5JaNmPIzumlnveFo6N2xYfP0t8477LoxNe+zGuzMZyuvnzG278VasHwP1LIEOf/mdDmum2Ym0/dyXLQ6kqZa2Onlsr++OxS2wbcJlGz+alx6nucYg8cn8Ysj1W0f25yU+eGRVUaKexdxRyaRyCxhy779vv3PGw7j4rnvmjf2eiqFuBGMnJ3ANLWL7nj0e91KgJE6VakaMTypSZuVOrlLTNw/tc/GF8C296ocbZuGTXOkkiHnd1LFLR2KwQpEuwfw5rI2OHDhLCU9Egil/z0A42UvVVS/O/GLyPX865qRFE2+ubNhIE/VxCzUMGZSpTLno6nXEt1snXDB8xsNNB+zHFAnPhVKjwdtAt8+Eoa/b3nvi0gXblzfdtubZ5xwtAtei1ARyKhWY8xf//uzbhFZYExa6WTOr1Z4BC0ndmnbbBS6RVv888aa1c+ZmQ8AwNU1/s9e2T/ws0NKlwki46sWXVj77Qn2vXkPuvqP5rHHGA1nf3Bx4nIBjap4x2yxJrd8tN+AlfMX0h1c+iIsIjrALroGgODAcjUfqQTcmHbag99+HM3E0J0/qIqx94ec4bv/U41/790d6fvPQtBMADThy9Dnh2JHT72to7gOj7PSyIxGVNWsXnjdh8c13wNJ68YWD7rixxwH7Drx10siZz8JSWb1GKoXXllJUMOCDd/Wzzy+bdEvGxn2X6lbZuWZi+JOym63w9+fyb/oO8zR4LbGAHHKGedB/pcZ+rf3Hn9pyytiGrXuDcfVv3/zw+JOpTg0PaoOuuqz1jNMwarv3/tbx/4AOPpxxNHM6wlDqceD+g2+eiKXmAOI6O9e8/Nqy++7foCfTpCTO2743Cxh8B7jo7AtKGzein6i0PaGQ76cQHnj0PYAFFasOAlIcceU3mrcJuOLExLAMhS55cUNvamoZe9zQa6+Gy18MIbC+51bD7rwZz5546vzsyh9++diMXT/5AwBzR+xIqs158B3RsG1GvfAUMG233rny57/oWLw4CdCZEx2Bg386BYNFF15SXb0604OO/qwh9akcel0WVwkuHMTDc3ScpViwsSEzidgkrLrn5x+CYvbg7YxuPvboYbdN6lj25fwzL1jz5iwkioKH7wgG7C0c0ZhVmZ1+hz+9iw7+XSuHWiXbsRUzfASgdoRrvUSzqR6Ogz9l8DDPmdx8iKrqTy1xY2QyX3JKxqsB6Xy12GVqiEPDZQKmZT9/onFA/+VP/mrjws943Ygc513m86kza+9vu7PxCIvLiwx5RjIHIrOTjHBWS0Xyh8KiHlzRmLUaNiaO6U4JSQCj/tRiXi1IJpHxUXeyJUEYm10UpcWTpwQiVZsC8nOwgWHzlmzcDlDJlYnizG8VZqBkA+iTQoUntYmLBFoQzpVnLDT733ho5UAQIIZ5MWnRRUVGzaLklLrvOHr9Hz6gNwiJpxJa2OYM24Ffd8tNj1Tilole19HbGYOjGBhLfu8vpEubfBN+kdBWg7dUZTJeWyXXT0+BH5/DlCgoO54+CnT9mTRjqtUVL78G2+inH/fdOPlZG0hIkZo5SWOXnH3HnTJyxiOA4FveWjhsBPJXqWu90uMPI+cwJkKUuphcc13LEPzxaMmRAnBM6UicGdEXa+nDU89cfP9DeIkd+sMrRj08tb6lrwPgJQSaUiNViOMJyGHTpuA7bbwwL3vo0U/PuoB4R6Wj8RGGAeJIooZBWf9GwV/C+TKkVpFomMP58cukOuZ92OrHdcNHIvc51h2ITY7MyeUmgD5gOjpXvDhzzbtzex+wX/cdRvc94Tt4y2//eD756+qbjz1q628dBp7Khg34O1N17TqG4lunQw4c8cC93Udv17F02YKLLl029cES/ubEjJTljo46KF30dDlIAIHSiVNcAhkGNaGvVHEUWnjCo0PMq73xQE+L8ehrGLGZMTrM7J9SQ7/Wkbff0Oug/YFvm/bQmrfnDLjw3G4jhzNeDX+IWfH8r5c9+njvQw/ue8pY2Fa98vrCS/65Y8kSs+HoDlzRCe5aPbmReMwQxBFPjSlQHdjsZXxYBEowBr7Sa3DcXQrxSo+xpi0Fkx4NiWRRt9T/rHGDr7gUO1y+0vp587+4ffLGtqUtJ5/Y+7BvlBv4sYdW2dC+6Pqbl0yd5lgcQYPtw04NPwUnCwNTn1mpR+lt57jAQDTwKIYn8tNPMk5DuhFWWbCchIk0DmmkYJJ4z5gtIZmed+wRt00qd+3yxZ13L5vxS/99GHg8kPY96bjmE4/rXLVq4aVX4K5ODaKHCGjl359zxbWlMqPYfQoBvsWqBhGxGDV3NhtmTsCon/WjYA5IHnKKYVlfWgVSbkaiwxlkN9tINMZsMJmGkSxgwheEEG9y4xWilZHV/Bme+f5nfsJUSdbZRA/C430YilW2b3q+ufHGsPn7pO57LJUdnNFhqEqnTfdHemGlOK8hHGgsHXbH6saTfRFBtIoBjIEiDf4C3l90ABL8ZOPSycIYBcKmJeSZH2WBFz8/lmDxQck8BMWW3yfFGdTEs2ZWu/n7M4miSAE0Vs0IT/yuDQbpIpVgRT3wZHgmgs+N9CEAtaCbhWMKOJWEeu4YILjeh+nwSERMICxBXDAc/T8AiLBcHAPzWHdFrTCxacWJMWdgOGSsJRbX2ZaQA4zohE5dxBX1WCEFCy1OiS7gtc4c46PTJxy1/4DMv3NhmHdlcmZgdjh3OV4FMCWjsBB6PMhkOBAualWTQK2P7yARaCePaYMnvJJZZObL0eqRPumHQUpCD4d6KOI/W8J+d2m6ing98CODDX12vGF0qdguJ+0QILxnl3PAC1VnhYWd/OJBRA2e/OSAHBx46w5qnGDhQzXxaV8mPXQmfhE4jOwFfvUDiHnAEDrir4dKIymSZn04qpPSIY0dIYr2kCi5UkEdDBSGePUcxxH+M1+6GnlbBSZgjosEgWdeWESLjgKN86IRrbHxXAXhzZKmQCj/fdhhLgZHdvgb5dliLmQjOQaFYxagQHrZCQDx/pfIsiWv6YQTPPAsPmdGVwNG8jejdQcGFL8JniBc1VvCK8r/XjrlEK/S5BZKoJxkYfasH57cwl7WBC3GmokaE0OOpc/U6qU0BmD0l/37bTEoAcvjmmUZgj/9fdi5OD/SkoAYc75CHy8hNbGALt0hYUzKGEBuHLm32bKcHulIY6yOEDhgeclXwGvIlc2Ey1+rR7eiPDuxbLSkBOjCwnuEvuKBjz0CPPnqmZUXet7EwiHx9tjt6xC5injlULAqZ1hOprsikspkMzXE7QIn5crwgilpZgJf0pP+xXORX8ub9CAI4vBT5r8AYPXMxJOO6HhuNbSN9EaEUVHhk0cS0TMSx2DUmTKTC2fCPPR2KLgcSDh+fAz6nDnLojixmT8vgAlQlLagLgcVCNt/A4D7Ywhvi2SEAAAAAElFTkSuQmCC;" parent="_xa58697VZdUaDmlX0MW-1" vertex="1">
          <mxGeometry x="712" y="678.5" width="80" height="80" as="geometry" />
        </mxCell>
        <mxCell id="_xa58697VZdUaDmlX0MW-14" value="&lt;div align=&quot;center&quot;&gt;Amazon Chime&lt;br&gt;&lt;/div&gt;&lt;div align=&quot;center&quot;&gt;Voice Connector&lt;br&gt;&lt;/div&gt;" style="text;html=1;align=center;" parent="_xa58697VZdUaDmlX0MW-1" vertex="1">
          <mxGeometry x="692" y="758.13" width="120" height="47" as="geometry" />
        </mxCell>
        <object label="SIPREC/CallTranscriber" id="EHnQ2k31aWHRx2nd6djR-17">
          <mxCell style="locked=1;" parent="0" visible="0" />
        </object>
        <mxCell id="EHnQ2k31aWHRx2nd6djR-19" value=" Call Ingestion" style="fillColor=none;strokeColor=#5A6C86;dashed=1;verticalAlign=top;fontStyle=0;fontColor=#5A6C86;align=left;" parent="EHnQ2k31aWHRx2nd6djR-17" vertex="1">
          <mxGeometry x="680" y="640" width="610" height="300" as="geometry" />
        </mxCell>
        <mxCell id="EHnQ2k31aWHRx2nd6djR-20" style="edgeStyle=orthogonalEdgeStyle;rounded=0;orthogonalLoop=1;jettySize=auto;html=1;" parent="EHnQ2k31aWHRx2nd6djR-17" edge="1">
          <mxGeometry relative="1" as="geometry">
            <mxPoint x="420" y="719" as="sourcePoint" />
            <mxPoint x="713" y="719" as="targetPoint" />
          </mxGeometry>
        </mxCell>
        <mxCell id="EHnQ2k31aWHRx2nd6djR-21" value="SIPREC" style="text;html=1;align=center;verticalAlign=middle;resizable=0;points=[];labelBackgroundColor=#ffffff;" parent="EHnQ2k31aWHRx2nd6djR-20" vertex="1" connectable="0">
          <mxGeometry x="0.3827" y="-3" relative="1" as="geometry">
            <mxPoint x="-3" y="-14" as="offset" />
          </mxGeometry>
        </mxCell>
        <mxCell id="EHnQ2k31aWHRx2nd6djR-25" value="" style="group" parent="EHnQ2k31aWHRx2nd6djR-17" vertex="1" connectable="0">
          <mxGeometry x="940" y="680" width="120" height="113.12" as="geometry" />
        </mxCell>
        <mxCell id="EHnQ2k31aWHRx2nd6djR-26" value="" style="outlineConnect=0;fontColor=#232F3E;gradientColor=#945DF2;gradientDirection=north;fillColor=#5A30B5;strokeColor=#ffffff;dashed=0;verticalLabelPosition=bottom;verticalAlign=top;align=center;html=1;fontSize=12;fontStyle=0;aspect=fixed;shape=mxgraph.aws4.resourceIcon;resIcon=mxgraph.aws4.kinesis_video_streams;" parent="EHnQ2k31aWHRx2nd6djR-25" vertex="1">
          <mxGeometry x="21" width="78" height="78" as="geometry" />
        </mxCell>
        <mxCell id="EHnQ2k31aWHRx2nd6djR-27" value="&lt;div align=&quot;center&quot;&gt;Amazon Kinesis Video Streams&lt;br&gt;&lt;/div&gt;&lt;div align=&quot;center&quot;&gt;Audio Streams&lt;br&gt;&lt;/div&gt;" style="text;html=1;align=center;" parent="EHnQ2k31aWHRx2nd6djR-25" vertex="1">
          <mxGeometry y="77.12" width="120" height="30" as="geometry" />
        </mxCell>
        <mxCell id="EHnQ2k31aWHRx2nd6djR-28" value="&lt;div align=&quot;center&quot;&gt;Call signaling events&lt;/div&gt;" style="text;html=1;align=center;" parent="EHnQ2k31aWHRx2nd6djR-17" vertex="1">
          <mxGeometry x="770" y="855" width="170" height="30" as="geometry" />
        </mxCell>
        <mxCell id="EHnQ2k31aWHRx2nd6djR-29" value="&lt;div&gt;Call audio streams&lt;br&gt;&lt;/div&gt;" style="text;html=1;align=left;" parent="EHnQ2k31aWHRx2nd6djR-17" vertex="1">
          <mxGeometry x="1089" y="694" width="170" height="30" as="geometry" />
        </mxCell>
        <mxCell id="EHnQ2k31aWHRx2nd6djR-30" value="" style="group" parent="EHnQ2k31aWHRx2nd6djR-17" vertex="1" connectable="0">
          <mxGeometry x="940" y="813.5" width="120" height="113" as="geometry" />
        </mxCell>
        <mxCell id="EHnQ2k31aWHRx2nd6djR-31" value="" style="outlineConnect=0;fontColor=#232F3E;gradientColor=#F34482;gradientDirection=north;fillColor=#BC1356;strokeColor=#ffffff;dashed=0;verticalLabelPosition=bottom;verticalAlign=top;align=center;html=1;fontSize=12;fontStyle=0;aspect=fixed;shape=mxgraph.aws4.resourceIcon;resIcon=mxgraph.aws4.eventbridge;" parent="EHnQ2k31aWHRx2nd6djR-30" vertex="1">
          <mxGeometry x="21" width="78" height="78" as="geometry" />
        </mxCell>
        <mxCell id="EHnQ2k31aWHRx2nd6djR-32" value="Amazon EventBridge&lt;br&gt;&lt;div align=&quot;center&quot;&gt;Call Signaling Events&lt;/div&gt;" style="text;html=1;" parent="EHnQ2k31aWHRx2nd6djR-30" vertex="1">
          <mxGeometry y="79" width="120" height="30" as="geometry" />
        </mxCell>
        <mxCell id="EHnQ2k31aWHRx2nd6djR-33" value="" style="edgeStyle=orthogonalEdgeStyle;html=1;endArrow=block;elbow=vertical;startArrow=none;endFill=1;strokeColor=#545B64;rounded=0;exitX=0.5;exitY=1;exitDx=0;exitDy=0;" parent="EHnQ2k31aWHRx2nd6djR-17" source="EHnQ2k31aWHRx2nd6djR-24" target="EHnQ2k31aWHRx2nd6djR-31" edge="1">
          <mxGeometry width="100" relative="1" as="geometry">
            <mxPoint x="742" y="878" as="sourcePoint" />
            <mxPoint x="992" y="878" as="targetPoint" />
            <Array as="points">
              <mxPoint x="752" y="853" />
            </Array>
          </mxGeometry>
        </mxCell>
        <mxCell id="EHnQ2k31aWHRx2nd6djR-34" value="" style="edgeStyle=orthogonalEdgeStyle;html=1;endArrow=block;elbow=vertical;startArrow=none;endFill=1;strokeColor=#545B64;rounded=0;" parent="EHnQ2k31aWHRx2nd6djR-17" target="EHnQ2k31aWHRx2nd6djR-26" edge="1">
          <mxGeometry width="100" relative="1" as="geometry">
            <mxPoint x="791" y="719" as="sourcePoint" />
            <mxPoint x="1014.25" y="721" as="targetPoint" />
          </mxGeometry>
        </mxCell>
        <mxCell id="EHnQ2k31aWHRx2nd6djR-35" value="&lt;div align=&quot;center&quot;&gt;Call audio streams&lt;br&gt;&lt;/div&gt;" style="text;html=1;align=center;" parent="EHnQ2k31aWHRx2nd6djR-17" vertex="1">
          <mxGeometry x="812" y="694" width="170" height="30" as="geometry" />
        </mxCell>
        <mxCell id="EHnQ2k31aWHRx2nd6djR-36" value="&lt;div&gt;Call signaling events&lt;/div&gt;" style="text;html=1;align=left;" parent="EHnQ2k31aWHRx2nd6djR-17" vertex="1">
          <mxGeometry x="1089" y="825" width="170" height="30" as="geometry" />
        </mxCell>
        <mxCell id="EHnQ2k31aWHRx2nd6djR-37" style="edgeStyle=orthogonalEdgeStyle;rounded=0;orthogonalLoop=1;jettySize=auto;html=1;" parent="EHnQ2k31aWHRx2nd6djR-17" source="EHnQ2k31aWHRx2nd6djR-31" edge="1">
          <mxGeometry relative="1" as="geometry">
            <Array as="points">
              <mxPoint x="1290" y="852" />
              <mxPoint x="1290" y="852" />
            </Array>
            <mxPoint x="1371" y="852" as="targetPoint" />
          </mxGeometry>
        </mxCell>
        <mxCell id="EHnQ2k31aWHRx2nd6djR-38" value=" Customer on-premise contact center" style="fillColor=none;strokeColor=#5A6C86;dashed=1;verticalAlign=top;fontStyle=0;fontColor=#5A6C86;align=left;" parent="EHnQ2k31aWHRx2nd6djR-17" vertex="1">
          <mxGeometry x="290" y="640" width="300" height="310" as="geometry" />
        </mxCell>
        <mxCell id="EHnQ2k31aWHRx2nd6djR-39" value="" style="outlineConnect=0;fontColor=#232F3E;gradientColor=none;fillColor=#5A30B5;strokeColor=#000000;dashed=0;verticalLabelPosition=bottom;verticalAlign=top;align=center;html=1;fontSize=12;fontStyle=0;aspect=fixed;pointerEvents=1;shape=mxgraph.aws4.customer_gateway;" parent="EHnQ2k31aWHRx2nd6djR-17" vertex="1">
          <mxGeometry x="350" y="689" width="60" height="60" as="geometry" />
        </mxCell>
        <mxCell id="EHnQ2k31aWHRx2nd6djR-40" value="" style="outlineConnect=0;fontColor=#232F3E;gradientColor=none;fillColor=#232F3E;strokeColor=none;dashed=0;verticalLabelPosition=bottom;verticalAlign=top;align=center;html=1;fontSize=12;fontStyle=0;aspect=fixed;pointerEvents=1;shape=mxgraph.aws4.traditional_server;" parent="EHnQ2k31aWHRx2nd6djR-17" vertex="1">
          <mxGeometry x="356.5" y="801" width="45" height="78" as="geometry" />
        </mxCell>
        <mxCell id="EHnQ2k31aWHRx2nd6djR-41" value="Session Border Controller&lt;br&gt;(SBC)" style="text;html=1;align=center;verticalAlign=middle;resizable=0;points=[];autosize=1;" parent="EHnQ2k31aWHRx2nd6djR-17" vertex="1">
          <mxGeometry x="304" y="761" width="150" height="30" as="geometry" />
        </mxCell>
        <mxCell id="EHnQ2k31aWHRx2nd6djR-42" value="Contact Center&lt;br&gt;Telephony" style="text;html=1;align=center;verticalAlign=middle;resizable=0;points=[];autosize=1;" parent="EHnQ2k31aWHRx2nd6djR-17" vertex="1">
          <mxGeometry x="329" y="882" width="100" height="30" as="geometry" />
        </mxCell>
        <mxCell id="EHnQ2k31aWHRx2nd6djR-44" value="" style="group" parent="EHnQ2k31aWHRx2nd6djR-17" vertex="1" connectable="0">
          <mxGeometry x="310" y="1000" width="140" height="70" as="geometry" />
        </mxCell>
        <mxCell id="EHnQ2k31aWHRx2nd6djR-45" value="" style="html=1;verticalLabelPosition=bottom;align=center;labelBackgroundColor=#ffffff;verticalAlign=top;strokeWidth=2;strokeColor=#33001a;shadow=0;dashed=0;shape=mxgraph.ios7.icons.cloud;" parent="EHnQ2k31aWHRx2nd6djR-44" vertex="1">
          <mxGeometry width="140" height="70" as="geometry" />
        </mxCell>
        <mxCell id="EHnQ2k31aWHRx2nd6djR-46" value="Public Switched&lt;br&gt;Telephone Network&lt;br&gt;(PSTN)" style="text;html=1;align=center;verticalAlign=middle;resizable=0;points=[];autosize=1;" parent="EHnQ2k31aWHRx2nd6djR-44" vertex="1">
          <mxGeometry x="10" y="20" width="120" height="50" as="geometry" />
        </mxCell>
        <mxCell id="EHnQ2k31aWHRx2nd6djR-47" style="edgeStyle=orthogonalEdgeStyle;rounded=0;orthogonalLoop=1;jettySize=auto;html=1;" parent="EHnQ2k31aWHRx2nd6djR-17" edge="1">
          <mxGeometry relative="1" as="geometry">
            <mxPoint x="380" y="930" as="targetPoint" />
            <mxPoint x="380" y="990" as="sourcePoint" />
          </mxGeometry>
        </mxCell>
        <mxCell id="EHnQ2k31aWHRx2nd6djR-48" style="edgeStyle=orthogonalEdgeStyle;rounded=0;orthogonalLoop=1;jettySize=auto;html=1;" parent="EHnQ2k31aWHRx2nd6djR-17" source="EHnQ2k31aWHRx2nd6djR-49" edge="1">
          <mxGeometry relative="1" as="geometry">
            <mxPoint x="379" y="1080" as="targetPoint" />
          </mxGeometry>
        </mxCell>
        <mxCell id="EHnQ2k31aWHRx2nd6djR-49" value="" style="verticalLabelPosition=bottom;verticalAlign=top;html=1;shadow=0;dashed=0;strokeWidth=1;shape=mxgraph.android.phone2;strokeColor=#33001a;" parent="EHnQ2k31aWHRx2nd6djR-17" vertex="1">
          <mxGeometry x="359" y="1150" width="40" height="70" as="geometry" />
        </mxCell>
        <mxCell id="EHnQ2k31aWHRx2nd6djR-50" value="Caller" style="text;html=1;align=center;verticalAlign=middle;resizable=0;points=[];autosize=1;" parent="EHnQ2k31aWHRx2nd6djR-17" vertex="1">
          <mxGeometry x="354" y="1220" width="50" height="20" as="geometry" />
        </mxCell>
        <mxCell id="EHnQ2k31aWHRx2nd6djR-51" value="" style="group" parent="EHnQ2k31aWHRx2nd6djR-17" vertex="1" connectable="0">
          <mxGeometry x="1360" y="787" width="100" height="111.64999999999998" as="geometry" />
        </mxCell>
        <mxCell id="EHnQ2k31aWHRx2nd6djR-52" value="&lt;div&gt;AWS Lambda&lt;br&gt;Call Transcriber&lt;/div&gt;" style="text;html=1;align=center;verticalAlign=middle;resizable=0;points=[];autosize=1;" parent="EHnQ2k31aWHRx2nd6djR-51" vertex="1">
          <mxGeometry y="81.64999999999998" width="100" height="30" as="geometry" />
        </mxCell>
        <mxCell id="EHnQ2k31aWHRx2nd6djR-53" value="" style="outlineConnect=0;fontColor=#232F3E;gradientColor=#F78E04;gradientDirection=north;fillColor=#D05C17;strokeColor=#ffffff;dashed=0;verticalLabelPosition=bottom;verticalAlign=top;align=center;html=1;fontSize=12;fontStyle=0;aspect=fixed;shape=mxgraph.aws4.resourceIcon;resIcon=mxgraph.aws4.lambda;" parent="EHnQ2k31aWHRx2nd6djR-51" vertex="1">
          <mxGeometry x="11" width="78" height="78" as="geometry" />
        </mxCell>
        <mxCell id="EHnQ2k31aWHRx2nd6djR-54" value="" style="group" parent="EHnQ2k31aWHRx2nd6djR-17" vertex="1" connectable="0">
          <mxGeometry x="1509" y="835.5" width="154" height="96.5" as="geometry" />
        </mxCell>
        <mxCell id="EHnQ2k31aWHRx2nd6djR-55" value="" style="outlineConnect=0;fontColor=#232F3E;gradientColor=#60A337;gradientDirection=north;fillColor=#277116;strokeColor=#ffffff;dashed=0;verticalLabelPosition=bottom;verticalAlign=top;align=center;html=1;fontSize=12;fontStyle=0;aspect=fixed;shape=mxgraph.aws4.resourceIcon;resIcon=mxgraph.aws4.s3;" parent="EHnQ2k31aWHRx2nd6djR-54" vertex="1">
          <mxGeometry x="0.53" y="11.59" width="59.47" height="59.47" as="geometry" />
        </mxCell>
        <mxCell id="EHnQ2k31aWHRx2nd6djR-56" value="" style="html=1;endArrow=block;elbow=vertical;startArrow=none;endFill=1;strokeColor=#545B64;rounded=0;" parent="EHnQ2k31aWHRx2nd6djR-17" source="EHnQ2k31aWHRx2nd6djR-53" target="EHnQ2k31aWHRx2nd6djR-55" edge="1">
          <mxGeometry width="100" relative="1" as="geometry">
            <mxPoint x="1424" y="918" as="sourcePoint" />
            <mxPoint x="1524" y="918" as="targetPoint" />
          </mxGeometry>
        </mxCell>
        <mxCell id="EHnQ2k31aWHRx2nd6djR-57" value="" style="group" parent="EHnQ2k31aWHRx2nd6djR-17" vertex="1" connectable="0">
          <mxGeometry x="1492" y="682.59" width="100" height="130" as="geometry" />
        </mxCell>
        <mxCell id="EHnQ2k31aWHRx2nd6djR-58" value="" style="outlineConnect=0;fontColor=#232F3E;gradientColor=#F78E04;gradientDirection=north;fillColor=#D05C17;strokeColor=#ffffff;dashed=0;verticalLabelPosition=bottom;verticalAlign=top;align=center;html=1;fontSize=12;fontStyle=0;aspect=fixed;shape=mxgraph.aws4.resourceIcon;resIcon=mxgraph.aws4.lambda;" parent="EHnQ2k31aWHRx2nd6djR-57" vertex="1">
          <mxGeometry x="17.5" y="-21" width="59" height="59" as="geometry" />
        </mxCell>
        <mxCell id="EHnQ2k31aWHRx2nd6djR-59" value="" style="html=1;endArrow=block;elbow=vertical;startArrow=none;endFill=1;strokeColor=#545B64;rounded=0;" parent="EHnQ2k31aWHRx2nd6djR-57" edge="1">
          <mxGeometry width="100" relative="1" as="geometry">
            <mxPoint x="-41" y="142.4128788787391" as="sourcePoint" />
            <mxPoint x="18" y="107.40999999999997" as="targetPoint" />
          </mxGeometry>
        </mxCell>
        <mxCell id="EHnQ2k31aWHRx2nd6djR-60" value="" style="edgeStyle=orthogonalEdgeStyle;rounded=0;orthogonalLoop=1;jettySize=auto;html=1;" parent="EHnQ2k31aWHRx2nd6djR-17" source="EHnQ2k31aWHRx2nd6djR-53" edge="1">
          <mxGeometry relative="1" as="geometry">
            <mxPoint x="1400" y="767" as="targetPoint" />
            <Array as="points">
              <mxPoint x="1400" y="767" />
            </Array>
          </mxGeometry>
        </mxCell>
        <mxCell id="EHnQ2k31aWHRx2nd6djR-61" value="" style="edgeStyle=orthogonalEdgeStyle;rounded=0;orthogonalLoop=1;jettySize=auto;html=1;" parent="EHnQ2k31aWHRx2nd6djR-17" source="EHnQ2k31aWHRx2nd6djR-68" target="EHnQ2k31aWHRx2nd6djR-53" edge="1">
          <mxGeometry relative="1" as="geometry">
            <Array as="points">
              <mxPoint x="1420" y="787" />
              <mxPoint x="1420" y="787" />
            </Array>
          </mxGeometry>
        </mxCell>
        <mxCell id="EHnQ2k31aWHRx2nd6djR-62" style="edgeStyle=orthogonalEdgeStyle;rounded=0;orthogonalLoop=1;jettySize=auto;html=1;" parent="EHnQ2k31aWHRx2nd6djR-17" source="EHnQ2k31aWHRx2nd6djR-26" edge="1">
          <mxGeometry relative="1" as="geometry">
            <mxPoint x="1370" y="830" as="targetPoint" />
            <Array as="points">
              <mxPoint x="1260" y="719" />
              <mxPoint x="1260" y="830" />
            </Array>
          </mxGeometry>
        </mxCell>
        <mxCell id="EHnQ2k31aWHRx2nd6djR-63" value="Amazon S3&lt;br&gt;Call Recordings" style="text;html=1;align=center;verticalAlign=middle;resizable=0;points=[];autosize=1;" parent="EHnQ2k31aWHRx2nd6djR-17" vertex="1">
          <mxGeometry x="1562.000909090909" y="855.0910619469026" width="100" height="30" as="geometry" />
        </mxCell>
        <mxCell id="EHnQ2k31aWHRx2nd6djR-64" value="Amazon &lt;br&gt;DynamoDB&lt;br&gt;Event caching" style="text;html=1;align=center;verticalAlign=middle;resizable=0;points=[];autosize=1;" parent="EHnQ2k31aWHRx2nd6djR-17" vertex="1">
          <mxGeometry x="1564" y="754.7115604681405" width="90" height="50" as="geometry" />
        </mxCell>
        <mxCell id="EHnQ2k31aWHRx2nd6djR-65" value="AWS Lambda&lt;br&gt;Call Initialization&lt;br&gt;(Optional)" style="text;html=1;align=center;verticalAlign=middle;resizable=0;points=[];autosize=1;" parent="EHnQ2k31aWHRx2nd6djR-17" vertex="1">
          <mxGeometry x="1563" y="670.5880230168516" width="100" height="50" as="geometry" />
        </mxCell>
        <mxCell id="EHnQ2k31aWHRx2nd6djR-66" value="" style="html=1;endArrow=block;elbow=vertical;startArrow=none;endFill=1;strokeColor=#545B64;rounded=0;" parent="EHnQ2k31aWHRx2nd6djR-17" edge="1">
          <mxGeometry width="100" relative="1" as="geometry">
            <mxPoint x="1450" y="804.712878878739" as="sourcePoint" />
            <mxPoint x="1510" y="720" as="targetPoint" />
          </mxGeometry>
        </mxCell>
        <mxCell id="EHnQ2k31aWHRx2nd6djR-67" value="" style="group" parent="EHnQ2k31aWHRx2nd6djR-17" vertex="1" connectable="0">
          <mxGeometry x="1350" y="657" width="144.99999999999974" height="123" as="geometry" />
        </mxCell>
        <mxCell id="EHnQ2k31aWHRx2nd6djR-68" value="&lt;div&gt;Amazon Transcribe&lt;br&gt;Streaming&lt;br&gt;&lt;/div&gt;" style="text;html=1;align=center;verticalAlign=middle;resizable=0;points=[];autosize=1;" parent="EHnQ2k31aWHRx2nd6djR-67" vertex="1">
          <mxGeometry y="82.99999999999997" width="120" height="30" as="geometry" />
        </mxCell>
        <mxCell id="EHnQ2k31aWHRx2nd6djR-69" value="" style="outlineConnect=0;fontColor=#232F3E;gradientColor=#4AB29A;gradientDirection=north;fillColor=#116D5B;strokeColor=#ffffff;dashed=0;verticalLabelPosition=bottom;verticalAlign=top;align=center;html=1;fontSize=12;fontStyle=0;aspect=fixed;shape=mxgraph.aws4.resourceIcon;resIcon=mxgraph.aws4.transcribe;" parent="EHnQ2k31aWHRx2nd6djR-67" vertex="1">
          <mxGeometry x="21" y="5" width="78" height="78" as="geometry" />
        </mxCell>
        <mxCell id="EHnQ2k31aWHRx2nd6djR-70" value=" Call Processing" style="fillColor=none;strokeColor=#5A6C86;dashed=1;verticalAlign=top;fontStyle=0;fontColor=#5A6C86;align=left;" parent="EHnQ2k31aWHRx2nd6djR-17" vertex="1">
          <mxGeometry x="1310.5" y="640" width="351.5" height="300" as="geometry" />
        </mxCell>
        <mxCell id="EHnQ2k31aWHRx2nd6djR-71" value="" style="group" parent="EHnQ2k31aWHRx2nd6djR-17" vertex="1" connectable="0">
          <mxGeometry x="1494.5" y="758.59" width="125" height="100.55156046814044" as="geometry" />
        </mxCell>
        <mxCell id="EHnQ2k31aWHRx2nd6djR-72" value="" style="outlineConnect=0;fontColor=#232F3E;gradientColor=#4D72F3;gradientDirection=north;fillColor=#3334B9;strokeColor=#ffffff;dashed=0;verticalLabelPosition=bottom;verticalAlign=top;align=center;html=1;fontSize=12;fontStyle=0;aspect=fixed;shape=mxgraph.aws4.resourceIcon;resIcon=mxgraph.aws4.dynamodb;" parent="EHnQ2k31aWHRx2nd6djR-71" vertex="1">
          <mxGeometry x="17" width="60" height="60" as="geometry" />
        </mxCell>
        <mxCell id="y5ZOfHpRJfJ5_4OQyfgZ-2" value="" style="shape=image;verticalLabelPosition=bottom;labelBackgroundColor=#ffffff;verticalAlign=top;aspect=fixed;imageAspect=0;image=data:image/png,iVBORw0KGgoAAAANSUhEUgAAAFAAAABQCAIAAAABc2X6AAAAAXNSR0IArs4c6QAAAERlWElmTU0AKgAAAAgAAYdpAAQAAAABAAAAGgAAAAAAA6ABAAMAAAABAAEAAKACAAQAAAABAAAAUKADAAQAAAABAAAAUAAAAAAx4ExPAAAa2UlEQVR4AcVcaZRV1ZV+rwaGQkCKKmZkkCiOOLYr7Ry1kxXHLEc6GlvEeWrUNrYa2yRmiTgPjS0qEcUhLkObqLGdIo5JR0ERTdpEEQUNUoDMQ1H1Xn/DPvfeB3SblR/dp8p7z9n729/+9jnn3nfvK5blebvsVS6Xq9UqjuVyqaQDjiV08VOiXcMqT+zLY3sOlxU8sjtQcBOVS+IXI53gqVZ5zPlDwFfwA6+cKdAcmU7rUQaohNP8MISwcrkBdlRLt1qxH8pglxqCiDSL4TWxMLEGcHs61Ak8Qt1LDCZz5XCyk/hJgSRqNXrMTxXCk5GpFL4FPBxFfiAQWJcxolOpMKkbpwkmz0Uygx6NGdyzN0XQV2MBTj88KzL4TUca/RbO4iUfAis1bFwltcjmU7LU6Al6TgaayJiJnCiYnaQy1kcywoiTVGIygNMiMRBixcGdKYYgEZy2CsPsYwKC2LiMGOmXRuDR1CG/19kWwh3KGBIWa6YsBlII3dwVaNQjOMgqSpfx0wP+BqcjVlcyIs1LKgISI3OTM2DqSSJ7TMmW8EBqf9hUDATUDIpJeIUbBr9nSjCAea3bQsXk1Q/T1eihbCoGgrnpB6BGP011Eq2JMUhI5GYYa+RCwUOngiUL1KQTgq4wAo2rIvGIIVzUCLuUMJb9xA+H+ZmRQM8IrOaPWK4e1KSNo4kTE5UBw1DzF/R4Y+b8VRRMECdGVothSlJzZC50CENzT0Na0hBqsIVQhUVTgOAEQIBgwisdcJLCCLqiMUJFcjrMEENWK37roa/ALxk4WI/SBd48BXrctLQkguayOPQouPJ5hYs2nQRRPYKBN9jigmcioiXFHdKmWHeFSfuCFz+BwPAX52CQHvHAWFxnoRMlIyJAPdppKOjhTStrcIOrOERfMVo3VF1oMjHCNinkpkKE183J8gjulRzvUoimJm6MuBoKSeCiVjWYWbRIChdLgT4EJbyS2Sb6KB43Le0iBWJDoqWZBQx95ueGr3CIIAwRgDO4aOFm48EEOZ67MsLl4iHHs1waQERNJiab7c5DPJpzGk9+5iQQZXMKsgZLHX2C1Ooxr/jTCgsAKOuPvDixpZTsw1vIICky2KpwRmQyauCyh0TJDZhKMi3xSYnSMWPwAUYJrJOYgNkmB+UJr44rhwUFJDivuPxzmD6XxLsVMZbLk3w6chYQZmTgCWdEBmNADIXPw0Vqp/kFo0H5WI72toY4BB6n1MvO7BT3tjgiACf3cgYz8nOYtPRiJoRz0qCDl2Y15IzZFRn6XXYc3XvCBV12GF3X1BSg/9tTtaOjMm9e58xXNs6Y4akNqZof7E0Oo0KuCDSX/2u7Mdj69ETBAcMpevTYr/g0bNx2xMBHHih36eIc/7/HjrdmtV91NW5xXBL+SKULToJdBV4eWDn+i5JDOK8T7hnHgIAIX3kEwtXrtFNR7epfPr38uknV9nbHFacmpcN84cIJqiJAGQtTaaFgr+MTPpCFec7LyKPQa2yoH7Nrt0svadhrz84jDu948knL0OIV9IeVNebXMHc1LEjlpvL8+ciXCt5IVTQO3P+lrrvshPjld02prF+vj1/S0SUK9zkKo132OUGGD1eK45nToGBBBfBQDwTKIvjGjs5ZszfcejvgDYcczCD+RNtCaj5pqWUUHipfZAQJhnhmtCvwlWrDoIHody5eTAsDmI0xUSReBsJMT1IfMJ7YqE4B2I2MM08BLwM/OIjTFDEI/0mP4R3vzIGlbsSIyIJB3lg8RuC3LV4esu1nt32gw64y3tsLXlmkrbGRRJ2dBvOIfecPD8PoBhI0VOxW5GcES+FP1gk8YtxLDCZTdnazRORYv55U3boJQ21ZIy1VWDZA6X0YtLCiEeoQSg8LDLQVMcTVNF5kmzAoYvCbr+O3hj/ieCNAy1haX5/Z+tpMJIGFGdG06hrBxomLfnYWb8ZQZIMeMhT4CfP7MFk40WhcT7NpDxRqZqjWgVHCEs9QjniUESepTI+vsbKaZ6C9XxhivOCMzB9pySYqsuuZQSkyfOr8le/P+Vc8nBLtPa8V06GO2ItUkGR4puVXpZ7L2Lk1+Ey3yuPuxZQhMGPAjuOY1Dqb1CVx0wIPdOpQzRb4KTsFAkGULSxHK5kAhPkrHq8vsyK1fuHTltB7ho0UCnN2PUQSnqSMZWh9KRi/SGwIAUIJQRcR4i++PxtsFwLYsR7Gs4zgh8P8cJM59h365o9Y83O/KTnlEJ9/LImFPiFQrW5rnK3UmMkivFBhhxFc/9v7s4AZP9QP+t3rA//zVZgtAinyLCFAp5QOOF0jjMB/fWa+gF8gmFonZeA4DUO/V5jsnCO2+BLPg0iLQRLALsBa5yDVR7PttCQiRwS+MK+OimwaZOSMNluRX8nBQyrPRAw0kp7g1IkEhdliBAMj1r7i+3N8DiNWCw7AV7xPFpOhn99sSqXhc36HX+XgOvjuleFlyvkJgCxZvW4ZMjq8gKotr73U8tpMWlQKz6m+v+79me/DpEND9r/gfZIwZXcQ9qQIEokEYe6K789AYh0QpQ1svKNDPfGJINcTeCKTkThOUd5SWLLU6kEuyZVi3lxLej1MYGY1tdJTGTu6jE2cL1pKBDy3BoehJKUkaxLqDCpV1B4HPwITm+3pWLBTdhpqKyYGSExwplNGA9PdJ7+MpafmpsVQaKQm/qpjg1hhVzLbs5S8DoXPLWRQ7jQLaVhgC0BYFGECB8YxODESEHmy7OpwlvmonxqMtAecrGFRB8Xja1p0EwsBbDjnLAIEBkjCE95oLS3T1DZhw5S8m2Lgjv2RYk1j/JYYEg5nQWsZOfJOSxkDD4fZ8j+1wOM7HqFJPfocRoW8JPJdLSphA2PuDM9rJvFwkkRCQ2aUhfsj+AsYmvLbXsbDTNl68vbBxjA1j3SkkZWnAc7Qg1z4xgM+7HqFeXKIDbBuMyLjIVGn9+fMIYY0Eh/l4icRIh/chauPYIrYxCQzgHJx4ObrEITGL9nvYNppVdsCiR4fkFQuw6ihXOKjJavlhc454JFK2XT7YQ4rYwBtFioEDrIKXfpo5z2VAg8J1bo6RSVJ5JePuQpNzLS5EnuSMZ8OJykqCR1JT0YpJArUzRzKK9KvmbJLz9KAa7KViXMTM0cawpSpsommLAc6xMc0sR5unkrgP95170yoK8sDiVU2Tkft+3bSk4PVcxIujD/3CkLJpX2LszI6lDmgCM9OMALO92GuborUNBgqoLZETAS1cQeIMTBFPBwpUyxOCnRWhhTx5PKHR2FvawfAHvw+ZVHUzKLFrw6nl7MWTciwpKWCK0/UELOOYJWuWWCwZpFEmYVW83GTl9o/+ZQWNE4EcUkA9wgax/V1jSNHdHw0jyg2P9vIbZP5zSAzQPhOEUjxlv68z37oSQOvkdQXVBBcgZDqsTdwJsgMiI4J4T7iTYtasqqoSdGVUqWuHPdweLXlcLYToPK8vzvSmXoctH/LheeU6uuX3z991VO/wr2e+Lq6nkd+u8/Z4xuHDln35qwl11zbsWAhwzkrpU922wdJSAYJJNO7gVVTpmoATpUzSCrVYZd4fEFJOhdDt5rmOkaQQXrYA89zufz2kO2RQl2iyYH/HM2e+mFwBGUKVO6y7cj+V/5Tj/3+1ngc2+d/uuzf7sEjavPZZzRuMxQWfAdUrq/HF33LJ09Z8cBD+KjJOJWK1E44dPZv0V+4F9hUsKxUYLd0Z/2kCwbqaX39ZcTi7m08CxGv8YmAVPxY0hbKZoJQzrGWVx2SOBxHzBnC6nv3br3o3K3HnoBiOlesXHLnXdWVq5vPGd9l+LABE38MGFr7/E++vOueta//puWyCT2POqL54gt7fOuwth/8qOPDj0CC7SMyzh0LTM38UsyytULwJT3KzjI850lPRHNJVStOdYmf4nP9WOHtiNYk0KOOhlr2AlTdUrmxsfnkk1ovOKe+dy988b/80cfb7phcXb6Smurrex11uAtedPkPVj/1DJ7X9EJSatr36y3/cmXjoIHVjR3Lp05bcc/U6sb2wgpT0DZvc4UX7Pl1q6MoCUtD6cnlWY4El0v9tMJt+x1k/ZoR4lWIMFFiqc5PV5wZTSYmiPuev+ipr3dAjZG/NHz6fQOu+j6qXf3qG/OOPO6LH11X+XJ5eCuVFU/EV+GrfvEUqgUeNxKQYZ0XHH38ioceLdXX9Tnr9AH3Tia/c/GYfy8BNIXoJAhVUI+a2Wrezy013AjMY91VFokQBndpzyRHTJVuYMrASYLJWxpeDJv22gPIT8eft+blV8QQ8ydJmlRbxcY5Tq26bt2S625Y9cyzQ6b/tNtuY2A2oY8Y4k7m7eAIRkqQSQr8oTgLNJ5wTU0kZQHc94aBDW8HcOlPLWRmFMZopuaYlxBiNCM8s3jZS6teepnm9P68wx/5VfgH248hXk2BgDBCJ1pB3j5nbgZQLuIxLcX3Z0xwpOV8SY/uvuonPGuRPNPlxxr9IAIFFFAX2fA+LIXWiaMrNKs8rJOYgNkW9IFPyTRMLp25Vd0iXPxhohK0NMXsI3sKoIcDGWzFUR3pIbzI5jFkOlOSDbOW0LSgx60s3gQTqZKK2+l5lA9H721xO7c1hkjD7OURUZzUkJXxJ0BOm/FDHfGapszIDn8zHgbKhrw5v2ntc4BAjGInZOCzR0CbYMTIM58s5qEDLE178wJG633Mkbzvi6j7mF1srDlaH44iBdvXfj971PuzRr0/27DuBx9IRqeXSVhLiNpiYG+CQp6DUhmlcs+egOT3zlq8RmHCqeZ9GBSg1ZGcMXu0lcpb9Rj8k2tG/OwBxw+56bpRzz/Z65gj+102YfhjD8K4dvY7OApLiP62yGss39U0523g7TcNnHZP1512cAiOvEeoEaSaYpQZxY8bLv0SJU+1cffdYOn4dEHcw2vxFIAfHH0De7P/yK/8e2yvbxw49PofN/bvV2lvb5s8pX3BZ/3OP6vriOFIg4ZnqaX33t92279W2zfighz22INNu4+Bcdl905bePrm6EUY+A/Bi5RTiRlnf+4Tjms89s765D7Steea5L2+7s+PzRZxgXTN+5iHceNrZU3BmClvDiOHNN17fMHTIip9MXPfk04WYTfFBjoIpxXR8iY0RTDB7uOsf367r3n3NW7MXXH51+4cfUVV93dbHHDH0pomIm/edk9a9+16mpq5rl9aLzms+/VQ8h2z4cB6eQNbPfd8JIo80123Vo/nMcb1P+fu6rl07vli84LDDUfzIuW9JSH5Y+8prSy66xDPh8LqeW7XcPKnrHrvnIDzVzX1v6dnnl/2nTOorzkvW504tu2BsEdJlP6lUrAzsuy34AOxzthltDNPLvsvHv4f9vZE7WUr/71+88j+eW/8uyit3G7PzoInXdh01MlvqUkcHwGawIAwaBvQb/uIzsOPLA7g2LxiuT3ffB0jG4qexod9dtxerraxatX7mqytuuKm0YUPwO4uO2MugVTpvsfSPS1kBGePa0Ah96uPFouZLhzzcn2HECSuDY89DDmo5c1zf00/19l4/572Pjz6+9R/Pax53at8zx62b/c7amXxQMdjB4OhcpL+nMzUZ/a/Vw1su42v9mpByqeXaa1AtdkTbaWd0Lm5jjOcC8eoU+eWkWJftDu7SKkRS0g3GJYINHfetQXI9AdVSt11rbs5rXn2j7e77gGs56/Rh06eig0t68aRb5p/4vaVTpq7+9cuQEmqCno8xYXEaj9MEZy7nRkVbX3JR02GHVFatXnL+BFTLFGKg0NpYhWCp2BweR/6TBxaVWflEo2AykVEtobk9aG1sGHD5JaNmPIzumlnveFo6N2xYfP0t8477LoxNe+zGuzMZyuvnzG278VasHwP1LIEOf/mdDmum2Ym0/dyXLQ6kqZa2Onlsr++OxS2wbcJlGz+alx6nucYg8cn8Ysj1W0f25yU+eGRVUaKexdxRyaRyCxhy779vv3PGw7j4rnvmjf2eiqFuBGMnJ3ANLWL7nj0e91KgJE6VakaMTypSZuVOrlLTNw/tc/GF8C296ocbZuGTXOkkiHnd1LFLR2KwQpEuwfw5rI2OHDhLCU9Egil/z0A42UvVVS/O/GLyPX865qRFE2+ubNhIE/VxCzUMGZSpTLno6nXEt1snXDB8xsNNB+zHFAnPhVKjwdtAt8+Eoa/b3nvi0gXblzfdtubZ5xwtAtei1ARyKhWY8xf//uzbhFZYExa6WTOr1Z4BC0ndmnbbBS6RVv888aa1c+ZmQ8AwNU1/s9e2T/ws0NKlwki46sWXVj77Qn2vXkPuvqP5rHHGA1nf3Bx4nIBjap4x2yxJrd8tN+AlfMX0h1c+iIsIjrALroGgODAcjUfqQTcmHbag99+HM3E0J0/qIqx94ec4bv/U41/790d6fvPQtBMADThy9Dnh2JHT72to7gOj7PSyIxGVNWsXnjdh8c13wNJ68YWD7rixxwH7Drx10siZz8JSWb1GKoXXllJUMOCDd/Wzzy+bdEvGxn2X6lbZuWZi+JOym63w9+fyb/oO8zR4LbGAHHKGedB/pcZ+rf3Hn9pyytiGrXuDcfVv3/zw+JOpTg0PaoOuuqz1jNMwarv3/tbx/4AOPpxxNHM6wlDqceD+g2+eiKXmAOI6O9e8/Nqy++7foCfTpCTO2743Cxh8B7jo7AtKGzein6i0PaGQ76cQHnj0PYAFFasOAlIcceU3mrcJuOLExLAMhS55cUNvamoZe9zQa6+Gy18MIbC+51bD7rwZz5546vzsyh9++diMXT/5AwBzR+xIqs158B3RsG1GvfAUMG233rny57/oWLw4CdCZEx2Bg386BYNFF15SXb0604OO/qwh9akcel0WVwkuHMTDc3ScpViwsSEzidgkrLrn5x+CYvbg7YxuPvboYbdN6lj25fwzL1jz5iwkioKH7wgG7C0c0ZhVmZ1+hz+9iw7+XSuHWiXbsRUzfASgdoRrvUSzqR6Ogz9l8DDPmdx8iKrqTy1xY2QyX3JKxqsB6Xy12GVqiEPDZQKmZT9/onFA/+VP/mrjws943Ygc513m86kza+9vu7PxCIvLiwx5RjIHIrOTjHBWS0Xyh8KiHlzRmLUaNiaO6U4JSQCj/tRiXi1IJpHxUXeyJUEYm10UpcWTpwQiVZsC8nOwgWHzlmzcDlDJlYnizG8VZqBkA+iTQoUntYmLBFoQzpVnLDT733ho5UAQIIZ5MWnRRUVGzaLklLrvOHr9Hz6gNwiJpxJa2OYM24Ffd8tNj1Tilole19HbGYOjGBhLfu8vpEubfBN+kdBWg7dUZTJeWyXXT0+BH5/DlCgoO54+CnT9mTRjqtUVL78G2+inH/fdOPlZG0hIkZo5SWOXnH3HnTJyxiOA4FveWjhsBPJXqWu90uMPI+cwJkKUuphcc13LEPzxaMmRAnBM6UicGdEXa+nDU89cfP9DeIkd+sMrRj08tb6lrwPgJQSaUiNViOMJyGHTpuA7bbwwL3vo0U/PuoB4R6Wj8RGGAeJIooZBWf9GwV/C+TKkVpFomMP58cukOuZ92OrHdcNHIvc51h2ITY7MyeUmgD5gOjpXvDhzzbtzex+wX/cdRvc94Tt4y2//eD756+qbjz1q628dBp7Khg34O1N17TqG4lunQw4c8cC93Udv17F02YKLLl029cES/ubEjJTljo46KF30dDlIAIHSiVNcAhkGNaGvVHEUWnjCo0PMq73xQE+L8ehrGLGZMTrM7J9SQ7/Wkbff0Oug/YFvm/bQmrfnDLjw3G4jhzNeDX+IWfH8r5c9+njvQw/ue8pY2Fa98vrCS/65Y8kSs+HoDlzRCe5aPbmReMwQxBFPjSlQHdjsZXxYBEowBr7Sa3DcXQrxSo+xpi0Fkx4NiWRRt9T/rHGDr7gUO1y+0vp587+4ffLGtqUtJ5/Y+7BvlBv4sYdW2dC+6Pqbl0yd5lgcQYPtw04NPwUnCwNTn1mpR+lt57jAQDTwKIYn8tNPMk5DuhFWWbCchIk0DmmkYJJ4z5gtIZmed+wRt00qd+3yxZ13L5vxS/99GHg8kPY96bjmE4/rXLVq4aVX4K5ODaKHCGjl359zxbWlMqPYfQoBvsWqBhGxGDV3NhtmTsCon/WjYA5IHnKKYVlfWgVSbkaiwxlkN9tINMZsMJmGkSxgwheEEG9y4xWilZHV/Bme+f5nfsJUSdbZRA/C430YilW2b3q+ufHGsPn7pO57LJUdnNFhqEqnTfdHemGlOK8hHGgsHXbH6saTfRFBtIoBjIEiDf4C3l90ABL8ZOPSycIYBcKmJeSZH2WBFz8/lmDxQck8BMWW3yfFGdTEs2ZWu/n7M4miSAE0Vs0IT/yuDQbpIpVgRT3wZHgmgs+N9CEAtaCbhWMKOJWEeu4YILjeh+nwSERMICxBXDAc/T8AiLBcHAPzWHdFrTCxacWJMWdgOGSsJRbX2ZaQA4zohE5dxBX1WCEFCy1OiS7gtc4c46PTJxy1/4DMv3NhmHdlcmZgdjh3OV4FMCWjsBB6PMhkOBAualWTQK2P7yARaCePaYMnvJJZZObL0eqRPumHQUpCD4d6KOI/W8J+d2m6ing98CODDX12vGF0qdguJ+0QILxnl3PAC1VnhYWd/OJBRA2e/OSAHBx46w5qnGDhQzXxaV8mPXQmfhE4jOwFfvUDiHnAEDrir4dKIymSZn04qpPSIY0dIYr2kCi5UkEdDBSGePUcxxH+M1+6GnlbBSZgjosEgWdeWESLjgKN86IRrbHxXAXhzZKmQCj/fdhhLgZHdvgb5dliLmQjOQaFYxagQHrZCQDx/pfIsiWv6YQTPPAsPmdGVwNG8jejdQcGFL8JniBc1VvCK8r/XjrlEK/S5BZKoJxkYfasH57cwl7WBC3GmokaE0OOpc/U6qU0BmD0l/37bTEoAcvjmmUZgj/9fdi5OD/SkoAYc75CHy8hNbGALt0hYUzKGEBuHLm32bKcHulIY6yOEDhgeclXwGvIlc2Ey1+rR7eiPDuxbLSkBOjCwnuEvuKBjz0CPPnqmZUXet7EwiHx9tjt6xC5injlULAqZ1hOprsikspkMzXE7QIn5crwgilpZgJf0pP+xXORX8ub9CAI4vBT5r8AYPXMxJOO6HhuNbSN9EaEUVHhk0cS0TMSx2DUmTKTC2fCPPR2KLgcSDh+fAz6nDnLojixmT8vgAlQlLagLgcVCNt/A4D7Ywhvi2SEAAAAAElFTkSuQmCC;" parent="EHnQ2k31aWHRx2nd6djR-17" vertex="1">
          <mxGeometry x="712" y="679" width="80" height="80" as="geometry" />
        </mxCell>
        <mxCell id="EHnQ2k31aWHRx2nd6djR-24" value="&lt;div align=&quot;center&quot;&gt;Amazon Chime&lt;br&gt;&lt;/div&gt;&lt;div align=&quot;center&quot;&gt;Voice Connector&lt;br&gt;&lt;/div&gt;" style="text;html=1;align=center;" parent="EHnQ2k31aWHRx2nd6djR-17" vertex="1">
          <mxGeometry x="692" y="758.13" width="120" height="47" as="geometry" />
        </mxCell>
        <object label="Connect/ContactLens" id="F7nrCwxnaVBbBVm_Oen9-1">
          <mxCell style="locked=1;" parent="0" visible="0" />
        </object>
        <mxCell id="F7nrCwxnaVBbBVm_Oen9-47" value=" Call Processing" style="fillColor=none;strokeColor=#5A6C86;dashed=1;verticalAlign=top;fontStyle=0;fontColor=#5A6C86;align=left;" parent="F7nrCwxnaVBbBVm_Oen9-1" vertex="1">
          <mxGeometry x="850" y="750" width="810" height="190" as="geometry" />
        </mxCell>
        <mxCell id="4OL-QABRtN6HnD3MbLxt-20" style="edgeStyle=orthogonalEdgeStyle;rounded=0;orthogonalLoop=1;jettySize=auto;html=1;endArrow=none;endFill=0;" edge="1" parent="F7nrCwxnaVBbBVm_Oen9-1">
          <mxGeometry relative="1" as="geometry">
            <mxPoint x="1410" y="920" as="targetPoint" />
            <mxPoint x="919" y="900" as="sourcePoint" />
            <Array as="points">
              <mxPoint x="919" y="920" />
              <mxPoint x="1411" y="920" />
            </Array>
          </mxGeometry>
        </mxCell>
        <mxCell id="4OL-QABRtN6HnD3MbLxt-21" value="Contact Lens Output" style="edgeLabel;html=1;align=center;verticalAlign=middle;resizable=0;points=[];fontSize=12;" vertex="1" connectable="0" parent="4OL-QABRtN6HnD3MbLxt-20">
          <mxGeometry x="-0.5122" relative="1" as="geometry">
            <mxPoint x="-36" as="offset" />
          </mxGeometry>
        </mxCell>
        <mxCell id="4OL-QABRtN6HnD3MbLxt-22" style="edgeStyle=orthogonalEdgeStyle;rounded=0;orthogonalLoop=1;jettySize=auto;html=1;" edge="1" parent="F7nrCwxnaVBbBVm_Oen9-1" source="F7nrCwxnaVBbBVm_Oen9-48" target="4OL-QABRtN6HnD3MbLxt-14">
          <mxGeometry relative="1" as="geometry">
            <Array as="points">
              <mxPoint x="1000" y="820" />
              <mxPoint x="1000" y="820" />
            </Array>
          </mxGeometry>
        </mxCell>
        <mxCell id="F7nrCwxnaVBbBVm_Oen9-48" value="Amazon Connect&lt;br&gt;(Contact Lens)" style="outlineConnect=0;fontColor=#232F3E;gradientColor=#4D72F3;gradientDirection=north;fillColor=#3334B9;strokeColor=#ffffff;dashed=0;verticalLabelPosition=bottom;verticalAlign=top;align=center;html=1;fontSize=12;fontStyle=0;aspect=fixed;shape=mxgraph.aws4.resourceIcon;resIcon=mxgraph.aws4.connect;" parent="F7nrCwxnaVBbBVm_Oen9-1" vertex="1">
          <mxGeometry x="880" y="780" width="78" height="78" as="geometry" />
        </mxCell>
        <mxCell id="F7nrCwxnaVBbBVm_Oen9-49" style="edgeStyle=none;rounded=0;orthogonalLoop=1;jettySize=auto;html=1;endArrow=classic;endFill=1;" parent="F7nrCwxnaVBbBVm_Oen9-1" source="F7nrCwxnaVBbBVm_Oen9-50" target="F7nrCwxnaVBbBVm_Oen9-48" edge="1">
          <mxGeometry relative="1" as="geometry" />
        </mxCell>
        <mxCell id="F7nrCwxnaVBbBVm_Oen9-50" value="Customer Call" style="verticalLabelPosition=bottom;aspect=fixed;html=1;verticalAlign=top;strokeColor=none;align=center;outlineConnect=0;shape=mxgraph.citrix.ip_phone;" parent="F7nrCwxnaVBbBVm_Oen9-1" vertex="1">
          <mxGeometry x="710" y="800.5" width="76.5" height="37" as="geometry" />
        </mxCell>
        <mxCell id="4OL-QABRtN6HnD3MbLxt-16" value="" style="group" vertex="1" connectable="0" parent="F7nrCwxnaVBbBVm_Oen9-1">
          <mxGeometry x="1130" y="780" width="160" height="116.64999999999998" as="geometry" />
        </mxCell>
        <mxCell id="4OL-QABRtN6HnD3MbLxt-24" style="edgeStyle=orthogonalEdgeStyle;rounded=0;orthogonalLoop=1;jettySize=auto;html=1;endArrow=none;endFill=0;" edge="1" parent="4OL-QABRtN6HnD3MbLxt-16" source="4OL-QABRtN6HnD3MbLxt-17">
          <mxGeometry relative="1" as="geometry">
            <mxPoint x="280" y="140" as="targetPoint" />
            <Array as="points">
              <mxPoint x="280" y="39" />
            </Array>
          </mxGeometry>
        </mxCell>
        <mxCell id="4OL-QABRtN6HnD3MbLxt-25" value="UPDATE_AGENT" style="edgeLabel;html=1;align=center;verticalAlign=middle;resizable=0;points=[];fontSize=12;" vertex="1" connectable="0" parent="4OL-QABRtN6HnD3MbLxt-24">
          <mxGeometry x="-0.4805" relative="1" as="geometry">
            <mxPoint x="-9" y="-9" as="offset" />
          </mxGeometry>
        </mxCell>
        <mxCell id="4OL-QABRtN6HnD3MbLxt-17" value="" style="outlineConnect=0;fontColor=#232F3E;gradientColor=#F78E04;gradientDirection=north;fillColor=#D05C17;strokeColor=#ffffff;dashed=0;verticalLabelPosition=bottom;verticalAlign=top;align=center;html=1;fontSize=12;fontStyle=0;aspect=fixed;shape=mxgraph.aws4.resourceIcon;resIcon=mxgraph.aws4.lambda;" vertex="1" parent="4OL-QABRtN6HnD3MbLxt-16">
          <mxGeometry x="41" width="78" height="78" as="geometry" />
        </mxCell>
        <mxCell id="4OL-QABRtN6HnD3MbLxt-18" value="&lt;div&gt;AWS Lambda&lt;br&gt;Contact Event Processor&lt;/div&gt;" style="text;html=1;align=center;verticalAlign=middle;resizable=0;points=[];autosize=1;" vertex="1" parent="4OL-QABRtN6HnD3MbLxt-16">
          <mxGeometry y="76.64999999999998" width="160" height="40" as="geometry" />
        </mxCell>
        <mxCell id="4OL-QABRtN6HnD3MbLxt-23" style="edgeStyle=orthogonalEdgeStyle;rounded=0;orthogonalLoop=1;jettySize=auto;html=1;" edge="1" parent="F7nrCwxnaVBbBVm_Oen9-1" source="4OL-QABRtN6HnD3MbLxt-14" target="4OL-QABRtN6HnD3MbLxt-17">
          <mxGeometry relative="1" as="geometry" />
        </mxCell>
        <mxCell id="4OL-QABRtN6HnD3MbLxt-14" value="" style="outlineConnect=0;fontColor=#232F3E;gradientColor=#F34482;gradientDirection=north;fillColor=#BC1356;strokeColor=#ffffff;dashed=0;verticalLabelPosition=bottom;verticalAlign=top;align=center;html=1;fontSize=12;fontStyle=0;aspect=fixed;shape=mxgraph.aws4.resourceIcon;resIcon=mxgraph.aws4.eventbridge;" vertex="1" parent="F7nrCwxnaVBbBVm_Oen9-1">
          <mxGeometry x="1031" y="780" width="78" height="78" as="geometry" />
        </mxCell>
        <mxCell id="4OL-QABRtN6HnD3MbLxt-15" value="Amazon EventBridge&lt;br&gt;&lt;div align=&quot;center&quot;&gt;Contact Events&lt;/div&gt;" style="text;html=1;" vertex="1" parent="F7nrCwxnaVBbBVm_Oen9-1">
          <mxGeometry x="1010" y="859" width="120" height="30" as="geometry" />
        </mxCell>
        <mxCell id="1" style="" parent="0" />
        <mxCell id="c3dWK8VUlBXcVYDahUM2-81" value=" GenAI" style="fillColor=none;strokeColor=#5A6C86;dashed=1;verticalAlign=top;fontStyle=0;fontColor=#5A6C86;align=left;" parent="1" vertex="1">
          <mxGeometry x="1450" y="1130" width="90" height="140" as="geometry" />
        </mxCell>
        <mxCell id="c83NvUh6HGZqpBSzk8XP-1" value=" Summarization" style="fillColor=none;strokeColor=#5A6C86;dashed=1;verticalAlign=top;fontStyle=0;fontColor=#5A6C86;align=left;" parent="1" vertex="1">
          <mxGeometry x="1330" y="1130" width="110" height="140" as="geometry" />
        </mxCell>
        <mxCell id="_xa58697VZdUaDmlX0MW-4" value=" Integration" style="fillColor=none;strokeColor=#5A6C86;dashed=1;verticalAlign=top;fontStyle=0;fontColor=#5A6C86;align=left;" parent="1" vertex="1">
          <mxGeometry x="1330" y="980" width="331.5" height="140" as="geometry" />
        </mxCell>
        <mxCell id="-kJO9xXdpxVRhP6Ypn-4-5" value="  Knowledge&#xa;  Sources" style="fillColor=none;strokeColor=#5A6C86;dashed=1;verticalAlign=top;fontStyle=0;fontColor=#5A6C86;align=left;" parent="1" vertex="1">
          <mxGeometry x="1550" y="1130" width="110" height="310" as="geometry" />
        </mxCell>
        <mxCell id="XjcV3IcUZlFmYVSwBR1V-1" value=" Agent Assist (QnABot/Kendra option)" style="fillColor=none;strokeColor=#5A6C86;dashed=1;verticalAlign=top;fontStyle=0;fontColor=#5A6C86;align=left;" parent="1" vertex="1">
          <mxGeometry x="1010" y="1290" width="530" height="150" as="geometry" />
        </mxCell>
        <mxCell id="fZqA0a1MIIfmeRz-qSJw-61" value=" API" style="fillColor=none;strokeColor=#5A6C86;dashed=1;verticalAlign=top;fontStyle=0;fontColor=#5A6C86;align=left;" parent="1" vertex="1">
          <mxGeometry x="853" y="980" width="140" height="460" as="geometry" />
        </mxCell>
        <mxCell id="fZqA0a1MIIfmeRz-qSJw-2" value=" Web App" style="fillColor=none;strokeColor=#5A6C86;dashed=1;verticalAlign=top;fontStyle=0;fontColor=#5A6C86;align=left;" parent="1" vertex="1">
          <mxGeometry x="680" y="980" width="154" height="460" as="geometry" />
        </mxCell>
        <mxCell id="fZqA0a1MIIfmeRz-qSJw-3" value=" Enrichment" style="fillColor=none;strokeColor=#5A6C86;dashed=1;verticalAlign=top;fontStyle=0;fontColor=#5A6C86;align=left;" parent="1" vertex="1">
          <mxGeometry x="1010" y="980" width="310" height="300" as="geometry" />
        </mxCell>
        <mxCell id="fZqA0a1MIIfmeRz-qSJw-36" value="" style="group" parent="1" vertex="1" connectable="0">
          <mxGeometry x="540" y="1025" width="120" height="89" as="geometry" />
        </mxCell>
        <mxCell id="fZqA0a1MIIfmeRz-qSJw-37" value="Agent / Supervisor" style="text;html=1;align=center;" parent="fZqA0a1MIIfmeRz-qSJw-36" vertex="1">
          <mxGeometry y="59" width="120" height="30" as="geometry" />
        </mxCell>
        <mxCell id="fZqA0a1MIIfmeRz-qSJw-38" value="" style="pointerEvents=1;shadow=0;dashed=0;html=1;strokeColor=none;fillColor=#505050;labelPosition=center;verticalLabelPosition=bottom;verticalAlign=top;outlineConnect=0;align=center;shape=mxgraph.office.users.call_center_agent;" parent="fZqA0a1MIIfmeRz-qSJw-36" vertex="1">
          <mxGeometry x="41" width="46" height="55" as="geometry" />
        </mxCell>
        <mxCell id="fZqA0a1MIIfmeRz-qSJw-85" style="edgeStyle=orthogonalEdgeStyle;rounded=0;orthogonalLoop=1;jettySize=auto;html=1;" parent="1" source="fZqA0a1MIIfmeRz-qSJw-44" target="fZqA0a1MIIfmeRz-qSJw-51" edge="1">
          <mxGeometry relative="1" as="geometry" />
        </mxCell>
        <mxCell id="fZqA0a1MIIfmeRz-qSJw-44" value="" style="outlineConnect=0;fontColor=#232F3E;gradientColor=#945DF2;gradientDirection=north;fillColor=#5A30B5;strokeColor=#ffffff;dashed=0;verticalLabelPosition=bottom;verticalAlign=top;align=center;html=1;fontSize=12;fontStyle=0;aspect=fixed;shape=mxgraph.aws4.resourceIcon;resIcon=mxgraph.aws4.cloudfront;" parent="1" vertex="1">
          <mxGeometry x="715" y="1013" width="80" height="80" as="geometry" />
        </mxCell>
        <mxCell id="fZqA0a1MIIfmeRz-qSJw-45" style="edgeStyle=orthogonalEdgeStyle;rounded=0;orthogonalLoop=1;jettySize=auto;html=1;entryX=0.49;entryY=1.067;entryDx=0;entryDy=0;entryPerimeter=0;" parent="1" source="fZqA0a1MIIfmeRz-qSJw-46" target="fZqA0a1MIIfmeRz-qSJw-48" edge="1">
          <mxGeometry relative="1" as="geometry" />
        </mxCell>
        <mxCell id="fZqA0a1MIIfmeRz-qSJw-46" value="Amazon S3&lt;br&gt;Webpage bucket" style="outlineConnect=0;fontColor=#232F3E;gradientColor=#60A337;gradientDirection=north;fillColor=#277116;strokeColor=#ffffff;dashed=0;verticalLabelPosition=bottom;verticalAlign=top;align=center;html=1;fontSize=12;fontStyle=0;aspect=fixed;shape=mxgraph.aws4.resourceIcon;resIcon=mxgraph.aws4.s3;" parent="1" vertex="1">
          <mxGeometry x="715" y="1160" width="80" height="80" as="geometry" />
        </mxCell>
        <mxCell id="fZqA0a1MIIfmeRz-qSJw-48" value="Amazon CloudFront&lt;br&gt;LCA Web Application" style="text;html=1;align=center;verticalAlign=middle;resizable=0;points=[];autosize=1;" parent="1" vertex="1">
          <mxGeometry x="691" y="1099" width="130" height="30" as="geometry" />
        </mxCell>
        <mxCell id="fZqA0a1MIIfmeRz-qSJw-51" value="" style="outlineConnect=0;fontColor=#232F3E;gradientColor=#F34482;gradientDirection=north;fillColor=#BC1356;strokeColor=#ffffff;dashed=0;verticalLabelPosition=bottom;verticalAlign=top;align=center;html=1;fontSize=12;fontStyle=0;aspect=fixed;shape=mxgraph.aws4.resourceIcon;resIcon=mxgraph.aws4.appsync;" parent="1" vertex="1">
          <mxGeometry x="881.5" y="1013" width="79" height="79" as="geometry" />
        </mxCell>
        <mxCell id="fZqA0a1MIIfmeRz-qSJw-54" value="Amazon Comprehend&lt;br&gt;(Sentiment)" style="outlineConnect=0;fontColor=#232F3E;gradientColor=#4AB29A;gradientDirection=north;fillColor=#116D5B;strokeColor=#ffffff;dashed=0;verticalLabelPosition=bottom;verticalAlign=top;align=center;html=1;fontSize=12;fontStyle=0;aspect=fixed;shape=mxgraph.aws4.resourceIcon;resIcon=mxgraph.aws4.comprehend;" parent="1" vertex="1">
          <mxGeometry x="1046" y="1076" width="50" height="50" as="geometry" />
        </mxCell>
        <mxCell id="fZqA0a1MIIfmeRz-qSJw-55" value="Amazon Cognito &lt;br&gt;Auth" style="outlineConnect=0;fontColor=#232F3E;gradientColor=#F54749;gradientDirection=north;fillColor=#C7131F;strokeColor=#ffffff;dashed=0;verticalLabelPosition=bottom;verticalAlign=top;align=center;html=1;fontSize=12;fontStyle=0;aspect=fixed;shape=mxgraph.aws4.resourceIcon;resIcon=mxgraph.aws4.cognito;" parent="1" vertex="1">
          <mxGeometry x="716" y="1298.85" width="80" height="80" as="geometry" />
        </mxCell>
        <mxCell id="fZqA0a1MIIfmeRz-qSJw-58" style="edgeStyle=orthogonalEdgeStyle;rounded=0;orthogonalLoop=1;jettySize=auto;html=1;endArrow=classic;endFill=1;" parent="1" target="fZqA0a1MIIfmeRz-qSJw-64" edge="1">
          <mxGeometry relative="1" as="geometry">
            <Array as="points" />
            <mxPoint x="1410" y="902.8" as="sourcePoint" />
            <mxPoint x="1140" y="1054" as="targetPoint" />
          </mxGeometry>
        </mxCell>
        <mxCell id="_xa58697VZdUaDmlX0MW-46" value="Write transcript&lt;br&gt;segments to KDS" style="text;html=1;align=center;verticalAlign=middle;resizable=0;points=[];labelBackgroundColor=#ffffff;" parent="fZqA0a1MIIfmeRz-qSJw-58" vertex="1" connectable="0">
          <mxGeometry x="0.1335" relative="1" as="geometry">
            <mxPoint y="-5.8" as="offset" />
          </mxGeometry>
        </mxCell>
        <mxCell id="-kJO9xXdpxVRhP6Ypn-4-1" value="" style="edgeStyle=orthogonalEdgeStyle;rounded=0;orthogonalLoop=1;jettySize=auto;html=1;startArrow=classic;startFill=1;" parent="1" source="-kJO9xXdpxVRhP6Ypn-4-6" target="XjcV3IcUZlFmYVSwBR1V-22" edge="1">
          <mxGeometry relative="1" as="geometry" />
        </mxCell>
        <mxCell id="fZqA0a1MIIfmeRz-qSJw-67" value="Amazon Lex" style="outlineConnect=0;fontColor=#232F3E;gradientColor=#4AB29A;gradientDirection=north;fillColor=#116D5B;strokeColor=#ffffff;dashed=0;verticalLabelPosition=bottom;verticalAlign=top;align=center;html=1;fontSize=12;fontStyle=0;aspect=fixed;shape=mxgraph.aws4.resourceIcon;resIcon=mxgraph.aws4.lex;" parent="1" vertex="1">
          <mxGeometry x="1138" y="1319.85" width="78" height="78" as="geometry" />
        </mxCell>
        <mxCell id="fZqA0a1MIIfmeRz-qSJw-75" value="" style="group" parent="1" vertex="1" connectable="0">
          <mxGeometry x="858" y="1160" width="130" height="115.35000000000002" as="geometry" />
        </mxCell>
        <mxCell id="fZqA0a1MIIfmeRz-qSJw-76" value="" style="outlineConnect=0;fontColor=#232F3E;gradientColor=#4D72F3;gradientDirection=north;fillColor=#3334B9;strokeColor=#ffffff;dashed=0;verticalLabelPosition=bottom;verticalAlign=top;align=center;html=1;fontSize=12;fontStyle=0;aspect=fixed;shape=mxgraph.aws4.resourceIcon;resIcon=mxgraph.aws4.dynamodb;" parent="fZqA0a1MIIfmeRz-qSJw-75" vertex="1">
          <mxGeometry x="26" width="78" height="78" as="geometry" />
        </mxCell>
        <mxCell id="fZqA0a1MIIfmeRz-qSJw-77" value="Amazon DynamoDB&lt;br&gt;Database" style="text;html=1;align=center;verticalAlign=middle;resizable=0;points=[];autosize=1;" parent="fZqA0a1MIIfmeRz-qSJw-75" vertex="1">
          <mxGeometry y="85.35000000000002" width="130" height="30" as="geometry" />
        </mxCell>
        <mxCell id="fZqA0a1MIIfmeRz-qSJw-78" value="&lt;div align=&quot;center&quot;&gt;Stream / Export&lt;br&gt;eg search, data lake.&lt;/div&gt;" style="text;html=1;align=center;" parent="1" vertex="1">
          <mxGeometry x="834" y="1338.85" width="176" height="40" as="geometry" />
        </mxCell>
        <mxCell id="fZqA0a1MIIfmeRz-qSJw-79" value="" style="html=1;endArrow=none;elbow=vertical;startArrow=block;startFill=1;strokeColor=#545B64;rounded=0;exitX=0.5;exitY=0;exitDx=0;exitDy=0;" parent="1" target="fZqA0a1MIIfmeRz-qSJw-77" edge="1">
          <mxGeometry width="100" relative="1" as="geometry">
            <mxPoint x="923" y="1338.85" as="sourcePoint" />
            <mxPoint x="921" y="1302.35" as="targetPoint" />
          </mxGeometry>
        </mxCell>
        <mxCell id="-kJO9xXdpxVRhP6Ypn-4-19" style="edgeStyle=orthogonalEdgeStyle;rounded=0;orthogonalLoop=1;jettySize=auto;html=1;startArrow=classic;startFill=1;" parent="1" source="fZqA0a1MIIfmeRz-qSJw-84" target="fZqA0a1MIIfmeRz-qSJw-51" edge="1">
          <mxGeometry relative="1" as="geometry" />
        </mxCell>
        <mxCell id="fZqA0a1MIIfmeRz-qSJw-84" value="" style="outlineConnect=0;fontColor=#232F3E;gradientColor=#F78E04;gradientDirection=north;fillColor=#D05C17;strokeColor=#ffffff;dashed=0;verticalLabelPosition=bottom;verticalAlign=top;align=center;html=1;fontSize=12;fontStyle=0;aspect=fixed;shape=mxgraph.aws4.resourceIcon;resIcon=mxgraph.aws4.lambda;" parent="1" vertex="1">
          <mxGeometry x="1134" y="1014.0000000000001" width="78" height="78" as="geometry" />
        </mxCell>
        <mxCell id="fZqA0a1MIIfmeRz-qSJw-86" style="edgeStyle=orthogonalEdgeStyle;rounded=0;orthogonalLoop=1;jettySize=auto;html=1;" parent="1" source="fZqA0a1MIIfmeRz-qSJw-38" target="fZqA0a1MIIfmeRz-qSJw-44" edge="1">
          <mxGeometry relative="1" as="geometry" />
        </mxCell>
        <mxCell id="-kJO9xXdpxVRhP6Ypn-4-3" style="edgeStyle=orthogonalEdgeStyle;rounded=0;orthogonalLoop=1;jettySize=auto;html=1;startArrow=classic;startFill=1;" parent="1" edge="1">
          <mxGeometry relative="1" as="geometry">
            <Array as="points">
              <mxPoint x="1174" y="1190" />
              <mxPoint x="1174" y="1190" />
            </Array>
            <mxPoint x="1174" y="1129" as="sourcePoint" />
            <mxPoint x="1174" y="1319.85" as="targetPoint" />
          </mxGeometry>
        </mxCell>
        <mxCell id="XjcV3IcUZlFmYVSwBR1V-7" value="AWS Lambda&lt;br&gt;Call Event Processor" style="text;html=1;align=center;verticalAlign=middle;resizable=0;points=[];autosize=1;fillColor=#ffffff;" parent="1" vertex="1">
          <mxGeometry x="1110" y="1099" width="130" height="30" as="geometry" />
        </mxCell>
        <mxCell id="XjcV3IcUZlFmYVSwBR1V-14" style="edgeStyle=orthogonalEdgeStyle;rounded=0;orthogonalLoop=1;jettySize=auto;html=1;" parent="1" source="XjcV3IcUZlFmYVSwBR1V-13" target="fZqA0a1MIIfmeRz-qSJw-76" edge="1">
          <mxGeometry relative="1" as="geometry" />
        </mxCell>
        <mxCell id="XjcV3IcUZlFmYVSwBR1V-13" value="&lt;span style=&quot;color: rgb(35 , 47 , 62)&quot;&gt;AWS AppSync&lt;/span&gt;&lt;br style=&quot;color: rgb(35 , 47 , 62)&quot;&gt;&lt;span style=&quot;color: rgb(35 , 47 , 62)&quot;&gt;API&lt;/span&gt;" style="text;html=1;align=center;verticalAlign=middle;resizable=0;points=[];autosize=1;" parent="1" vertex="1">
          <mxGeometry x="878" y="1099.67" width="90" height="30" as="geometry" />
        </mxCell>
        <mxCell id="-kJO9xXdpxVRhP6Ypn-4-12" style="edgeStyle=orthogonalEdgeStyle;rounded=0;orthogonalLoop=1;jettySize=auto;html=1;startArrow=classic;startFill=1;" parent="1" source="XjcV3IcUZlFmYVSwBR1V-22" target="-kJO9xXdpxVRhP6Ypn-4-5" edge="1">
          <mxGeometry relative="1" as="geometry">
            <Array as="points">
              <mxPoint x="1529" y="1359" />
              <mxPoint x="1529" y="1280" />
            </Array>
          </mxGeometry>
        </mxCell>
        <mxCell id="XjcV3IcUZlFmYVSwBR1V-22" value="Amazon Kendra" style="shape=image;verticalLabelPosition=bottom;labelBackgroundColor=#ffffff;verticalAlign=top;aspect=fixed;imageAspect=0;image=data:image/png,iVBORw0KGgoAAAANSUhEUgAAAFAAAABQCAYAAACOEfKtAAAAAXNSR0IArs4c6QAAH61JREFUeAHdmwnUXlV1hs8fQpiSAAkEiCTMyNSAQCKTFRFRFG1lksIqgmillihWra3aYq0ua11Vql2KiIqIVZDRihZBRSsOQZQ5AQELImWWQCAkQNL3effe997vT2hXV+my9fz57jlnn/2+ezjn3nPv/b6MzTn13StblrGxsdb0oVbLNYOWZ40KZagbkpCFXG3+euUO04tqHJvBgH7ZFXiAZ5x+8LpX44kpP63DYWDf3QB1nLYVymVekLTR4Q2y3bJZncJPXLky8tcFK82VK1fomFHRpyfSoW7AAqthj1NbxwB6UbqkCNRzha59ldqo/Z4XBtJqPYlhsC8wDdWKSPrlJ9go4CMexoaxlAYGrJE2ghwJRsBPEC/ao/gJZYzanxUkL2CdfyADXVVoJMb6hU89ZFWKm76H0xGsMBaOq71iZVsBTymmA0N8caI0IgeniV8hjijU+ogcRrPWUGngDB9K4S0LURxZOAyjRyMqxpBNpFEFgWdHTtSEoj+ccdo4Sc3HhBzcjjqMFWvixc0fM0mSmG8glLIbZHBakxGP2z4ycAWSWrTRVZtMZQn7HXkbmxBnT7DCb4Dx5WvFEmGEXVhbWyE9Vl/5gnvhvwaUwHSMTjlaThpkhxOQAeFn8EVAyU1EHhjBo6xSDtp7q2XYASkl+Su5AjaV7I2pa037EWoVDAPlM7GSxC6daSNdCvsBDx1IVTr8sC2QuUiUeBysGgkBFjJVvgaOTZiQAnvhDFtJhzCQALPFSDU9G5qhzOiIQ2hOQFGWHRjOEKkcm2BMyGuGGa6AaOMwffRHnJfceHQIMleYus+MF0Hn83i8BmpSyh5cZd/WsYPvVZJMkYcTojdJEXU110SBXVzT1kftTifH6XN69rosKMyXDChYqtXjx3N218Rg7Y6jeImd5wGnjBAul5uhS+mJfRpva5Qz8FyXA09+0v2qNdbtwvZMFodZhtAzosFqQ8hUegIgIhsFVl1zhNSLPmeqw+MF+AB544hOSYKjw6fmEG/KIa+4HKQp4M6gs4+pDq8FETGFPfxPRHo0rpKax7VBxZlSePTG2gSH70MAMbTSq27Qt3fhREhrZaXjFgYJDsVtUPbhWwXPSo3dvvjEVAZXxecY3FVW5N0C/eJ36u1/ccVYjVcdGOxLz6qhX9M6qlf8cYaCpYQOuzDBKcshEAUzqw99CCeusUY7aZ8D2yt3fF7beL0pgf4tOj70xOPtW3fd0s5edHV7OldZn6AMNPMTCc5E5hmgU7hXih1PAnJKEvV30t4vbq/b83d/i1I2Gsq0tddtR2y7m2M+c9FVrCQrOH4WkReT11gsNC/ZSCVnmu8Da7WRMIZW1r2DqFh5lD+56Kz2r/92swm9SiVz7ZnAEPtR1YxZwbswPrFTUuAP3AAvhQm6E7B98wTeut5hQ9ecpo2zJLgce+AJeJwdJyAxI/j0Y96ms9tf73VwO2DWdu1zCxdIGnyqwk/6DkAj1I4lmvDl84lcZ5BRSlY0N548lcrJo0avPvSLNPAWWOyDeOLJQI2OmjSVvcSr8jURHfthtCEdPgmsYrVolbqv28BKIZu+K6jYaow6FRfccyedNn3t9Vx7yC0dMtaIcTBinuhPxIDv1UzI+c3FNedhJXWUSpBnVBhqgu5WFHjpW48VbI6axZQjFQ4d43NHpJ3mA1+d1IdLkA7HBODziE9psWTqqoQdGbOuvcp2j0falyG+oiif0aq2a25jMLLSiQoiB1MB9PnrAixT177l/dVsu338r1hCxNl+Nv99nXyPT/y12rHafvLHp3TyeacLm945mdaK4R+e8Bed3v9W46DzP5HJ53LSW+EWzfGnjMVBsY81YQN9AtYu7BBNxCz3xQNdl5UJITp1nalBj2HAWSlpGKYXk9LLy2aNcRZ4RkcdGACe7SaTWpx9RvDfvS50lEhyrGDXJJnrspOtR7mgCUJmwwmiMa6UPUa43sz56LvITJecmiVWI4bQC8NBxGq0PKlp41yVwu/9mQ9aDEPooBZ64/Edx4DTrOjjQ+LCDH2oQ3nIVT7UxBrn3EnXgUf0IarkBU/3JGLikHnJGugHvY4+5MySdsrgDWI0OmfV7q+jge0M57SjG81V8STS5OmLuYtfYz0XdvAlbIza73kDH8kD7FWG/egEeNzRPozIwIehmujSifeBSRzPfXGHbheGfkTEmO2NE1DJs127YeilF+h0euVZyFbBp15pUaPT6yGw1A3kDg0dnVbdszM81hvFg3Sx+Z4XGRMfu757SFiyjlea7jJSBdt5CocIeziDbeZoWG58+4eG3d/qdkxWrDiS4Wueav58pmaiWJU+hWugSx4NLpTjkvhbnTWCU2Ii5jjlvbqVCy+oulZYzYpOh1fgMKu1ZMfnbocPvcPXgboWMCs5R5ohXSyZKZ4iUtjrxYXUYjnRyd22D4GTQcb4eIJVU+IeVW26VPnEU+8Dh7Ih3vd5HR5s8JV9nnyqXH7kfDcjYbJPLJJ0frD61EkKy8u+d4NYsuRAirqOoAFgWAKMMD8mDaXAh+EhF/h4s5NkJn0mPDZ/M+8TK07Hn4GzEknif/U+UU8icX9XJDVDZDAoYiTue3j6iJVidobSoLVYId1AJKT4cI62J0i1J0S5xEqUXCHZQ+q1GDPn5BqPPfClx4S7U5LodvjU7OzbD8hDH3mV8AVutYIARQ93+Hx6Knm/jpMFRZIUperq9SntVipDAzXwseoSQz/5qmakdsvOVJIQRNwGBan5VsE/u+8Tw1OOShb+MikUVau3jzzuVrr7QICe2ZxdgP08B5FJmTnGYmLUltSiaHjFabDDpx79wOtoPKAQcaymbSa+H/Wa6LtS9mpMFCZMT0NYr6GyB4pn9NKVjhftKjbgiLPE8dTKhhOKNIDd7iyUH90KrABQrGCrNoEdEBtEJuuvDxaFkrE1g+V0xynjpsGYaULDXQ6IR+wjieCRZywIXaxbnaEs/cvKnBgEXzLUwY8TWGa5XQ2njFHT7hsDOPCxieSSNTCJ7dyItQD0p14fUDgS4ybWofBV22FdP6xbziNUidNhWCceMrjSP9umnc4brEO93u95Ai9iq4QP8CPXqec6eIqD2uPle9opWzAF3i23weg7kYEgmsifoZRCOEgPZ3RIQkvodgWj4/u9I4lHxTzAhuBY5ZalGH/9V/pZ/0/fJ/YO9y5gkkmrGO0aQvsSjYnMrt+u0Nd7vAhY65f1zidLJaJ2wv7uvO7VTCA8F1eA6uvaY251K0Ed3teS/xvvEytG6vIzZMoN560+yB1htut9oq+BkeRMXseG+n9SGPbsgwvDvfHEOo8ar9NhPF3hoJJOjx8qIo8dr1sBDKcJYwguP0Yypg/mca7DezDGrO9mElm1b6PqDU2i3v9+POz5dRYGSDJZNspGIRgWrjOeDQlrFTHuHU/eMlHGdyAsWyH1Y7XZFo+JqRxcwS1PAjBK1NkLG1x7uXSjG77Urgin+RjzP3T1R2ycafioP79NAo6+fKlivPSLu/gqXseqyYyzL1CD94EQYygTpPGeukxETTJvfc+po8L/R70XnPVhx0q8JHpYWK2WS1h1N7EknwR7MpiY/G0MBKVMu1YH7WFBzmf4HDkc///UVhiOhSSML+PjJ2nWq1WtjpOqvm+kSV5PGEt81ZmJFYoxDGz3gbdaBftOvhoY8j9bw2ga7nTCW8tRhME6vVzCPK0Sj0AlbITehMFpt1p8choT8PSFwHPT8xdfxJIKqnwdlgn75wE6ES9aQz6ISGK+TGC4Z4oZoN/LsFQzQ80nwgEbpbRtmwN6bCAqxtC2GNNqONGBLR3X1rNibxOEifsb+IjO5EGS4+Vf1cXtWx11fD8p+lVLCvHb5nubcHHpKs7wnxUISxomHpoRF6syCW2JQStbYTgGGauPhHZ4NgoDgjRmL/m6rz/Dlrly1dCumS45hpPdnkxZa+223xbbt31nb9tmTtmgTddPTiZPWqs9+Phj+jzabn/4gfa9O37ertV3vk9nDObs/MdPOqxyU/rgYSZPvjsX2FXXmgPFwAqiAf82BvK0Y+eLPKBhwG9tTDJIiJntRlqRLsMwM0Y3ueGsxDAYu580pVfvEw02fYIHeBRnb7hRm7/Xi9v+W+/QJk5Yw/zDwwb6mcY20zZu8zbfuh21y7y2+Iml7ZwbF7QvXX9Ve+LpJ03vg7j8Ps9u9rawEf6qFjEj9lnygZZN1vtA78IVXCRuQAJLFjdFVCVaGIpbijKMJbelSL5rV7MjQzekB0fhWGFhfyAj+TptJk2c2P50v5e1I35nrhP35NNPtR/ceWv77i8Wtdseuq/d//iS9tjyZW36upP9S4rdN9ui7b/lc9vWSuYf7fHCdtiOe7SP/uiy9i3ph1WOEUH4FVGVfRx3W3XdIg1SYeXSnTi8vwuaUsVEteO60QUrYkZwwQka6HUOedZCD14MMlYOdZDBpCDrEYHZSKfnqYcc0+ZsNqs9teLpdu71C9qnFlzRHtavqlzsolDiflgr7vZfP9AW3PWLdtpVV7RdN91cK/bANmeTzdv7D3h12/aaH7RPXf1dz6xh+MUpm6VcYcyTm0eGy/+oJZA9ysiXSghIG0Q4VEaQux0DZr/9lI8hftbLPY8uboeedWpbsny5rm2T29mveWObOXXD9qvFv24nf+2L7VatuHLek2VfcaNCVi0/Gbvu3rva6y8+sx220x7tbfsc1I7bbZ+2sVbp+79/iSeyTsORIIT10nGCaiUSv9r6q6yw8Lid89eaZDV2JoxHspDxqeItnj7/BvIafzZqeP/y0vPaozodJ8q5U195jJN37b/f2Y7+8ifbLQ/c4yC6RzP7Y4faRL6rTv+IgHb0V7YLbvppm//1f/Jp/ort57Rjdnl+F4d10nlj3B7gHXDEHLr9C2f6/QrEuLJehDG7khW5as+C9Jicrd57EtSeaetmG3X642UCSzaByqUehzpdxq0U9dv3f3nbdbPZ7a7FD7X5F3/Bp2xsNoGftf60dvguc9t+W27fNl9/wzZpjYlatcvaovv/vX3n9oXt4kU/a8ueftp+sHKuvvuOdsp3Lm5/d9AR7U1zX9Suv+9XXqFSaI8se6JN1c5O6eOnjc8ho474pZRBoJsvEyJRBab2xykyL9Qh81hvCJW6jqyCLx7V1lPtlZ6Oph/hNCqpN3vD6e3IXef5mveWr57dfr30MTvBhgLmzfu8pJ1/zPx27O77eqMgecu1sXArs+dztmzveMHB7cKj57e9Zm0dfud17nt33NI++9Pv+5u+N897sTk5XHzzNW7Hyg4/wpc+L3ZNB+u4jpjiSURuMUu1ajrmwEeXdvezNYi8XvxjTILCQEjQCwhHHOl5e0L0md6xAAbeuLF28n4v9W775Wt/1G7WijKvxniF9JFXHN1etM2ONnDpLde3L13343bTvb9qT+oZdv2112l7zd6mnagVtqVueU49+A/a31zx1XbJLdfJERHo3+evubK9aodd284zZnqnvkI/Gj3/pqvb0brtYZJ9YLlFy4sju5KQpyyOSz4RIH8utDXLltHWp4plnsle3suklcaZIV8vpbtavPSGK5YVGSXqqWut1Q7YdievqE9ceXkMKR645mvlkbzF2oHfqg3lz/7lnHbN3Xe0J7U748Aj2oW/ecsN7Q/O+WT74rU/bGvoOvruF76y7TTjOV1My7RSP/ezK817yHZzLL/3sUfaj+663TLHRAwj8XNpiycg4mSMFFP7UQ5kbRIVjtlWd0AhSdygm30I+5JtyUblqcGw9RmnGXov3HpHr74Fd97WHly6xDr4xjXv2N33M/iUyy5s375tocYSB9VgwkjSR668tF12641tTf1Inh04lKO6/Pab2tNaKHN1uq+t0x8Hrr33l/bBBuxbnkj2K99HejCpkKupa6AaXlnmCXwGMwycJxEg3YpJHePVplDZ9gBfHMPnyNCNhAEoHfD7bfVcc31bwQ+T8po5z3cyvrHoWiXvJmN6HO/g7MmI/Q9+9xJfP+dsOqvtsNGmeCjcirZ46VI95v3SG8/uM7dwTDfcd3fvh/WINVai/SVHjotkumn/ul0Y4njRGNcsnOuvXSCM47Jlg3d94LQQPAvH792+qL3h3E+be+bUDczItY9is/LlBZnYL/7sh3I839nVxcmxpd9C2G/JONUv/fkN7Sglf9/Z27WF999jG8TKEwzJmzk57C28/+6wxyxyfqrUNR1RlTh1wz52uu+Fwxc0+1uZAlVNUq1RjtfA/7C+f8kjkSl5N2Py+ma795HFsiVr4VLbfINplt+glWMf6Q0iG042Caos3KgNhrL51GndCkP3/scetXz6uutZ/viTy514r+q0aQUdSFpMSh8/ptEdfR8ob9kV/QOenIUi6VYkSI3NeveJEZva4XwAyK3xabTLtRoVJDWf8tNy4Ip7PW0ilCXLljl54CfpxQG3KsueetIbhvHsqmIwB1z4RcF/vwmKLs/IlPUmTXJt9wVdsvwJ96dMGr3/Q2h/PBqH4rbPEb6Uwt7IfaC9yRUIqICmkX7169pECGDC9yC0yAL6q7tmBg9cxgPIAuLBbmVMNjG2uMdbopvdtSau2aZOWsd+OHVkd1CG/tkp2aj/XfWQ7iVrnB8MTVtH/CrcfGcAXY3e8IMe/dW9T9RtTAwWeSz/DI7BKqO+9gaSPPCV9MBZZn5IRIA4ORmrT3exluzeR3U6q2wydarU+Qv/FurJgbL3ltuax5NYF/a89WI8/KAV7Xm+mW5+QjEwGLvE3rdEl4ryJTEGZ7vGLOv8x/fYYHwfSG56xTgdiHPozHAXLTl8UvJKCn0Eq+LRr128EoKmYzEik6v2rXrepeypd3qdHYG+efP1lp+ke8E1eRfoCY1J0DlnP4oPHJ9dtfu+SO8OeYvzXW1U5SM1GwjlJm8eha9YAg9HmjGfpJF+y8H4NoZaLZUyXO300mM+2IPoWlczTylDge9lMUa/HJEdc5SDGrOot3/5zTcAawduv4vrOiPOu25Bu0+bzdbTZ7STX/BS82CPEnVNXMi4v3vfSw71i9MLb/xpbBrWX6nHv418X/mA3l7z7DzkGd6mwR2PnsHpNGUOIlbdSFejAnNEOMVfOgiR9UzY3xshH67M4ECZD/hso0d/UKuZ/eArP67SDfTDul5tv/FmbbeZWyZXa0v1eus93zjXK/m4ub/bPnzI0W39ddYNv2zLHkPbdttsdjv3mJPaFnqc++XDD7aP/+Ay6zHGqX/4znNptgtuvLo9qRcOYdsud/bC90wcOAui7qX5St8rjbXqlRyBdzsjllRiKQuaF24Ix+9W6DkMq8VdlNOWfXkReFXGa7ccXzjdzlzwvXbyCw9u7zzgkHbUWR+3Cra4X3z317/S3veyw9vL9TzLc+8lC69p3Kqw287Q/+vbe4vt9Ci4o1ceyXvTRZ/3/WDsoPFEc9jOe/q0Pv+GqzuX8Jwow9+KLVY1DhQ+Yo7NkfeJ+lIJIAFJiY+CIqzKuAd1YAUhN5Fm0XVi0QnzGudPikN8x6cG49j0PAgEziWTC+9nf3xFO2aPfdvum2/Vjnre3u2ca37U8V14w0/abQ/e29514O9phW7R/nCPeLwrGmom4Ty9ZPjYlZe1R5YvDV/Fz8uI9xzwKj/R3KHkcqPtwIUpPxy99Ib+43XlyXakXPGPbXDS0SvpSMfB9bWp2v0f/bwxM952fH4RZNUkCCLjpTWsh20TyEYvC12cRtbL5UTKXrHT89o/HPpan2LHfem0dtUvb5Pe6PvEnfWqfn+9XJilU3Wy7h8f0rdyvJlhw/CNMjERW5Y/3/+V7ejd9qpu+6G+V3nrJV9qy/0yotcNn1BL35KCCRCh8cXrBFp13ACKiB746FkGzHjbcaohgENjAXI7mpaM9lOX6Y1v4XodmzNPyvJ07hzT2NtfdEg7cd8D26O6B3zbRV9oVygxZQu8vTBR+FRj4aYV7A+Bv3P/Q5S8vdvjOtU/pGdk3uzwfctP9P3J/K+d7ZevrMP+IUBswoH1yVH+YRWb/GO8lmrV9hBsNbKGxIVan+ob534ppB4Vcp3uHukPHjCecY/qiAAd6wFu7e+/c0m7QLsv3wOfduQJbf5+B+lmmsf30LdqEoX/CR5wbK7vUz516PFd8k688Mx2kV7xv+68M7yr76nLxCdfdWxbd2I8qYw4IJ7u/yt31Hic/sqTNdaau8t7VWdWOdcHRZ13HnyoBR++9ELVee1yrRSXcs6Gk16ZTRqvVmaMIv1q1koLGeOx4q2UvDh6ud7vLX/qqbb3Vtu1vbRBHKqvNtmRf6VX/U/o0Q7V4oo6wNtM37i9ca8D2gdedoR3Y8y/7/KL9FXozTTb4mVL23d+sbAdoEvAdnpTM2/WVu2yn99kW31gwV384KpNzaSNTX3TUXENjFGvPCtJgWAfPPULjLSN3vraGKudk3GPqEZWyTEObIxCQqv6VVtulV4XSIwjMyhsqDNPO+6fa+OYM3O2rfI+72qdfjfrNdR9evzjUY9TcpMp67e5evrgFobChnK3vtHjS/kHpHf8Vz7d2EDKj830y4YzDnudvleZ1haK601fPcvJHfFDPH0fJ/mX9dQ/fo2XVRGOrx/62Nl2ZPrJx3ZG+XGPZ348Mf26VjgDVojriBDlhC/GsOJDZKrjXmUyzBnfuKH78p12a4ft+nzfrvCF+zOV+5c86p34XO3Gi594ov3j7x/b9tlyOz0qLm7H6/TlyyoKnDOmTG1nHPq6tsUGG/mbvxMvOrM9rBWKg7gXPg5rv0JgWCswE+gVNC54gJVAW/sNHO7UF+UfvOxiPcpd50DwiVNnsr7/eP4W22jlTHcCpqrPKuR7ZXbiG/Wd8FM8K3uhjLW11pzYTlOSeDa+59GH23Hnnt7ulm4lZyN9X/xprcStp83wu8ITdf/oFxCZZEJHl4RWm87YlBOPtBUGTFYaCTjnxHe0g3beLVC/weOVunb9zaUXtJ/rpejw94nhM3nSnxdAROjjYEGgt47e5px+2Am6v9zSX9S/Vkm8T9+HUBifpiSe/urjdU3cpN2hiTv+/M/ELyA0ZjvWyzzFzLSxyW88QtdALcnKbOdIKmZCqXqSXMId4WBJWxZ86EPr033ohALjL+TFGw6EneAzPv2S8YH9aBtvezjHv6whoWeMmvSCuK275qR2xuGvb7vqWsqTCkl84HF995I6fLN3unbtHTae2f550TXtlMvZPHs87eHvE+0pu52jYVSFU6T7+IUBfck5JVzzEkDXtFC3bgA5xilW+P7hPHjR8K1N4eHTR0cOLmCj/99/nwhBwIPYPlumGOT/49rB/+j8z7Yb7rmrzdpgevuMksmPkgK3UtfLpe1d/3Ke+3vP2qaLjRyFX3FrEz77PlAGuVdDYpvxhqSSE8ykJQqhUSpBhulQ5PX2xPphJQBFEL0eP+DCgeAJK71PgESAODl7+/mqLBzJSZai1cWX/DAkga+Vb/jKZ9oi7bpb6Rdc7ML8NM4a4mGVUpbzokF1sCCJniXSI9Z4H9gZw3CuINRZcdRSrrcuBODAunhiJVZAeB7twI3H93q4YXJPjmihVnkGPC8wMxTbN5YDiHQmOqFXfkoGb/231bCj75D1jHzCV85ot+iaus30TbyBPGfKhm2ubqz/9uAjYWqX6BSmGONFlm376aE2tu4bDtc1UB0fwpm4XiBiYLQumaPGdemEWq9b/dJ1reEwE9dHE+tQGwI6+AU2cMUb/REuwFIc8tV4DJkk/Vo9vvQ5fT+nX4Bto/eMw8IPmk7QJsLrLnRLv7tNw7r+rTFx9x3fa6OJJgB7lv3xVc2+3Uc3SzUrATVJ0dfMoadOnQ7lUPH1PDB3bG6h2+ODp8PHSMFHgiWQCEdHEdBjNTlAHFNZqm/jvq5bpI0nT2mb6qaa26BzdO/4l9+8YNXkgUl82R9b5/WH5pOI6M0ZxGTaSrLoWoP8+V8a70gYQxZQO0g/xgNfuhKmXOpg0B7IgiN0nhGfhrrVMMQHoW/erUbiatwucujtoiNr4UuIDRu5Myl8+jrE62tNLPpAw2MYHL8ycupsiDHrDHDwPOP7RDlmjPnFrevJKnjG/CGY0FfXBbn9UYNgWcXOgWx2ntuBSETpo1uliyfIA88gBFKL8cAzGP7aoCl6PJjwHyzPSFYoV1As5ao7nTRUcm8ywE0RPEN8h8MGw+lYdHo7diD9KLxDl4zaMivVxIat7hYJHY+n7oALceDtAJ34SD6ysVgxdWvzTNbyyVmHJj/I/TDpFaFTtqtthHgdhvQzEIyoePVgJIbtYLcyJEQ/FFHJ2ZRu94OBXAV2SIo4Ys5BXXjXmAKftGG4hInH//F4g+NQ/kHhuNDVH8U4/HScqjmVOltWCf+4J5YjQ1/9/4XR9WoyWQDiyCrh9iH5ugb9sIBxStXu6JC5DbxUuuCTo/rGeTx4Cu8aObcPdPqDO8Yz7gH8dCf1jPZh1C9I4oOcVjiW+JCMcHS8ZkM9dIs3/78wo8yASjmSGSDbbtpgrhQmImccCMWzohriSh6ExgdBjInPOnp89KQxpo+tpHPMcpWyb4fh010QLtoeDcukr5qLcOiZEFLrwdXhy376DyzeDplAegrOEajPj0ilR9d4Rgqvmu+646ET3XI+0ijVKPjYXStKKJ1yqEQdHoCKjximbe4SMorcI6moipWGXgx3x8KPCoKzwJjs7I8oqmPb41mRxxiNVfGpL/+N53K1Ggpk3X/1IrNmUrq7MABJ3GVdHU7oXjeuI1YrfM1Q+YcTwzE54/eJeF1DvrSwMks1xqxgnZjt8CNXDIkpvHGBx9+Io9DhP09S9jv5SDiFlQ9TuWihDxq3gcCzMq2LrcHZ9x+/e+1pfD+zWwAAAABJRU5ErkJggg==;" parent="1" vertex="1">
          <mxGeometry x="1430" y="1318.85" width="80" height="80" as="geometry" />
        </mxCell>
        <mxCell id="XjcV3IcUZlFmYVSwBR1V-28" value="Customer &lt;br&gt;Website/FAQ" style="outlineConnect=0;fontColor=#232F3E;gradientColor=#945DF2;gradientDirection=north;fillColor=#5A30B5;strokeColor=#ffffff;dashed=0;verticalLabelPosition=bottom;verticalAlign=top;align=center;html=1;fontSize=12;fontStyle=0;aspect=fixed;shape=mxgraph.aws4.resourceIcon;resIcon=mxgraph.aws4.cloudfront;" parent="1" vertex="1">
          <mxGeometry x="1567" y="1184.75" width="78" height="78" as="geometry" />
        </mxCell>
        <mxCell id="c3dWK8VUlBXcVYDahUM2-86" style="edgeStyle=orthogonalEdgeStyle;rounded=0;orthogonalLoop=1;jettySize=auto;html=1;startArrow=none;startFill=0;endArrow=classic;endFill=1;" parent="1" source="-kJO9xXdpxVRhP6Ypn-4-6" edge="1">
          <mxGeometry relative="1" as="geometry">
            <mxPoint x="1491" y="1240" as="targetPoint" />
            <Array as="points">
              <mxPoint x="1290" y="1310" />
              <mxPoint x="1491" y="1310" />
            </Array>
          </mxGeometry>
        </mxCell>
        <mxCell id="-kJO9xXdpxVRhP6Ypn-4-6" value="AWS Lambdas&lt;br&gt;(QnABot)" style="outlineConnect=0;fontColor=#232F3E;gradientColor=#F78E04;gradientDirection=north;fillColor=#D05C17;strokeColor=#ffffff;dashed=0;verticalLabelPosition=bottom;verticalAlign=top;align=center;html=1;fontSize=12;fontStyle=0;aspect=fixed;shape=mxgraph.aws4.resourceIcon;resIcon=mxgraph.aws4.lambda;" parent="1" vertex="1">
          <mxGeometry x="1251" y="1319.85" width="78" height="78" as="geometry" />
        </mxCell>
        <mxCell id="-kJO9xXdpxVRhP6Ypn-4-7" value="" style="edgeStyle=orthogonalEdgeStyle;rounded=0;orthogonalLoop=1;jettySize=auto;html=1;startArrow=classic;startFill=1;" parent="1" source="fZqA0a1MIIfmeRz-qSJw-67" target="-kJO9xXdpxVRhP6Ypn-4-6" edge="1">
          <mxGeometry relative="1" as="geometry">
            <mxPoint x="1138" y="1369.7142857142858" as="sourcePoint" />
            <mxPoint x="1360" y="1369.7142857142858" as="targetPoint" />
          </mxGeometry>
        </mxCell>
        <mxCell id="-kJO9xXdpxVRhP6Ypn-4-11" value="Other Kendra&#xa;Data Connectors" style="shape=image;verticalLabelPosition=bottom;labelBackgroundColor=#ffffff;verticalAlign=top;aspect=fixed;imageAspect=0;image=data:image/png,iVBORw0KGgoAAAANSUhEUgAAAFAAAABQCAYAAACOEfKtAAAAAXNSR0IArs4c6QAAH61JREFUeAHdmwnUXlV1hs8fQpiSAAkEiCTMyNSAQCKTFRFRFG1lksIqgmillihWra3aYq0ua11Vql2KiIqIVZDRihZBRSsOQZQ5AQELImWWQCAkQNL3effe997vT2hXV+my9fz57jlnn/2+ezjn3nPv/b6MzTn13StblrGxsdb0oVbLNYOWZ40KZagbkpCFXG3+euUO04tqHJvBgH7ZFXiAZ5x+8LpX44kpP63DYWDf3QB1nLYVymVekLTR4Q2y3bJZncJPXLky8tcFK82VK1fomFHRpyfSoW7AAqthj1NbxwB6UbqkCNRzha59ldqo/Z4XBtJqPYlhsC8wDdWKSPrlJ9go4CMexoaxlAYGrJE2ghwJRsBPEC/ao/gJZYzanxUkL2CdfyADXVVoJMb6hU89ZFWKm76H0xGsMBaOq71iZVsBTymmA0N8caI0IgeniV8hjijU+ogcRrPWUGngDB9K4S0LURxZOAyjRyMqxpBNpFEFgWdHTtSEoj+ccdo4Sc3HhBzcjjqMFWvixc0fM0mSmG8glLIbZHBakxGP2z4ycAWSWrTRVZtMZQn7HXkbmxBnT7DCb4Dx5WvFEmGEXVhbWyE9Vl/5gnvhvwaUwHSMTjlaThpkhxOQAeFn8EVAyU1EHhjBo6xSDtp7q2XYASkl+Su5AjaV7I2pa037EWoVDAPlM7GSxC6daSNdCvsBDx1IVTr8sC2QuUiUeBysGgkBFjJVvgaOTZiQAnvhDFtJhzCQALPFSDU9G5qhzOiIQ2hOQFGWHRjOEKkcm2BMyGuGGa6AaOMwffRHnJfceHQIMleYus+MF0Hn83i8BmpSyh5cZd/WsYPvVZJMkYcTojdJEXU110SBXVzT1kftTifH6XN69rosKMyXDChYqtXjx3N218Rg7Y6jeImd5wGnjBAul5uhS+mJfRpva5Qz8FyXA09+0v2qNdbtwvZMFodZhtAzosFqQ8hUegIgIhsFVl1zhNSLPmeqw+MF+AB544hOSYKjw6fmEG/KIa+4HKQp4M6gs4+pDq8FETGFPfxPRHo0rpKax7VBxZlSePTG2gSH70MAMbTSq27Qt3fhREhrZaXjFgYJDsVtUPbhWwXPSo3dvvjEVAZXxecY3FVW5N0C/eJ36u1/ccVYjVcdGOxLz6qhX9M6qlf8cYaCpYQOuzDBKcshEAUzqw99CCeusUY7aZ8D2yt3fF7beL0pgf4tOj70xOPtW3fd0s5edHV7OldZn6AMNPMTCc5E5hmgU7hXih1PAnJKEvV30t4vbq/b83d/i1I2Gsq0tddtR2y7m2M+c9FVrCQrOH4WkReT11gsNC/ZSCVnmu8Da7WRMIZW1r2DqFh5lD+56Kz2r/92swm9SiVz7ZnAEPtR1YxZwbswPrFTUuAP3AAvhQm6E7B98wTeut5hQ9ecpo2zJLgce+AJeJwdJyAxI/j0Y96ms9tf73VwO2DWdu1zCxdIGnyqwk/6DkAj1I4lmvDl84lcZ5BRSlY0N548lcrJo0avPvSLNPAWWOyDeOLJQI2OmjSVvcSr8jURHfthtCEdPgmsYrVolbqv28BKIZu+K6jYaow6FRfccyedNn3t9Vx7yC0dMtaIcTBinuhPxIDv1UzI+c3FNedhJXWUSpBnVBhqgu5WFHjpW48VbI6axZQjFQ4d43NHpJ3mA1+d1IdLkA7HBODziE9psWTqqoQdGbOuvcp2j0falyG+oiif0aq2a25jMLLSiQoiB1MB9PnrAixT177l/dVsu338r1hCxNl+Nv99nXyPT/y12rHafvLHp3TyeacLm945mdaK4R+e8Bed3v9W46DzP5HJ53LSW+EWzfGnjMVBsY81YQN9AtYu7BBNxCz3xQNdl5UJITp1nalBj2HAWSlpGKYXk9LLy2aNcRZ4RkcdGACe7SaTWpx9RvDfvS50lEhyrGDXJJnrspOtR7mgCUJmwwmiMa6UPUa43sz56LvITJecmiVWI4bQC8NBxGq0PKlp41yVwu/9mQ9aDEPooBZ64/Edx4DTrOjjQ+LCDH2oQ3nIVT7UxBrn3EnXgUf0IarkBU/3JGLikHnJGugHvY4+5MySdsrgDWI0OmfV7q+jge0M57SjG81V8STS5OmLuYtfYz0XdvAlbIza73kDH8kD7FWG/egEeNzRPozIwIehmujSifeBSRzPfXGHbheGfkTEmO2NE1DJs127YeilF+h0euVZyFbBp15pUaPT6yGw1A3kDg0dnVbdszM81hvFg3Sx+Z4XGRMfu757SFiyjlea7jJSBdt5CocIeziDbeZoWG58+4eG3d/qdkxWrDiS4Wueav58pmaiWJU+hWugSx4NLpTjkvhbnTWCU2Ii5jjlvbqVCy+oulZYzYpOh1fgMKu1ZMfnbocPvcPXgboWMCs5R5ohXSyZKZ4iUtjrxYXUYjnRyd22D4GTQcb4eIJVU+IeVW26VPnEU+8Dh7Ih3vd5HR5s8JV9nnyqXH7kfDcjYbJPLJJ0frD61EkKy8u+d4NYsuRAirqOoAFgWAKMMD8mDaXAh+EhF/h4s5NkJn0mPDZ/M+8TK07Hn4GzEknif/U+UU8icX9XJDVDZDAoYiTue3j6iJVidobSoLVYId1AJKT4cI62J0i1J0S5xEqUXCHZQ+q1GDPn5BqPPfClx4S7U5LodvjU7OzbD8hDH3mV8AVutYIARQ93+Hx6Knm/jpMFRZIUperq9SntVipDAzXwseoSQz/5qmakdsvOVJIQRNwGBan5VsE/u+8Tw1OOShb+MikUVau3jzzuVrr7QICe2ZxdgP08B5FJmTnGYmLUltSiaHjFabDDpx79wOtoPKAQcaymbSa+H/Wa6LtS9mpMFCZMT0NYr6GyB4pn9NKVjhftKjbgiLPE8dTKhhOKNIDd7iyUH90KrABQrGCrNoEdEBtEJuuvDxaFkrE1g+V0xynjpsGYaULDXQ6IR+wjieCRZywIXaxbnaEs/cvKnBgEXzLUwY8TWGa5XQ2njFHT7hsDOPCxieSSNTCJ7dyItQD0p14fUDgS4ybWofBV22FdP6xbziNUidNhWCceMrjSP9umnc4brEO93u95Ai9iq4QP8CPXqec6eIqD2uPle9opWzAF3i23weg7kYEgmsifoZRCOEgPZ3RIQkvodgWj4/u9I4lHxTzAhuBY5ZalGH/9V/pZ/0/fJ/YO9y5gkkmrGO0aQvsSjYnMrt+u0Nd7vAhY65f1zidLJaJ2wv7uvO7VTCA8F1eA6uvaY251K0Ed3teS/xvvEytG6vIzZMoN560+yB1htut9oq+BkeRMXseG+n9SGPbsgwvDvfHEOo8ar9NhPF3hoJJOjx8qIo8dr1sBDKcJYwguP0Yypg/mca7DezDGrO9mElm1b6PqDU2i3v9+POz5dRYGSDJZNspGIRgWrjOeDQlrFTHuHU/eMlHGdyAsWyH1Y7XZFo+JqRxcwS1PAjBK1NkLG1x7uXSjG77Urgin+RjzP3T1R2ycafioP79NAo6+fKlivPSLu/gqXseqyYyzL1CD94EQYygTpPGeukxETTJvfc+po8L/R70XnPVhx0q8JHpYWK2WS1h1N7EknwR7MpiY/G0MBKVMu1YH7WFBzmf4HDkc///UVhiOhSSML+PjJ2nWq1WtjpOqvm+kSV5PGEt81ZmJFYoxDGz3gbdaBftOvhoY8j9bw2ga7nTCW8tRhME6vVzCPK0Sj0AlbITehMFpt1p8choT8PSFwHPT8xdfxJIKqnwdlgn75wE6ES9aQz6ISGK+TGC4Z4oZoN/LsFQzQ80nwgEbpbRtmwN6bCAqxtC2GNNqONGBLR3X1rNibxOEifsb+IjO5EGS4+Vf1cXtWx11fD8p+lVLCvHb5nubcHHpKs7wnxUISxomHpoRF6syCW2JQStbYTgGGauPhHZ4NgoDgjRmL/m6rz/Dlrly1dCumS45hpPdnkxZa+223xbbt31nb9tmTtmgTddPTiZPWqs9+Phj+jzabn/4gfa9O37ertV3vk9nDObs/MdPOqxyU/rgYSZPvjsX2FXXmgPFwAqiAf82BvK0Y+eLPKBhwG9tTDJIiJntRlqRLsMwM0Y3ueGsxDAYu580pVfvEw02fYIHeBRnb7hRm7/Xi9v+W+/QJk5Yw/zDwwb6mcY20zZu8zbfuh21y7y2+Iml7ZwbF7QvXX9Ve+LpJ03vg7j8Ps9u9rawEf6qFjEj9lnygZZN1vtA78IVXCRuQAJLFjdFVCVaGIpbijKMJbelSL5rV7MjQzekB0fhWGFhfyAj+TptJk2c2P50v5e1I35nrhP35NNPtR/ceWv77i8Wtdseuq/d//iS9tjyZW36upP9S4rdN9ui7b/lc9vWSuYf7fHCdtiOe7SP/uiy9i3ph1WOEUH4FVGVfRx3W3XdIg1SYeXSnTi8vwuaUsVEteO60QUrYkZwwQka6HUOedZCD14MMlYOdZDBpCDrEYHZSKfnqYcc0+ZsNqs9teLpdu71C9qnFlzRHtavqlzsolDiflgr7vZfP9AW3PWLdtpVV7RdN91cK/bANmeTzdv7D3h12/aaH7RPXf1dz6xh+MUpm6VcYcyTm0eGy/+oJZA9ysiXSghIG0Q4VEaQux0DZr/9lI8hftbLPY8uboeedWpbsny5rm2T29mveWObOXXD9qvFv24nf+2L7VatuHLek2VfcaNCVi0/Gbvu3rva6y8+sx220x7tbfsc1I7bbZ+2sVbp+79/iSeyTsORIIT10nGCaiUSv9r6q6yw8Lid89eaZDV2JoxHspDxqeItnj7/BvIafzZqeP/y0vPaozodJ8q5U195jJN37b/f2Y7+8ifbLQ/c4yC6RzP7Y4faRL6rTv+IgHb0V7YLbvppm//1f/Jp/ort57Rjdnl+F4d10nlj3B7gHXDEHLr9C2f6/QrEuLJehDG7khW5as+C9Jicrd57EtSeaetmG3X642UCSzaByqUehzpdxq0U9dv3f3nbdbPZ7a7FD7X5F3/Bp2xsNoGftf60dvguc9t+W27fNl9/wzZpjYlatcvaovv/vX3n9oXt4kU/a8ueftp+sHKuvvuOdsp3Lm5/d9AR7U1zX9Suv+9XXqFSaI8se6JN1c5O6eOnjc8ho474pZRBoJsvEyJRBab2xykyL9Qh81hvCJW6jqyCLx7V1lPtlZ6Oph/hNCqpN3vD6e3IXef5mveWr57dfr30MTvBhgLmzfu8pJ1/zPx27O77eqMgecu1sXArs+dztmzveMHB7cKj57e9Zm0dfud17nt33NI++9Pv+5u+N897sTk5XHzzNW7Hyg4/wpc+L3ZNB+u4jpjiSURuMUu1ajrmwEeXdvezNYi8XvxjTILCQEjQCwhHHOl5e0L0md6xAAbeuLF28n4v9W775Wt/1G7WijKvxniF9JFXHN1etM2ONnDpLde3L13343bTvb9qT+oZdv2112l7zd6mnagVtqVueU49+A/a31zx1XbJLdfJERHo3+evubK9aodd284zZnqnvkI/Gj3/pqvb0brtYZJ9YLlFy4sju5KQpyyOSz4RIH8utDXLltHWp4plnsle3suklcaZIV8vpbtavPSGK5YVGSXqqWut1Q7YdievqE9ceXkMKR645mvlkbzF2oHfqg3lz/7lnHbN3Xe0J7U748Aj2oW/ecsN7Q/O+WT74rU/bGvoOvruF76y7TTjOV1My7RSP/ezK817yHZzLL/3sUfaj+663TLHRAwj8XNpiycg4mSMFFP7UQ5kbRIVjtlWd0AhSdygm30I+5JtyUblqcGw9RmnGXov3HpHr74Fd97WHly6xDr4xjXv2N33M/iUyy5s375tocYSB9VgwkjSR668tF12641tTf1Inh04lKO6/Pab2tNaKHN1uq+t0x8Hrr33l/bBBuxbnkj2K99HejCpkKupa6AaXlnmCXwGMwycJxEg3YpJHePVplDZ9gBfHMPnyNCNhAEoHfD7bfVcc31bwQ+T8po5z3cyvrHoWiXvJmN6HO/g7MmI/Q9+9xJfP+dsOqvtsNGmeCjcirZ46VI95v3SG8/uM7dwTDfcd3fvh/WINVai/SVHjotkumn/ul0Y4njRGNcsnOuvXSCM47Jlg3d94LQQPAvH792+qL3h3E+be+bUDczItY9is/LlBZnYL/7sh3I839nVxcmxpd9C2G/JONUv/fkN7Sglf9/Z27WF999jG8TKEwzJmzk57C28/+6wxyxyfqrUNR1RlTh1wz52uu+Fwxc0+1uZAlVNUq1RjtfA/7C+f8kjkSl5N2Py+ma795HFsiVr4VLbfINplt+glWMf6Q0iG042Caos3KgNhrL51GndCkP3/scetXz6uutZ/viTy514r+q0aQUdSFpMSh8/ptEdfR8ob9kV/QOenIUi6VYkSI3NeveJEZva4XwAyK3xabTLtRoVJDWf8tNy4Ip7PW0ilCXLljl54CfpxQG3KsueetIbhvHsqmIwB1z4RcF/vwmKLs/IlPUmTXJt9wVdsvwJ96dMGr3/Q2h/PBqH4rbPEb6Uwt7IfaC9yRUIqICmkX7169pECGDC9yC0yAL6q7tmBg9cxgPIAuLBbmVMNjG2uMdbopvdtSau2aZOWsd+OHVkd1CG/tkp2aj/XfWQ7iVrnB8MTVtH/CrcfGcAXY3e8IMe/dW9T9RtTAwWeSz/DI7BKqO+9gaSPPCV9MBZZn5IRIA4ORmrT3exluzeR3U6q2wydarU+Qv/FurJgbL3ltuax5NYF/a89WI8/KAV7Xm+mW5+QjEwGLvE3rdEl4ryJTEGZ7vGLOv8x/fYYHwfSG56xTgdiHPozHAXLTl8UvJKCn0Eq+LRr128EoKmYzEik6v2rXrepeypd3qdHYG+efP1lp+ke8E1eRfoCY1J0DlnP4oPHJ9dtfu+SO8OeYvzXW1U5SM1GwjlJm8eha9YAg9HmjGfpJF+y8H4NoZaLZUyXO300mM+2IPoWlczTylDge9lMUa/HJEdc5SDGrOot3/5zTcAawduv4vrOiPOu25Bu0+bzdbTZ7STX/BS82CPEnVNXMi4v3vfSw71i9MLb/xpbBrWX6nHv418X/mA3l7z7DzkGd6mwR2PnsHpNGUOIlbdSFejAnNEOMVfOgiR9UzY3xshH67M4ECZD/hso0d/UKuZ/eArP67SDfTDul5tv/FmbbeZWyZXa0v1eus93zjXK/m4ub/bPnzI0W39ddYNv2zLHkPbdttsdjv3mJPaFnqc++XDD7aP/+Ay6zHGqX/4znNptgtuvLo9qRcOYdsud/bC90wcOAui7qX5St8rjbXqlRyBdzsjllRiKQuaF24Ix+9W6DkMq8VdlNOWfXkReFXGa7ccXzjdzlzwvXbyCw9u7zzgkHbUWR+3Cra4X3z317/S3veyw9vL9TzLc+8lC69p3Kqw287Q/+vbe4vt9Ci4o1ceyXvTRZ/3/WDsoPFEc9jOe/q0Pv+GqzuX8Jwow9+KLVY1DhQ+Yo7NkfeJ+lIJIAFJiY+CIqzKuAd1YAUhN5Fm0XVi0QnzGudPikN8x6cG49j0PAgEziWTC+9nf3xFO2aPfdvum2/Vjnre3u2ca37U8V14w0/abQ/e29514O9phW7R/nCPeLwrGmom4Ty9ZPjYlZe1R5YvDV/Fz8uI9xzwKj/R3KHkcqPtwIUpPxy99Ib+43XlyXakXPGPbXDS0SvpSMfB9bWp2v0f/bwxM952fH4RZNUkCCLjpTWsh20TyEYvC12cRtbL5UTKXrHT89o/HPpan2LHfem0dtUvb5Pe6PvEnfWqfn+9XJilU3Wy7h8f0rdyvJlhw/CNMjERW5Y/3/+V7ejd9qpu+6G+V3nrJV9qy/0yotcNn1BL35KCCRCh8cXrBFp13ACKiB746FkGzHjbcaohgENjAXI7mpaM9lOX6Y1v4XodmzNPyvJ07hzT2NtfdEg7cd8D26O6B3zbRV9oVygxZQu8vTBR+FRj4aYV7A+Bv3P/Q5S8vdvjOtU/pGdk3uzwfctP9P3J/K+d7ZevrMP+IUBswoH1yVH+YRWb/GO8lmrV9hBsNbKGxIVan+ob534ppB4Vcp3uHukPHjCecY/qiAAd6wFu7e+/c0m7QLsv3wOfduQJbf5+B+lmmsf30LdqEoX/CR5wbK7vUz516PFd8k688Mx2kV7xv+68M7yr76nLxCdfdWxbd2I8qYw4IJ7u/yt31Hic/sqTNdaau8t7VWdWOdcHRZ13HnyoBR++9ELVee1yrRSXcs6Gk16ZTRqvVmaMIv1q1koLGeOx4q2UvDh6ud7vLX/qqbb3Vtu1vbRBHKqvNtmRf6VX/U/o0Q7V4oo6wNtM37i9ca8D2gdedoR3Y8y/7/KL9FXozTTb4mVL23d+sbAdoEvAdnpTM2/WVu2yn99kW31gwV384KpNzaSNTX3TUXENjFGvPCtJgWAfPPULjLSN3vraGKudk3GPqEZWyTEObIxCQqv6VVtulV4XSIwjMyhsqDNPO+6fa+OYM3O2rfI+72qdfjfrNdR9evzjUY9TcpMp67e5evrgFobChnK3vtHjS/kHpHf8Vz7d2EDKj830y4YzDnudvleZ1haK601fPcvJHfFDPH0fJ/mX9dQ/fo2XVRGOrx/62Nl2ZPrJx3ZG+XGPZ348Mf26VjgDVojriBDlhC/GsOJDZKrjXmUyzBnfuKH78p12a4ft+nzfrvCF+zOV+5c86p34XO3Gi594ov3j7x/b9tlyOz0qLm7H6/TlyyoKnDOmTG1nHPq6tsUGG/mbvxMvOrM9rBWKg7gXPg5rv0JgWCswE+gVNC54gJVAW/sNHO7UF+UfvOxiPcpd50DwiVNnsr7/eP4W22jlTHcCpqrPKuR7ZXbiG/Wd8FM8K3uhjLW11pzYTlOSeDa+59GH23Hnnt7ulm4lZyN9X/xprcStp83wu8ITdf/oFxCZZEJHl4RWm87YlBOPtBUGTFYaCTjnxHe0g3beLVC/weOVunb9zaUXtJ/rpejw94nhM3nSnxdAROjjYEGgt47e5px+2Am6v9zSX9S/Vkm8T9+HUBifpiSe/urjdU3cpN2hiTv+/M/ELyA0ZjvWyzzFzLSxyW88QtdALcnKbOdIKmZCqXqSXMId4WBJWxZ86EPr033ohALjL+TFGw6EneAzPv2S8YH9aBtvezjHv6whoWeMmvSCuK275qR2xuGvb7vqWsqTCkl84HF995I6fLN3unbtHTae2f550TXtlMvZPHs87eHvE+0pu52jYVSFU6T7+IUBfck5JVzzEkDXtFC3bgA5xilW+P7hPHjR8K1N4eHTR0cOLmCj/99/nwhBwIPYPlumGOT/49rB/+j8z7Yb7rmrzdpgevuMksmPkgK3UtfLpe1d/3Ke+3vP2qaLjRyFX3FrEz77PlAGuVdDYpvxhqSSE8ykJQqhUSpBhulQ5PX2xPphJQBFEL0eP+DCgeAJK71PgESAODl7+/mqLBzJSZai1cWX/DAkga+Vb/jKZ9oi7bpb6Rdc7ML8NM4a4mGVUpbzokF1sCCJniXSI9Z4H9gZw3CuINRZcdRSrrcuBODAunhiJVZAeB7twI3H93q4YXJPjmihVnkGPC8wMxTbN5YDiHQmOqFXfkoGb/231bCj75D1jHzCV85ot+iaus30TbyBPGfKhm2ubqz/9uAjYWqX6BSmGONFlm376aE2tu4bDtc1UB0fwpm4XiBiYLQumaPGdemEWq9b/dJ1reEwE9dHE+tQGwI6+AU2cMUb/REuwFIc8tV4DJkk/Vo9vvQ5fT+nX4Bto/eMw8IPmk7QJsLrLnRLv7tNw7r+rTFx9x3fa6OJJgB7lv3xVc2+3Uc3SzUrATVJ0dfMoadOnQ7lUPH1PDB3bG6h2+ODp8PHSMFHgiWQCEdHEdBjNTlAHFNZqm/jvq5bpI0nT2mb6qaa26BzdO/4l9+8YNXkgUl82R9b5/WH5pOI6M0ZxGTaSrLoWoP8+V8a70gYQxZQO0g/xgNfuhKmXOpg0B7IgiN0nhGfhrrVMMQHoW/erUbiatwucujtoiNr4UuIDRu5Myl8+jrE62tNLPpAw2MYHL8ycupsiDHrDHDwPOP7RDlmjPnFrevJKnjG/CGY0FfXBbn9UYNgWcXOgWx2ntuBSETpo1uliyfIA88gBFKL8cAzGP7aoCl6PJjwHyzPSFYoV1As5ao7nTRUcm8ywE0RPEN8h8MGw+lYdHo7diD9KLxDl4zaMivVxIat7hYJHY+n7oALceDtAJ34SD6ysVgxdWvzTNbyyVmHJj/I/TDpFaFTtqtthHgdhvQzEIyoePVgJIbtYLcyJEQ/FFHJ2ZRu94OBXAV2SIo4Ys5BXXjXmAKftGG4hInH//F4g+NQ/kHhuNDVH8U4/HScqjmVOltWCf+4J5YjQ1/9/4XR9WoyWQDiyCrh9iH5ugb9sIBxStXu6JC5DbxUuuCTo/rGeTx4Cu8aObcPdPqDO8Yz7gH8dCf1jPZh1C9I4oOcVjiW+JCMcHS8ZkM9dIs3/78wo8yASjmSGSDbbtpgrhQmImccCMWzohriSh6ExgdBjInPOnp89KQxpo+tpHPMcpWyb4fh010QLtoeDcukr5qLcOiZEFLrwdXhy376DyzeDplAegrOEajPj0ilR9d4Rgqvmu+646ET3XI+0ijVKPjYXStKKJ1yqEQdHoCKjximbe4SMorcI6moipWGXgx3x8KPCoKzwJjs7I8oqmPb41mRxxiNVfGpL/+N53K1Ggpk3X/1IrNmUrq7MABJ3GVdHU7oXjeuI1YrfM1Q+YcTwzE54/eJeF1DvrSwMks1xqxgnZjt8CNXDIkpvHGBx9+Io9DhP09S9jv5SDiFlQ9TuWihDxq3gcCzMq2LrcHZ9x+/e+1pfD+zWwAAAABJRU5ErkJggg==;" parent="1" vertex="1">
          <mxGeometry x="1565" y="1317.8500000000001" width="80" height="80" as="geometry" />
        </mxCell>
        <mxCell id="-kJO9xXdpxVRhP6Ypn-4-17" value="QnABot Designer" style="outlineConnect=0;fontColor=#232F3E;gradientColor=#945DF2;gradientDirection=north;fillColor=#5A30B5;strokeColor=#ffffff;dashed=0;verticalLabelPosition=bottom;verticalAlign=top;align=center;html=1;fontSize=12;fontStyle=0;aspect=fixed;shape=mxgraph.aws4.resourceIcon;resIcon=mxgraph.aws4.cloudfront;" parent="1" vertex="1">
          <mxGeometry x="1030" y="1320.85" width="78" height="78" as="geometry" />
        </mxCell>
        <mxCell id="_xa58697VZdUaDmlX0MW-5" style="edgeStyle=orthogonalEdgeStyle;rounded=0;orthogonalLoop=1;jettySize=auto;html=1;endArrow=classic;endFill=1;" parent="1" source="fZqA0a1MIIfmeRz-qSJw-64" target="fZqA0a1MIIfmeRz-qSJw-84" edge="1">
          <mxGeometry relative="1" as="geometry" />
        </mxCell>
        <mxCell id="fZqA0a1MIIfmeRz-qSJw-64" value="Kinesis Data Stream" style="outlineConnect=0;fontColor=#232F3E;gradientColor=#945DF2;gradientDirection=north;fillColor=#5A30B5;strokeColor=#ffffff;dashed=0;verticalLabelPosition=bottom;verticalAlign=top;align=center;html=1;fontSize=12;fontStyle=0;aspect=fixed;shape=mxgraph.aws4.resourceIcon;resIcon=mxgraph.aws4.kinesis_data_streams;" parent="1" vertex="1">
          <mxGeometry x="1371" y="1014" width="78" height="78" as="geometry" />
        </mxCell>
        <mxCell id="EHnQ2k31aWHRx2nd6djR-3" value="" style="outlineConnect=0;fontColor=#232F3E;gradientColor=#F78E04;gradientDirection=north;fillColor=#D05C17;strokeColor=#ffffff;dashed=0;verticalLabelPosition=bottom;verticalAlign=top;align=center;html=1;fontSize=12;fontStyle=0;aspect=fixed;shape=mxgraph.aws4.resourceIcon;resIcon=mxgraph.aws4.lambda;" parent="1" vertex="1">
          <mxGeometry x="1245" y="1170" width="49" height="49" as="geometry" />
        </mxCell>
        <mxCell id="EHnQ2k31aWHRx2nd6djR-10" value="" style="html=1;endArrow=block;elbow=vertical;startArrow=none;endFill=1;strokeColor=#545B64;rounded=0;" parent="1" edge="1">
          <mxGeometry width="100" relative="1" as="geometry">
            <mxPoint x="1156" y="1130" as="sourcePoint" />
            <mxPoint x="1100" y="1200" as="targetPoint" />
          </mxGeometry>
        </mxCell>
        <mxCell id="EHnQ2k31aWHRx2nd6djR-11" value="" style="html=1;endArrow=none;elbow=vertical;startArrow=block;startFill=1;strokeColor=#545B64;rounded=0;" parent="1" edge="1">
          <mxGeometry width="100" relative="1" as="geometry">
            <mxPoint x="1099" y="1096" as="sourcePoint" />
            <mxPoint x="1129" y="1076" as="targetPoint" />
          </mxGeometry>
        </mxCell>
        <mxCell id="EHnQ2k31aWHRx2nd6djR-13" value="" style="html=1;endArrow=block;elbow=vertical;startArrow=none;endFill=1;strokeColor=#545B64;rounded=0;" parent="1" edge="1">
          <mxGeometry width="100" relative="1" as="geometry">
            <mxPoint x="1184" y="1129.67" as="sourcePoint" />
            <mxPoint x="1240" y="1199.67" as="targetPoint" />
          </mxGeometry>
        </mxCell>
        <mxCell id="EHnQ2k31aWHRx2nd6djR-15" value="Amazon Simple&lt;br&gt;Notification Service" style="outlineConnect=0;fontColor=#232F3E;gradientColor=#F34482;gradientDirection=north;fillColor=#BC1356;strokeColor=#ffffff;dashed=0;verticalLabelPosition=bottom;verticalAlign=top;align=center;html=1;fontSize=12;fontStyle=0;aspect=fixed;shape=mxgraph.aws4.resourceIcon;resIcon=mxgraph.aws4.sns;" parent="1" vertex="1">
          <mxGeometry x="1046" y="1170" width="50" height="50" as="geometry" />
        </mxCell>
        <mxCell id="EHnQ2k31aWHRx2nd6djR-16" value="AWS Lambda&lt;br&gt;Custom Transcript&lt;br&gt;Processing&lt;br&gt;(Optional)" style="text;html=1;align=center;verticalAlign=middle;resizable=0;points=[];autosize=1;" parent="1" vertex="1">
          <mxGeometry x="1211" y="1219.9980230168517" width="110" height="60" as="geometry" />
        </mxCell>
        <mxCell id="c83NvUh6HGZqpBSzk8XP-10" value="" style="edgeStyle=orthogonalEdgeStyle;rounded=0;orthogonalLoop=1;jettySize=auto;html=1;startArrow=classicThin;startFill=1;endArrow=classicThin;endFill=1;" parent="1" source="c83NvUh6HGZqpBSzk8XP-2" target="c83NvUh6HGZqpBSzk8XP-9" edge="1">
          <mxGeometry relative="1" as="geometry" />
        </mxCell>
        <mxCell id="c83NvUh6HGZqpBSzk8XP-2" value="AWS Lambda&lt;br&gt;Transcript Summary&lt;br&gt;(Optional) ." style="outlineConnect=0;fontColor=#232F3E;gradientColor=#F78E04;gradientDirection=north;fillColor=#D05C17;strokeColor=#ffffff;dashed=0;verticalLabelPosition=bottom;verticalAlign=top;align=center;html=1;fontSize=12;fontStyle=0;aspect=fixed;shape=mxgraph.aws4.resourceIcon;resIcon=mxgraph.aws4.lambda;" parent="1" vertex="1">
          <mxGeometry x="1359" y="1159" width="58" height="58" as="geometry" />
        </mxCell>
        <mxCell id="c83NvUh6HGZqpBSzk8XP-9" value="LLM" style="outlineConnect=0;fontColor=#232F3E;gradientColor=#4AB29A;gradientDirection=north;fillColor=#116D5B;strokeColor=#ffffff;dashed=0;verticalLabelPosition=bottom;verticalAlign=top;align=center;html=1;fontSize=12;fontStyle=0;aspect=fixed;shape=mxgraph.aws4.resourceIcon;resIcon=mxgraph.aws4.sagemaker;" parent="1" vertex="1">
          <mxGeometry x="1460.25" y="1157.25" width="61.5" height="61.5" as="geometry" />
        </mxCell>
        <mxCell id="c83NvUh6HGZqpBSzk8XP-12" value="" style="html=1;endArrow=block;elbow=vertical;startArrow=none;endFill=1;strokeColor=#545B64;rounded=0;entryX=-0.069;entryY=0.19;entryDx=0;entryDy=0;entryPerimeter=0;" parent="1" target="c83NvUh6HGZqpBSzk8XP-2" edge="1">
          <mxGeometry width="100" relative="1" as="geometry">
            <mxPoint x="1220" y="1076" as="sourcePoint" />
            <mxPoint x="1340" y="1173" as="targetPoint" />
          </mxGeometry>
        </mxCell>
        <mxCell id="c3dWK8VUlBXcVYDahUM2-1" value="&amp;nbsp;Optional direct interaction with Agent Assist Bot&amp;nbsp;" style="edgeStyle=orthogonalEdgeStyle;rounded=0;orthogonalLoop=1;jettySize=auto;html=1;" parent="1" source="fZqA0a1MIIfmeRz-qSJw-37" edge="1">
          <mxGeometry x="0.2644" y="-10" relative="1" as="geometry">
            <mxPoint x="1180" y="1420" as="targetPoint" />
            <Array as="points">
              <mxPoint x="600" y="1460" />
              <mxPoint x="1180" y="1460" />
            </Array>
            <mxPoint as="offset" />
          </mxGeometry>
        </mxCell>
        <mxCell id="F7nrCwxnaVBbBVm_Oen9-51" value="GenesysAudioHook" style="locked=1;" parent="0" visible="0" />
        <mxCell id="F7nrCwxnaVBbBVm_Oen9-52" value="&lt;font color=&quot;#4a1709&quot;&gt;Genesys Cloud&lt;/font&gt;" style="points=[[0,0],[0.25,0],[0.5,0],[0.75,0],[1,0],[1,0.25],[1,0.5],[1,0.75],[1,1],[0.75,1],[0.5,1],[0.25,1],[0,1],[0,0.75],[0,0.5],[0,0.25]];outlineConnect=0;html=1;whiteSpace=wrap;fontSize=12;fontStyle=0;shape=mxgraph.aws4.group;grIcon=mxgraph.aws4.group_aws_cloud;verticalAlign=top;align=left;spacingLeft=30;fontColor=#232F3E;dashed=0;fillColor=#FFE0D9;strokeColor=#FF4F1F;" parent="F7nrCwxnaVBbBVm_Oen9-51" vertex="1">
          <mxGeometry x="254" y="640" width="340" height="374.75" as="geometry" />
        </mxCell>
        <mxCell id="F7nrCwxnaVBbBVm_Oen9-53" value="Conversation" style="fillColor=#EFF0F3;strokeColor=none;dashed=0;verticalAlign=top;fontStyle=0;fontColor=#232F3D;" parent="F7nrCwxnaVBbBVm_Oen9-51" vertex="1">
          <mxGeometry x="304" y="676" width="170" height="330" as="geometry" />
        </mxCell>
        <mxCell id="F7nrCwxnaVBbBVm_Oen9-54" value=" Call Processing" style="fillColor=none;strokeColor=#5A6C86;dashed=1;verticalAlign=top;fontStyle=0;fontColor=#5A6C86;align=left;" parent="F7nrCwxnaVBbBVm_Oen9-51" vertex="1">
          <mxGeometry x="1308.5" y="620" width="351.5" height="320" as="geometry" />
        </mxCell>
        <mxCell id="F7nrCwxnaVBbBVm_Oen9-55" value="" style="group" parent="F7nrCwxnaVBbBVm_Oen9-51" vertex="1" connectable="0">
          <mxGeometry x="1310" y="660" width="110" height="113" as="geometry" />
        </mxCell>
        <mxCell id="F7nrCwxnaVBbBVm_Oen9-56" value="" style="outlineConnect=0;fontColor=#232F3E;gradientColor=#60A337;gradientDirection=north;fillColor=#277116;strokeColor=#ffffff;dashed=0;verticalLabelPosition=bottom;verticalAlign=top;align=center;html=1;fontSize=12;fontStyle=0;aspect=fixed;shape=mxgraph.aws4.resourceIcon;resIcon=mxgraph.aws4.s3;" parent="F7nrCwxnaVBbBVm_Oen9-55" vertex="1">
          <mxGeometry x="16" width="78" height="78" as="geometry" />
        </mxCell>
        <mxCell id="F7nrCwxnaVBbBVm_Oen9-57" value="Amazon S3&lt;br&gt;Call Recordings" style="text;html=1;align=center;verticalAlign=middle;resizable=0;points=[];autosize=1;" parent="F7nrCwxnaVBbBVm_Oen9-55" vertex="1">
          <mxGeometry x="5" y="83" width="100" height="30" as="geometry" />
        </mxCell>
        <mxCell id="F7nrCwxnaVBbBVm_Oen9-58" value="" style="edgeStyle=orthogonalEdgeStyle;html=1;endArrow=block;elbow=vertical;startArrow=none;endFill=1;strokeColor=#545B64;rounded=0;exitX=1;exitY=0.244;exitDx=0;exitDy=0;exitPerimeter=0;" parent="F7nrCwxnaVBbBVm_Oen9-51" target="F7nrCwxnaVBbBVm_Oen9-62" edge="1">
          <mxGeometry width="100" relative="1" as="geometry">
            <mxPoint x="1449" y="810" as="sourcePoint" />
            <mxPoint x="1560" y="810.15" as="targetPoint" />
            <Array as="points">
              <mxPoint x="1500" y="810" />
              <mxPoint x="1500" y="810" />
            </Array>
          </mxGeometry>
        </mxCell>
        <mxCell id="F7nrCwxnaVBbBVm_Oen9-59" value="" style="edgeStyle=orthogonalEdgeStyle;html=1;endArrow=none;elbow=vertical;startArrow=block;startFill=1;strokeColor=#545B64;rounded=0;" parent="F7nrCwxnaVBbBVm_Oen9-51" edge="1">
          <mxGeometry width="100" relative="1" as="geometry">
            <mxPoint x="1450" y="847.1500000000001" as="sourcePoint" />
            <mxPoint x="1560" y="847.1500000000001" as="targetPoint" />
          </mxGeometry>
        </mxCell>
        <mxCell id="F7nrCwxnaVBbBVm_Oen9-60" value="" style="group" parent="F7nrCwxnaVBbBVm_Oen9-51" vertex="1" connectable="0">
          <mxGeometry x="1500" y="791.15" width="120" height="112.99999999999997" as="geometry" />
        </mxCell>
        <mxCell id="F7nrCwxnaVBbBVm_Oen9-61" value="&lt;div&gt;Amazon Transcribe&lt;br&gt;Streaming&lt;br&gt;&lt;/div&gt;" style="text;html=1;align=center;verticalAlign=middle;resizable=0;points=[];autosize=1;" parent="F7nrCwxnaVBbBVm_Oen9-60" vertex="1">
          <mxGeometry y="82.99999999999997" width="120" height="30" as="geometry" />
        </mxCell>
        <mxCell id="F7nrCwxnaVBbBVm_Oen9-62" value="" style="outlineConnect=0;fontColor=#232F3E;gradientColor=#4AB29A;gradientDirection=north;fillColor=#116D5B;strokeColor=#ffffff;dashed=0;verticalLabelPosition=bottom;verticalAlign=top;align=center;html=1;fontSize=12;fontStyle=0;aspect=fixed;shape=mxgraph.aws4.resourceIcon;resIcon=mxgraph.aws4.transcribe;" parent="F7nrCwxnaVBbBVm_Oen9-60" vertex="1">
          <mxGeometry x="21" width="78" height="78" as="geometry" />
        </mxCell>
        <mxCell id="F7nrCwxnaVBbBVm_Oen9-63" style="edgeStyle=orthogonalEdgeStyle;rounded=0;orthogonalLoop=1;jettySize=auto;html=1;endArrow=classic;endFill=1;" parent="F7nrCwxnaVBbBVm_Oen9-51" source="F7nrCwxnaVBbBVm_Oen9-64" target="F7nrCwxnaVBbBVm_Oen9-56" edge="1">
          <mxGeometry relative="1" as="geometry">
            <Array as="points">
              <mxPoint x="1420" y="699" />
            </Array>
          </mxGeometry>
        </mxCell>
        <mxCell id="F7nrCwxnaVBbBVm_Oen9-64" value="" style="points=[[0,0,0],[0.25,0,0],[0.5,0,0],[0.75,0,0],[1,0,0],[0,1,0],[0.25,1,0],[0.5,1,0],[0.75,1,0],[1,1,0],[0,0.25,0],[0,0.5,0],[0,0.75,0],[1,0.25,0],[1,0.5,0],[1,0.75,0]];outlineConnect=0;fontColor=#232F3E;gradientColor=#F78E04;gradientDirection=north;fillColor=#D05C17;strokeColor=#ffffff;dashed=0;verticalLabelPosition=bottom;verticalAlign=top;align=center;html=1;fontSize=12;fontStyle=0;aspect=fixed;shape=mxgraph.aws4.resourceIcon;resIcon=mxgraph.aws4.fargate;" parent="F7nrCwxnaVBbBVm_Oen9-51" vertex="1">
          <mxGeometry x="1371" y="793.12" width="78" height="78" as="geometry" />
        </mxCell>
        <mxCell id="F7nrCwxnaVBbBVm_Oen9-65" value="&lt;span style=&quot;color: rgb(35, 47, 62); font-family: helvetica; font-size: 12px; font-style: normal; font-weight: 400; letter-spacing: normal; text-indent: 0px; text-transform: none; word-spacing: 0px; background-color: rgb(248, 249, 250); display: inline; float: none;&quot;&gt;AWS Fargate&lt;/span&gt;&lt;br style=&quot;color: rgb(35, 47, 62); font-family: helvetica; font-size: 12px; font-style: normal; font-weight: 400; letter-spacing: normal; text-indent: 0px; text-transform: none; word-spacing: 0px; background-color: rgb(248, 249, 250);&quot;&gt;&lt;span style=&quot;color: rgb(35, 47, 62); font-family: helvetica; font-size: 12px; font-style: normal; font-weight: 400; letter-spacing: normal; text-indent: 0px; text-transform: none; word-spacing: 0px; background-color: rgb(248, 249, 250); display: inline; float: none;&quot;&gt;Audiohook Websocket Server&amp;nbsp;&lt;/span&gt;&lt;br style=&quot;color: rgb(35, 47, 62); font-family: helvetica; font-size: 12px; font-style: normal; font-weight: 400; letter-spacing: normal; text-indent: 0px; text-transform: none; word-spacing: 0px; background-color: rgb(248, 249, 250);&quot;&gt;&lt;span style=&quot;color: rgb(35, 47, 62); font-family: helvetica; font-size: 12px; font-style: normal; font-weight: 400; letter-spacing: normal; text-indent: 0px; text-transform: none; word-spacing: 0px; background-color: rgb(248, 249, 250); display: inline; float: none;&quot;&gt;Call Processing&lt;/span&gt;" style="text;whiteSpace=wrap;html=1;align=center;" parent="F7nrCwxnaVBbBVm_Oen9-51" vertex="1">
          <mxGeometry x="1350" y="870.25" width="120" height="60" as="geometry" />
        </mxCell>
        <mxCell id="F7nrCwxnaVBbBVm_Oen9-66" value="" style="points=[[0,0,0],[0.25,0,0],[0.5,0,0],[0.75,0,0],[1,0,0],[0,1,0],[0.25,1,0],[0.5,1,0],[0.75,1,0],[1,1,0],[0,0.25,0],[0,0.5,0],[0,0.75,0],[1,0.25,0],[1,0.5,0],[1,0.75,0]];outlineConnect=0;fontColor=#232F3E;gradientColor=#F54749;gradientDirection=north;fillColor=#C7131F;strokeColor=#ffffff;dashed=0;verticalLabelPosition=bottom;verticalAlign=top;align=center;html=1;fontSize=12;fontStyle=0;aspect=fixed;shape=mxgraph.aws4.resourceIcon;resIcon=mxgraph.aws4.secrets_manager;" parent="F7nrCwxnaVBbBVm_Oen9-51" vertex="1">
          <mxGeometry x="1521" y="660" width="78" height="78" as="geometry" />
        </mxCell>
        <mxCell id="F7nrCwxnaVBbBVm_Oen9-67" value="&lt;font color=&quot;#232f3e&quot; face=&quot;helvetica&quot;&gt;Secrets Manager&lt;br&gt;API Key and Client Secret for Audiohook&lt;br&gt;&lt;/font&gt;" style="text;whiteSpace=wrap;html=1;align=center;" parent="F7nrCwxnaVBbBVm_Oen9-51" vertex="1">
          <mxGeometry x="1500" y="736.87" width="120" height="60" as="geometry" />
        </mxCell>
        <mxCell id="F7nrCwxnaVBbBVm_Oen9-68" value="" style="html=1;endArrow=none;elbow=vertical;startArrow=classicThin;endFill=0;strokeColor=#545B64;rounded=0;startFill=1;entryX=0;entryY=0.5;entryDx=0;entryDy=0;entryPerimeter=0;" parent="F7nrCwxnaVBbBVm_Oen9-51" source="F7nrCwxnaVBbBVm_Oen9-64" target="F7nrCwxnaVBbBVm_Oen9-66" edge="1">
          <mxGeometry width="100" relative="1" as="geometry">
            <mxPoint x="1450" y="793" as="sourcePoint" />
            <mxPoint x="1560" y="670" as="targetPoint" />
          </mxGeometry>
        </mxCell>
        <mxCell id="F7nrCwxnaVBbBVm_Oen9-69" value=" Call Ingestion" style="fillColor=none;strokeColor=#5A6C86;dashed=1;verticalAlign=top;fontStyle=0;fontColor=#5A6C86;align=left;" parent="F7nrCwxnaVBbBVm_Oen9-51" vertex="1">
          <mxGeometry x="624" y="740" width="400" height="220" as="geometry" />
        </mxCell>
        <mxCell id="F7nrCwxnaVBbBVm_Oen9-70" value="&lt;div&gt;Call audio streams&lt;br&gt;&lt;/div&gt;" style="text;html=1;align=left;" parent="F7nrCwxnaVBbBVm_Oen9-51" vertex="1">
          <mxGeometry x="870" y="801.15" width="170" height="30" as="geometry" />
        </mxCell>
        <mxCell id="F7nrCwxnaVBbBVm_Oen9-71" value="&lt;div&gt;Call signaling events&lt;/div&gt;" style="text;html=1;align=left;" parent="F7nrCwxnaVBbBVm_Oen9-51" vertex="1">
          <mxGeometry x="870" y="837.75" width="170" height="30" as="geometry" />
        </mxCell>
        <mxCell id="F7nrCwxnaVBbBVm_Oen9-72" value="Customer" style="outlineConnect=0;fontColor=#232F3E;gradientColor=none;fillColor=#232F3E;strokeColor=none;dashed=0;verticalLabelPosition=bottom;verticalAlign=top;align=center;html=1;fontSize=12;fontStyle=0;aspect=fixed;pointerEvents=1;shape=mxgraph.aws4.user;" parent="F7nrCwxnaVBbBVm_Oen9-51" vertex="1">
          <mxGeometry x="374" y="1130" width="50" height="50" as="geometry" />
        </mxCell>
        <mxCell id="F7nrCwxnaVBbBVm_Oen9-73" style="edgeStyle=orthogonalEdgeStyle;rounded=0;orthogonalLoop=1;jettySize=auto;html=1;strokeColor=#FF8000;strokeWidth=3;" parent="F7nrCwxnaVBbBVm_Oen9-51" edge="1">
          <mxGeometry relative="1" as="geometry">
            <mxPoint x="414" y="568" as="sourcePoint" />
            <mxPoint x="414" y="1128" as="targetPoint" />
            <Array as="points">
              <mxPoint x="414" y="798" />
              <mxPoint x="414" y="798" />
            </Array>
          </mxGeometry>
        </mxCell>
        <mxCell id="F7nrCwxnaVBbBVm_Oen9-74" value="Participant: &quot;Customer&quot;" style="fillColor=none;strokeColor=#5A6C86;dashed=1;verticalAlign=top;fontStyle=0;fontColor=#5A6C86;" parent="F7nrCwxnaVBbBVm_Oen9-51" vertex="1">
          <mxGeometry x="324" y="878.5" width="130" height="90" as="geometry" />
        </mxCell>
        <mxCell id="F7nrCwxnaVBbBVm_Oen9-75" value="Participant: &quot;Agent&quot;" style="fillColor=none;strokeColor=#5A6C86;dashed=1;verticalAlign=top;fontStyle=0;fontColor=#5A6C86;" parent="F7nrCwxnaVBbBVm_Oen9-51" vertex="1">
          <mxGeometry x="324" y="707.5" width="130" height="90" as="geometry" />
        </mxCell>
        <mxCell id="F7nrCwxnaVBbBVm_Oen9-76" style="edgeStyle=orthogonalEdgeStyle;rounded=0;orthogonalLoop=1;jettySize=auto;html=1;strokeColor=#FF8000;strokeWidth=3;" parent="F7nrCwxnaVBbBVm_Oen9-51" edge="1">
          <mxGeometry relative="1" as="geometry">
            <Array as="points">
              <mxPoint x="374" y="738" />
              <mxPoint x="374" y="738" />
            </Array>
            <mxPoint x="374" y="1128" as="sourcePoint" />
            <mxPoint x="374" y="568" as="targetPoint" />
          </mxGeometry>
        </mxCell>
        <mxCell id="F7nrCwxnaVBbBVm_Oen9-77" style="edgeStyle=orthogonalEdgeStyle;rounded=0;orthogonalLoop=1;jettySize=auto;html=1;strokeColor=#FF8000;strokeWidth=3;fillColor=#FF8000;startArrow=oval;startFill=1;" parent="F7nrCwxnaVBbBVm_Oen9-51" edge="1">
          <mxGeometry relative="1" as="geometry">
            <mxPoint x="594" y="817" as="targetPoint" />
            <mxPoint x="414" y="817" as="sourcePoint" />
            <Array as="points">
              <mxPoint x="414" y="817.13" />
            </Array>
          </mxGeometry>
        </mxCell>
        <mxCell id="F7nrCwxnaVBbBVm_Oen9-78" value="" style="shape=cylinder3;whiteSpace=wrap;html=1;boundedLbl=1;backgroundOutline=1;size=15;dashed=1;strokeColor=#000000;fillColor=none;rotation=-90;" parent="F7nrCwxnaVBbBVm_Oen9-51" vertex="1">
          <mxGeometry x="500" y="792.5" width="40" height="77.75" as="geometry" />
        </mxCell>
        <mxCell id="F7nrCwxnaVBbBVm_Oen9-79" style="edgeStyle=orthogonalEdgeStyle;rounded=0;orthogonalLoop=1;jettySize=auto;html=1;strokeColor=#FF8000;strokeWidth=3;fillColor=#FF8000;startArrow=oval;startFill=1;" parent="F7nrCwxnaVBbBVm_Oen9-51" edge="1">
          <mxGeometry relative="1" as="geometry">
            <mxPoint x="594" y="847" as="targetPoint" />
            <mxPoint x="374" y="847" as="sourcePoint" />
            <Array as="points">
              <mxPoint x="374" y="847.26" />
            </Array>
          </mxGeometry>
        </mxCell>
        <mxCell id="F7nrCwxnaVBbBVm_Oen9-80" value="&quot;external&quot;&lt;br&gt;channel" style="text;html=1;resizable=0;autosize=1;align=center;verticalAlign=middle;points=[];fillColor=none;strokeColor=none;rounded=0;" parent="F7nrCwxnaVBbBVm_Oen9-51" vertex="1">
          <mxGeometry x="480" y="859.75" width="70" height="30" as="geometry" />
        </mxCell>
        <mxCell id="F7nrCwxnaVBbBVm_Oen9-81" value="&quot;internal&quot;&lt;br&gt;channel" style="text;html=1;resizable=0;autosize=1;align=center;verticalAlign=middle;points=[];fillColor=none;strokeColor=none;rounded=0;" parent="F7nrCwxnaVBbBVm_Oen9-51" vertex="1">
          <mxGeometry x="490" y="774.15" width="60" height="30" as="geometry" />
        </mxCell>
        <mxCell id="F7nrCwxnaVBbBVm_Oen9-82" value="" style="shape=image;verticalLabelPosition=bottom;labelBackgroundColor=#ffffff;verticalAlign=top;aspect=fixed;imageAspect=0;image=data:image/png,iVBORw0KGgoAAAANSUhEUgAAAJYAAACWCAYAAAA8AXHiAAAH90lEQVR4Ae2cjdG0NBRGU4IlWIIlWIIlWIIl2IElWIIlWIIlWIIl6JzxzTcMk4Qkm0CAkxlmWX4CPDk89yawG4JFBVRABVRABVRABVRABVRABVRABVRABVRABVRABVRABVRABVRABVRABVRABVRABVRABVRABb4p8F0I4Yev6acQAtOPX9P337ZyRgUKCgAR0PwaQvgzhPB3COHfyolt/wgh/PZVR+EwrnqDAsCEC/0eQvinEqJa2AANSHE8ywsUiDD9NQGmHHQ44M8v0Pa1l0ioA6gcALOXc2wBexB+VwOVAvaXB+n7uksZDdToPAwHs3d5MyxxhB4Q2IfeHfsTtoCTBJzcbFsAgsSfbUjS2afneLiZ7rVVdtF5AKCXlwo/uWU4R+zB7QFqvUxgo66W4QrOS/dqVfrE7XEWGigH0HY57hJhmnWKuB1Otj1uaZ5zcnhiVmt01ksj1oQitsHRzsxtgKXWRTk/rsWygAK1+RTjSVc6QgtgwnUxWDTWkVOxntxnlULCXwqJcZ1jXhe2GG4VGyL12ZsUAywNS/3kSbgddfHJ4xpCGzka2/S4IPvUJPg9dV/YHM85NE6UAoplAFHby2M7wg+w1HYAtsfFFTleSwjjmIC6rWc/T7211/CcVl3kSvZ3Po1ROzZEo9XmaPtGL30H0Npy1HMEPssFCgAHoQnAaITafAp36XGnElDbdZxPbZ501GtkvWVxBchbZgK1hYt5jlWTKx2FxdobZnH5n3l6uBShct/4Z3w/AgPnLQHPeVsWVGBGLtUK5FHux8Btqc6W3G3BJnjeKR3lMKXGHL2O4YpSwVVzx8S1znxqUDrP16/DJXINddXyI+cCvty5mcgvgDS9sqtyqhwYcXkp5yLfitulPnWtC+GiJ7YqVBGWUm+xFL51rYvAOuphxYa9+rPU0yu5Vmm/iyR/x2FXzKtyEJcGUekF5vYrhdJ3tPLJV8mdvn/Mk2ucFZaX3KfkWobDk8Eq3eUrgJQ6B54X5kpuRL4EZK4ul3cqwB2O4KnGW31ZrqdHqMydOzcR415MpY5Ap5zuFhUg78g1wurLc7lWKRzur4mbCsgsgxUoDSzuG2G176UR+Zac0RA5GCqqa2mA1cAqAdGaN+paA+G6cxiMkOfCYeu15eoZKPd7qrrT2FUEaf+JM6UKifl+29J3wUqp2Lms9Aik1AgrrcvlWS0JPNcjWJ0QpXa7c+Ie4S693x63qfkUrBQhnctKb1/WNMYK25QSeNbVnqNgdUKU2u3OPcIITAmslhtHsFKEdC5ruaNjQ674mbv83KOd1DUIVk7FjuUtd3SqMVZYVnIsweqAYsQuLcKvAFHqHAjnudJyfTpWTsWO5Ue/KE415ArLcCnOnbEqhhVyRbByykxefiewamHaSiZYWzVOnG997HG2W/XAtJVPsLZqnDjfOjp9BlifwrSVT7C2apw83yL+LLBGwoR83DA8B6Xe2nM2eR8MHoLWij96O6A+SsBrLzfCxBBKC1Dxmnxtplbpyu2uCIcANaIhP4UpQgWMlgkKnPkwmp4oQPSWUTBFqID8k/PpvY5X7IewUeiZn72NOAMm3uPyxxQn4D373SxGyHPOwHJC4zY88gscGr83Z9rfIEAtTCeAtD/EbNdK/VsMx0wN0o56hilM+1a+6PvMAdPUbwBn5HbCdBE8R4edERJTva6REAvTUasusp6G2ucon3xP/WdCKgS2HEOYFoGl5TTIfUblOcACRPvSEwaFaa/iDb8D1yjnSoFFD63GoYTphvDUnPKnISvnWCTzJbB4LLMdfqg5V7e5mQKf/rA15VhIkHMtoCK5t7xAAUape3uMObCQjXpjyAUo5nWqFwC1v8QewEpg7ev3+8sVIFQRymp+myhYL4el9/IJXeRhhDGmPWyC1aus+yUVoOfHxNCFRQVUQAVUQAVUQAVUQAVUQAVU4IkK0ONj0JRxLX5KxrADE0MMcWK8K06sYzuGKFIv/z1RI6+poAAAbcerRr2LzoNoxr14jQYQAdThiUJD3H1VdCEaeyREpTcatut4bghsOJzPDm9MEyARrhg5p1G3jbzKPKBxjpyrZWEFIkwj3xY9C0LCJ26qmy0CGAkzd/0dYcpBi8MCmU52AWTc2Yi/apjLQdO6nFDuP8dMBiz25J7kTi2gcSM5pDEQMoAi3O1fX2lplCdtS9IvYB8ABlCMAwlUulfLq9UC1ggYOdRbQ16ruxIiLQcKABQJa6u4bv9/unAg7/tWE/be0MubfQPg8obHr/vHsDfeoV89RKFLjQdq64ipPy95fCxkVNne3lywgIwB5NeM4HOhTx8x3zrH1fOvgIvEUqjmO9UeZjR/dFLPqPH+ov1+jiYM4zyy8JKbEF2rwSN7iybr10LFTU1IfFQhYdet1tCA56+PKbydIFhraPCo8S2T9jWg4ubmsc9jivnVOmA9Ks8yDK4DFm3xmCJYgjUFZsESLMF6QQ92SiNfUamOpWNN4U6wBEuwDIVTGJhSqY6lYwmWjjWFgSmV6lg6lmDpWFMYmFKpjqVjCZaONYWBKZXqWDqWYOlYUxiYUqmOpWMJlo41hYEplepYOpZg6VhTGJhSqY6lYwmWjjWFgSmV6lg6lmDpWFMYmFKpjqVjCZaONYWBKZXy9zlO62gwpZGtVAVUQAVUQAVUQAVUQAVUQAVUQAVUQAVUQAVUQAVUQAVUQAVUQAVUQAVUQAVUQAVUQAVersB/BxDgt+H7AdUAAAAASUVORK5CYII=;" parent="F7nrCwxnaVBbBVm_Oen9-51" vertex="1">
          <mxGeometry x="359" y="485" width="70" height="70" as="geometry" />
        </mxCell>
        <mxCell id="F7nrCwxnaVBbBVm_Oen9-83" value="&lt;div style=&quot;text-align: center&quot;&gt;&lt;span&gt;&lt;font color=&quot;#232f3e&quot; face=&quot;helvetica&quot;&gt;Agent&lt;/font&gt;&lt;/span&gt;&lt;/div&gt;" style="text;whiteSpace=wrap;html=1;" parent="F7nrCwxnaVBbBVm_Oen9-51" vertex="1">
          <mxGeometry x="374" y="545" width="40" height="30" as="geometry" />
        </mxCell>
        <mxCell id="F7nrCwxnaVBbBVm_Oen9-84" value="" style="shape=image;verticalLabelPosition=bottom;labelBackgroundColor=#ffffff;verticalAlign=top;aspect=fixed;imageAspect=0;image=data:image/svg+xml,PHN2ZyB4bWxucz0iaHR0cDovL3d3dy53My5vcmcvMjAwMC9zdmciIHZpZXdCb3g9IjAuMDAwNTQwNzAyNzIwMTcyNzAzMyAtMC4wMDEwMDA1NTU2OTc4Mjg1MzEzIDIwOC44NTk0NjY1NTI3MzQzOCA0Ny44NTM0MjAyNTc1NjgzNiIgd2lkdGg9IjIwOC44NTk0NjY1NTI3MzQzOCIgaGVpZ2h0PSI0Ny44NTM0MjAyNTc1NjgzNiI+PGRlZnM+PHN0eWxlPi5hZTg0NjJmZS1kMzYxLTQxODktODM0Yy1lMzE1ZTU4MzU4ZGN7ZmlsbDojZmY0ZjFmO308L3N0eWxlPjwvZGVmcz48ZyBpZD0iZjlmYTQ1OGItYzk0OS00ZDJiLWI5ZTktYzYyNGMzNTdlZjcxIiBkYXRhLW5hbWU9IkxheWVyIDIiPjxnIGlkPSJiZDU3ZDY4Zi1mNmMwLTQ3N2UtODc0Yi02MGFjZmMyZGNiZDgiIGRhdGEtbmFtZT0iTGF5ZXIgMSI+PHBhdGggY2xhc3M9ImFlODQ2MmZlLWQzNjEtNDE4OS04MzRjLWUzMTVlNTgzNThkYyIgZD0iTTczLjQ1LDI3LjU0OUg2NC40MDZMNjIuMzc0LDMzLjJINTkuNDM5bDguMjQzLTIxLjU4OGgyLjQ5MUw3OC40MzIsMzMuMkg3NS41MTFabS04LjE4NC0yLjMyN2g3LjMzOWwtMy42NzctMTAuMVoiLz48cGF0aCBjbGFzcz0iYWU4NDYyZmUtZDM2MS00MTg5LTgzNGMtZTMxNWU1ODM1OGRjIiBkPSJNOTAuNjQ5LDMxLjYxMmE1LjgyMiw1LjgyMiwwLDAsMS00LjcsMS44ODMsNC45OSw0Ljk5LDAsMCwxLTMuOTA4LTEuNDksNi40NTUsNi40NTUsMCwwLDEtMS4zNTYtNC40MTFWMTcuMTU3aDIuNzQzVjI3LjUycTAsMy42NDgsMi45NjUsMy42NDcsMy4xNDQsMCw0LjE4MS0yLjM0MlYxNy4xNTdoMi43NDNWMzMuMmgtMi42MVoiLz48cGF0aCBjbGFzcz0iYWU4NDYyZmUtZDM2MS00MTg5LTgzNGMtZTMxNWU1ODM1OGRjIiBkPSJNOTYuODE2LDI1LjA0M2E5LjM5LDkuMzksMCwwLDEsMS43NS01LjkzNyw1Ljk1Myw1Ljk1MywwLDAsMSw5LjA0NC0uMzE5VjEwLjQyNWgyLjc0M1YzMy4yaC0yLjUyMWwtLjEzMy0xLjcyYTUuNTg2LDUuNTg2LDAsMCwxLTQuNTgxLDIuMDE2LDUuNDc5LDUuNDc5LDAsMCwxLTQuNTQ1LTIuMjg0LDkuNSw5LjUsMCwwLDEtMS43NTctNS45NlptMi43NDMuMzEyYTcuMTE2LDcuMTE2LDAsMCwwLDEuMTI3LDQuMjcsMy42NCwzLjY0LDAsMCwwLDMuMTEzLDEuNTQyLDQsNCwwLDAsMCwzLjgxMS0yLjM0MnYtNy4zN2E0LjAzMyw0LjAzMywwLDAsMC0zLjc4LTIuMjY4LDMuNjU4LDMuNjU4LDAsMCwwLTMuMTQ0LDEuNTU4QTcuODMxLDcuODMxLDAsMCwwLDk5LjU1OSwyNS4zNTVaIi8+PHBhdGggY2xhc3M9ImFlODQ2MmZlLWQzNjEtNDE4OS04MzRjLWUzMTVlNTgzNThkYyIgZD0iTTExNC42MjQsMTIuOWExLjYzNSwxLjYzNSwwLDAsMSwuNDA3LTEuMTI3LDEuNTMyLDEuNTMyLDAsMCwxLDEuMjA5LS40NTksMS41NTksMS41NTksMCwwLDEsMS4yMTYuNDU5LDEuNjIzLDEuNjIzLDAsMCwxLC40MTUsMS4xMjcsMS42MjQsMS42MjQsMCwxLDEtMy4yNDcsMFptMi45NjQsMjAuM2gtMi43NDNWMTcuMTU3aDIuNzQzWiIvPjxwYXRoIGNsYXNzPSJhZTg0NjJmZS1kMzYxLTQxODktODM0Yy1lMzE1ZTU4MzU4ZGMiIGQ9Ik0xMjEuMjUsMjUuMDI5YTkuNDg5LDkuNDg5LDAsMCwxLC45MjYtNC4yNDEsNi45MjksNi45MjksMCwwLDEsMi41OC0yLjkwNiw3LjAzNiw3LjAzNiwwLDAsMSwzLjc3NC0xLjAyMiw2Ljc2OSw2Ljc2OSwwLDAsMSw1LjMsMi4yNjgsOC43MzIsOC43MzIsMCwwLDEsMi4wMjMsNi4wMzR2LjE5M2E5LjU1NCw5LjU1NCwwLDAsMS0uOSw0LjIsNi44MSw2LjgxLDAsMCwxLTIuNTY1LDIuOSw3LjEsNy4xLDAsMCwxLTMuODMzLDEuMDM4LDYuNzUsNi43NSwwLDAsMS01LjI4NS0yLjI2OCw4LjY4Myw4LjY4MywwLDAsMS0yLjAyNC02Wm0yLjc1Ny4zMjZhNi44NTksNi44NTksMCwwLDAsMS4yMzksNC4yODUsNC4xOTUsNC4xOTUsMCwwLDAsNi42MzQtLjAyMiw3LjUsNy41LDAsMCwwLDEuMjMxLTQuNTg5LDYuODU2LDYuODU2LDAsMCwwLTEuMjUyLTQuMjc4LDMuOTg2LDMuOTg2LDAsMCwwLTMuMzI5LTEuNjM3LDMuOTM4LDMuOTM4LDAsMCwwLTMuMjc3LDEuNjE1QTcuNDU0LDcuNDU0LDAsMCwwLDEyNC4wMDcsMjUuMzU1WiIvPjxwYXRoIGNsYXNzPSJhZTg0NjJmZS1kMzYxLTQxODktODM0Yy1lMzE1ZTU4MzU4ZGMiIGQ9Ik0xNTYuMzE1LDMzLjJoLTIuODYxVjIzLjIySDE0Mi41NzFWMzMuMmgtMi44NDdWMTEuNjExaDIuODQ3djkuMjgxaDEwLjg4M1YxMS42MTFoMi44NjFaIi8+PHBhdGggY2xhc3M9ImFlODQ2MmZlLWQzNjEtNDE4OS04MzRjLWUzMTVlNTgzNThkYyIgZD0iTTE2MC4yMTUsMjUuMDI5YTkuNDg5LDkuNDg5LDAsMCwxLC45MjYtNC4yNDEsNi45MjksNi45MjksMCwwLDEsMi41OC0yLjkwNkE3LjAzNiw3LjAzNiwwLDAsMSwxNjcuNSwxNi44NmE2Ljc2NSw2Ljc2NSwwLDAsMSw1LjMsMi4yNjgsOC43MjgsOC43MjgsMCwwLDEsMi4wMjQsNi4wMzR2LjE5M2E5LjU1NCw5LjU1NCwwLDAsMS0uOSw0LjIsNi44MSw2LjgxLDAsMCwxLTIuNTY1LDIuOSw3LjEsNy4xLDAsMCwxLTMuODMzLDEuMDM4LDYuNzQ4LDYuNzQ4LDAsMCwxLTUuMjg1LTIuMjY4LDguNjgzLDguNjgzLDAsMCwxLTIuMDI0LTZabTIuNzU3LjMyNmE2Ljg2NSw2Ljg2NSwwLDAsMCwxLjIzOCw0LjI4NSw0LjIsNC4yLDAsMCwwLDYuNjM1LS4wMjIsNy41LDcuNSwwLDAsMCwxLjIzMS00LjU4OSw2Ljg1Niw2Ljg1NiwwLDAsMC0xLjI1Mi00LjI3OCwzLjk4OCwzLjk4OCwwLDAsMC0zLjMyOS0xLjYzNywzLjkzOCwzLjkzOCwwLDAsMC0zLjI3NywxLjYxNUE3LjQ1NCw3LjQ1NCwwLDAsMCwxNjIuOTcyLDI1LjM1NVoiLz48cGF0aCBjbGFzcz0iYWU4NDYyZmUtZDM2MS00MTg5LTgzNGMtZTMxNWU1ODM1OGRjIiBkPSJNMTc3LjUzMiwyNS4wMjlhOS40ODksOS40ODksMCwwLDEsLjkyNS00LjI0MSw2LjkzMSw2LjkzMSwwLDAsMSwyLjU4MS0yLjkwNiw3LjAzMSw3LjAzMSwwLDAsMSwzLjc3My0xLjAyMiw2Ljc2Nyw2Ljc2NywwLDAsMSw1LjMsMi4yNjgsOC43MzIsOC43MzIsMCwwLDEsMi4wMjMsNi4wMzR2LjE5M2E5LjU2OCw5LjU2OCwwLDAsMS0uOSw0LjIsNi44MTIsNi44MTIsMCwwLDEtMi41NjYsMi45LDcuMSw3LjEsMCwwLDEtMy44MzMsMS4wMzgsNi43NSw2Ljc1LDAsMCwxLTUuMjg1LTIuMjY4LDguNjg3LDguNjg3LDAsMCwxLTIuMDIzLTZabTIuNzU3LjMyNmE2Ljg2NSw2Ljg2NSwwLDAsMCwxLjIzOCw0LjI4NSw0LjIsNC4yLDAsMCwwLDYuNjM1LS4wMjIsNy41MDgsNy41MDgsMCwwLDAsMS4yMy00LjU4OSw2Ljg1Niw2Ljg1NiwwLDAsMC0xLjI1Mi00LjI3OCwzLjk4NiwzLjk4NiwwLDAsMC0zLjMyOS0xLjYzNywzLjkzNywzLjkzNywwLDAsMC0zLjI3NiwxLjYxNUE3LjQ1NCw3LjQ1NCwwLDAsMCwxODAuMjg5LDI1LjM1NVoiLz48cGF0aCBjbGFzcz0iYWU4NDYyZmUtZDM2MS00MTg5LTgzNGMtZTMxNWU1ODM1OGRjIiBkPSJNMjAwLjA1MywyNS43N2wtMS43MjEsMS43OTRWMzMuMkgxOTUuNTlWMTAuNDI1aDIuNzQyVjI0LjJsMS40NjgtMS43NjUsNS01LjI3N2gzLjMzNmwtNi4yNDIsNi43TDIwOC44NiwzMy4yaC0zLjIxOFoiLz48cGF0aCBjbGFzcz0iYWU4NDYyZmUtZDM2MS00MTg5LTgzNGMtZTMxNWU1ODM1OGRjIiBkPSJNMy4xMjcsMjcuMDA1QTEsMSwwLDEsMCw0LjI0LDI1LjM0M2E1LjA0Myw1LjA0MywwLDEsMSw2LjAyNi0uMzE3Ljk3OS45NzksMCwwLDAtLjMzOC44NjEuOTcuOTcsMCwwLDAtLjA1OC4yODZ2MTcuN2gwdjBhNC4wNDMsNC4wNDMsMCwwLDAsOC4wODUsMGgwVjQuMDQ3YTIuMDQzLDIuMDQzLDAsMSwxLDQuMDg2LDB2MzMuMmE0LjA0Myw0LjA0MywwLDAsMCw4LjA4NiwwaDBWMTUuMTExYTIuMDQzLDIuMDQzLDAsMSwxLDQuMDg1LDBWMzAuNmgwYTQuMDQzLDQuMDQzLDAsMCwwLDguMDg2LDBoMFYyNC45MTVhMy43NTksMy43NTksMCwxLDAtMiwwVjMwLjZhMi4wNDMsMi4wNDMsMCwxLDEtNC4wODYsMFYxNS4xYTQuMDQzLDQuMDQzLDAsMCwwLTguMDg1LDB2MjIuMTNhMi4wNDMsMi4wNDMsMCwxLDEtNC4wODYsMFY0LjA0MmgwYTQuMDQzLDQuMDQzLDAsMCwwLTguMDg2LDBoMFY0My44NzRhMi4wNDMsMi4wNDMsMCwxLDEtNC4wODUsMFYyNi4yNjFhNy4wMzIsNy4wMzIsMCwxLDAtOC43NDMuNzQ0WiIvPjwvZz48L2c+PC9zdmc+;" parent="F7nrCwxnaVBbBVm_Oen9-51" vertex="1">
          <mxGeometry x="634" y="788.85" width="184.17" height="42.3" as="geometry" />
        </mxCell>
        <mxCell id="F7nrCwxnaVBbBVm_Oen9-85" style="edgeStyle=orthogonalEdgeStyle;rounded=0;orthogonalLoop=1;jettySize=auto;html=1;" parent="F7nrCwxnaVBbBVm_Oen9-51" source="F7nrCwxnaVBbBVm_Oen9-86" target="F7nrCwxnaVBbBVm_Oen9-87" edge="1">
          <mxGeometry relative="1" as="geometry" />
        </mxCell>
        <mxCell id="F7nrCwxnaVBbBVm_Oen9-86" value="" style="points=[[0,0,0],[0.25,0,0],[0.5,0,0],[0.75,0,0],[1,0,0],[0,1,0],[0.25,1,0],[0.5,1,0],[0.75,1,0],[1,1,0],[0,0.25,0],[0,0.5,0],[0,0.75,0],[1,0.25,0],[1,0.5,0],[1,0.75,0]];outlineConnect=0;fontColor=#232F3E;gradientColor=#945DF2;gradientDirection=north;fillColor=#5A30B5;strokeColor=#ffffff;dashed=0;verticalLabelPosition=bottom;verticalAlign=top;align=center;html=1;fontSize=12;fontStyle=0;aspect=fixed;shape=mxgraph.aws4.resourceIcon;resIcon=mxgraph.aws4.cloudfront;" parent="F7nrCwxnaVBbBVm_Oen9-51" vertex="1">
          <mxGeometry x="1085" y="791.15" width="80" height="80" as="geometry" />
        </mxCell>
        <mxCell id="F7nrCwxnaVBbBVm_Oen9-87" value="" style="outlineConnect=0;fontColor=#232F3E;gradientColor=none;fillColor=#5A30B5;strokeColor=none;dashed=0;verticalLabelPosition=bottom;verticalAlign=top;align=center;html=1;fontSize=12;fontStyle=0;aspect=fixed;pointerEvents=1;shape=mxgraph.aws4.application_load_balancer;" parent="F7nrCwxnaVBbBVm_Oen9-51" vertex="1">
          <mxGeometry x="1216" y="796.87" width="69" height="69" as="geometry" />
        </mxCell>
        <mxCell id="F7nrCwxnaVBbBVm_Oen9-88" value="&lt;div style=&quot;text-align: center&quot;&gt;&lt;span&gt;&lt;font color=&quot;#232f3e&quot; face=&quot;helvetica&quot;&gt;&lt;b&gt;Websocket.&amp;nbsp; /api/v1/audiohook/ws&lt;/b&gt;&lt;/font&gt;&lt;/span&gt;&lt;/div&gt;" style="text;whiteSpace=wrap;html=1;" parent="F7nrCwxnaVBbBVm_Oen9-51" vertex="1">
          <mxGeometry x="652.34" y="831.15" width="165.83" height="28.7" as="geometry" />
        </mxCell>
        <mxCell id="F7nrCwxnaVBbBVm_Oen9-89" value="Amazon CloudFront&lt;br&gt;WebSocket endpoint" style="text;html=1;align=center;verticalAlign=middle;resizable=0;points=[];autosize=1;" parent="F7nrCwxnaVBbBVm_Oen9-51" vertex="1">
          <mxGeometry x="1060" y="878.5" width="130" height="30" as="geometry" />
        </mxCell>
        <mxCell id="F7nrCwxnaVBbBVm_Oen9-90" style="edgeStyle=orthogonalEdgeStyle;rounded=0;orthogonalLoop=1;jettySize=auto;html=1;strokeColor=#FF8000;strokeWidth=3;fillColor=#FF8000;startArrow=oval;startFill=1;" parent="F7nrCwxnaVBbBVm_Oen9-51" target="F7nrCwxnaVBbBVm_Oen9-86" edge="1">
          <mxGeometry relative="1" as="geometry">
            <mxPoint x="1085" y="832" as="targetPoint" />
            <mxPoint x="598" y="831" as="sourcePoint" />
            <Array as="points">
              <mxPoint x="598" y="830" />
            </Array>
          </mxGeometry>
        </mxCell>
        <object label="Chime VoiceConnector" id="c3dWK8VUlBXcVYDahUM2-2">
          <mxCell style="" parent="0" />
        </object>
        <mxCell id="c3dWK8VUlBXcVYDahUM2-22" value=" Customer on-premise contact center" style="fillColor=none;strokeColor=#5A6C86;dashed=1;verticalAlign=top;fontStyle=0;fontColor=#5A6C86;align=left;" parent="c3dWK8VUlBXcVYDahUM2-2" vertex="1">
          <mxGeometry x="334" y="640" width="230" height="310" as="geometry" />
        </mxCell>
        <mxCell id="c3dWK8VUlBXcVYDahUM2-3" value=" Call Ingestion with Chime Call Analytics" style="fillColor=none;strokeColor=#5A6C86;dashed=1;verticalAlign=top;fontStyle=0;fontColor=#5A6C86;align=left;" parent="c3dWK8VUlBXcVYDahUM2-2" vertex="1">
          <mxGeometry x="680" y="640" width="980" height="300" as="geometry" />
        </mxCell>
        <mxCell id="c3dWK8VUlBXcVYDahUM2-4" style="edgeStyle=orthogonalEdgeStyle;rounded=0;orthogonalLoop=1;jettySize=auto;html=1;" parent="c3dWK8VUlBXcVYDahUM2-2" target="YTRh0Q0eAyeyaQV84tSw-6" edge="1">
          <mxGeometry relative="1" as="geometry">
            <mxPoint x="420" y="719" as="sourcePoint" />
            <mxPoint x="713" y="718.7142857142858" as="targetPoint" />
            <Array as="points">
              <mxPoint x="420" y="722" />
            </Array>
          </mxGeometry>
        </mxCell>
        <mxCell id="c3dWK8VUlBXcVYDahUM2-5" value="SIPREC" style="text;html=1;align=center;verticalAlign=middle;resizable=0;points=[];labelBackgroundColor=#ffffff;" parent="c3dWK8VUlBXcVYDahUM2-4" vertex="1" connectable="0">
          <mxGeometry x="0.3827" y="-3" relative="1" as="geometry">
            <mxPoint x="-3" y="-14" as="offset" />
          </mxGeometry>
        </mxCell>
        <mxCell id="c3dWK8VUlBXcVYDahUM2-9" value="" style="group" parent="c3dWK8VUlBXcVYDahUM2-2" vertex="1" connectable="0">
          <mxGeometry x="940" y="680" width="120" height="113.12" as="geometry" />
        </mxCell>
        <mxCell id="c3dWK8VUlBXcVYDahUM2-10" value="" style="outlineConnect=0;fontColor=#232F3E;gradientColor=#945DF2;gradientDirection=north;fillColor=#5A30B5;strokeColor=#ffffff;dashed=0;verticalLabelPosition=bottom;verticalAlign=top;align=center;html=1;fontSize=12;fontStyle=0;aspect=fixed;shape=mxgraph.aws4.resourceIcon;resIcon=mxgraph.aws4.kinesis_video_streams;" parent="c3dWK8VUlBXcVYDahUM2-9" vertex="1">
          <mxGeometry x="21" width="78" height="78" as="geometry" />
        </mxCell>
        <mxCell id="c3dWK8VUlBXcVYDahUM2-11" value="&lt;div align=&quot;center&quot;&gt;Amazon Kinesis Video Streams&lt;br&gt;&lt;/div&gt;&lt;div align=&quot;center&quot;&gt;Audio Streams&lt;br&gt;&lt;/div&gt;" style="text;html=1;align=center;" parent="c3dWK8VUlBXcVYDahUM2-9" vertex="1">
          <mxGeometry y="77.12" width="120" height="30" as="geometry" />
        </mxCell>
        <mxCell id="c3dWK8VUlBXcVYDahUM2-14" value="" style="group" parent="c3dWK8VUlBXcVYDahUM2-2" vertex="1" connectable="0">
          <mxGeometry x="780" y="820" width="120" height="113" as="geometry" />
        </mxCell>
        <mxCell id="c3dWK8VUlBXcVYDahUM2-15" value="" style="outlineConnect=0;fontColor=#232F3E;gradientColor=#F34482;gradientDirection=north;fillColor=#BC1356;strokeColor=#ffffff;dashed=0;verticalLabelPosition=bottom;verticalAlign=top;align=center;html=1;fontSize=12;fontStyle=0;aspect=fixed;shape=mxgraph.aws4.resourceIcon;resIcon=mxgraph.aws4.eventbridge;" parent="c3dWK8VUlBXcVYDahUM2-14" vertex="1">
          <mxGeometry x="21" width="78" height="78" as="geometry" />
        </mxCell>
        <mxCell id="c3dWK8VUlBXcVYDahUM2-16" value="Amazon EventBridge&lt;br&gt;&lt;div align=&quot;center&quot;&gt;Call Signaling Events&lt;/div&gt;" style="text;html=1;" parent="c3dWK8VUlBXcVYDahUM2-14" vertex="1">
          <mxGeometry y="79" width="120" height="30" as="geometry" />
        </mxCell>
        <mxCell id="c3dWK8VUlBXcVYDahUM2-18" value="" style="edgeStyle=orthogonalEdgeStyle;html=1;endArrow=block;elbow=vertical;startArrow=none;endFill=1;strokeColor=#545B64;rounded=0;" parent="c3dWK8VUlBXcVYDahUM2-2" target="c3dWK8VUlBXcVYDahUM2-10" edge="1">
          <mxGeometry width="100" relative="1" as="geometry">
            <mxPoint x="791" y="718.7142857142858" as="sourcePoint" />
            <mxPoint x="1014.25" y="721" as="targetPoint" />
          </mxGeometry>
        </mxCell>
        <mxCell id="c3dWK8VUlBXcVYDahUM2-19" value="&lt;div align=&quot;center&quot;&gt;Call audio streams&lt;br&gt;&lt;/div&gt;" style="text;html=1;align=center;" parent="c3dWK8VUlBXcVYDahUM2-2" vertex="1">
          <mxGeometry x="780" y="696.62" width="170" height="30" as="geometry" />
        </mxCell>
        <mxCell id="c3dWK8VUlBXcVYDahUM2-23" value="" style="outlineConnect=0;fontColor=#232F3E;gradientColor=none;fillColor=#5A30B5;strokeColor=#000000;dashed=0;verticalLabelPosition=bottom;verticalAlign=top;align=center;html=1;fontSize=12;fontStyle=0;aspect=fixed;pointerEvents=1;shape=mxgraph.aws4.customer_gateway;" parent="c3dWK8VUlBXcVYDahUM2-2" vertex="1">
          <mxGeometry x="414" y="691" width="60" height="60" as="geometry" />
        </mxCell>
        <mxCell id="c3dWK8VUlBXcVYDahUM2-24" value="" style="outlineConnect=0;fontColor=#232F3E;gradientColor=none;fillColor=#232F3E;strokeColor=none;dashed=0;verticalLabelPosition=bottom;verticalAlign=top;align=center;html=1;fontSize=12;fontStyle=0;aspect=fixed;pointerEvents=1;shape=mxgraph.aws4.traditional_server;" parent="c3dWK8VUlBXcVYDahUM2-2" vertex="1">
          <mxGeometry x="420.5" y="801" width="45" height="78" as="geometry" />
        </mxCell>
        <mxCell id="c3dWK8VUlBXcVYDahUM2-25" value="Session Border Controller&lt;br&gt;(SBC)" style="text;html=1;align=center;verticalAlign=middle;resizable=0;points=[];autosize=1;" parent="c3dWK8VUlBXcVYDahUM2-2" vertex="1">
          <mxGeometry x="368" y="761" width="150" height="30" as="geometry" />
        </mxCell>
        <mxCell id="c3dWK8VUlBXcVYDahUM2-26" value="Contact Center&lt;br&gt;Telephony" style="text;html=1;align=center;verticalAlign=middle;resizable=0;points=[];autosize=1;" parent="c3dWK8VUlBXcVYDahUM2-2" vertex="1">
          <mxGeometry x="393" y="882" width="100" height="30" as="geometry" />
        </mxCell>
        <mxCell id="c3dWK8VUlBXcVYDahUM2-27" value="" style="group" parent="c3dWK8VUlBXcVYDahUM2-2" vertex="1" connectable="0">
          <mxGeometry x="374" y="1000" width="140" height="70" as="geometry" />
        </mxCell>
        <mxCell id="c3dWK8VUlBXcVYDahUM2-28" value="" style="html=1;verticalLabelPosition=bottom;align=center;labelBackgroundColor=#ffffff;verticalAlign=top;strokeWidth=2;strokeColor=#33001a;shadow=0;dashed=0;shape=mxgraph.ios7.icons.cloud;" parent="c3dWK8VUlBXcVYDahUM2-27" vertex="1">
          <mxGeometry width="140" height="70" as="geometry" />
        </mxCell>
        <mxCell id="c3dWK8VUlBXcVYDahUM2-29" value="Public Switched&lt;br&gt;Telephone Network&lt;br&gt;(PSTN)" style="text;html=1;align=center;verticalAlign=middle;resizable=0;points=[];autosize=1;" parent="c3dWK8VUlBXcVYDahUM2-27" vertex="1">
          <mxGeometry x="10" y="20" width="120" height="50" as="geometry" />
        </mxCell>
        <mxCell id="c3dWK8VUlBXcVYDahUM2-30" style="edgeStyle=orthogonalEdgeStyle;rounded=0;orthogonalLoop=1;jettySize=auto;html=1;" parent="c3dWK8VUlBXcVYDahUM2-2" edge="1">
          <mxGeometry relative="1" as="geometry">
            <mxPoint x="444" y="930" as="targetPoint" />
            <mxPoint x="444" y="990" as="sourcePoint" />
          </mxGeometry>
        </mxCell>
        <mxCell id="c3dWK8VUlBXcVYDahUM2-31" style="edgeStyle=orthogonalEdgeStyle;rounded=0;orthogonalLoop=1;jettySize=auto;html=1;" parent="c3dWK8VUlBXcVYDahUM2-2" source="c3dWK8VUlBXcVYDahUM2-32" edge="1">
          <mxGeometry relative="1" as="geometry">
            <mxPoint x="443" y="1080" as="targetPoint" />
          </mxGeometry>
        </mxCell>
        <mxCell id="c3dWK8VUlBXcVYDahUM2-32" value="" style="verticalLabelPosition=bottom;verticalAlign=top;html=1;shadow=0;dashed=0;strokeWidth=1;shape=mxgraph.android.phone2;strokeColor=#33001a;" parent="c3dWK8VUlBXcVYDahUM2-2" vertex="1">
          <mxGeometry x="423" y="1150" width="40" height="70" as="geometry" />
        </mxCell>
        <mxCell id="c3dWK8VUlBXcVYDahUM2-33" value="Caller" style="text;html=1;align=center;verticalAlign=middle;resizable=0;points=[];autosize=1;" parent="c3dWK8VUlBXcVYDahUM2-2" vertex="1">
          <mxGeometry x="418" y="1220" width="50" height="20" as="geometry" />
        </mxCell>
        <mxCell id="c3dWK8VUlBXcVYDahUM2-34" value="" style="group" parent="c3dWK8VUlBXcVYDahUM2-2" vertex="1" connectable="0">
          <mxGeometry x="920" y="820" width="100" height="111.64999999999998" as="geometry" />
        </mxCell>
        <mxCell id="c3dWK8VUlBXcVYDahUM2-35" value="&lt;div&gt;AWS Lambda&lt;br&gt;Call Initialization&lt;/div&gt;" style="text;html=1;align=center;verticalAlign=middle;resizable=0;points=[];autosize=1;" parent="c3dWK8VUlBXcVYDahUM2-34" vertex="1">
          <mxGeometry y="81.64999999999998" width="100" height="30" as="geometry" />
        </mxCell>
        <mxCell id="c3dWK8VUlBXcVYDahUM2-36" value="" style="outlineConnect=0;fontColor=#232F3E;gradientColor=#F78E04;gradientDirection=north;fillColor=#D05C17;strokeColor=#ffffff;dashed=0;verticalLabelPosition=bottom;verticalAlign=top;align=center;html=1;fontSize=12;fontStyle=0;aspect=fixed;shape=mxgraph.aws4.resourceIcon;resIcon=mxgraph.aws4.lambda;" parent="c3dWK8VUlBXcVYDahUM2-34" vertex="1">
          <mxGeometry x="11" width="78" height="78" as="geometry" />
        </mxCell>
        <mxCell id="c3dWK8VUlBXcVYDahUM2-46" value="Amazon S3&lt;br&gt;Call Recordings" style="text;html=1;align=center;verticalAlign=middle;resizable=0;points=[];autosize=1;" parent="c3dWK8VUlBXcVYDahUM2-2" vertex="1">
          <mxGeometry x="1465.000909090909" y="741.9010619469026" width="100" height="30" as="geometry" />
        </mxCell>
        <mxCell id="c3dWK8VUlBXcVYDahUM2-56" value="" style="group" parent="c3dWK8VUlBXcVYDahUM2-2" vertex="1" connectable="0">
          <mxGeometry x="1210" y="680" width="120" height="120" as="geometry" />
        </mxCell>
        <mxCell id="c3dWK8VUlBXcVYDahUM2-58" value="&lt;div align=&quot;center&quot;&gt;Amazon Chime&lt;br&gt;Call Analytics&lt;/div&gt;" style="text;html=1;align=center;" parent="c3dWK8VUlBXcVYDahUM2-56" vertex="1">
          <mxGeometry y="78" width="120" height="47" as="geometry" />
        </mxCell>
        <mxCell id="c3dWK8VUlBXcVYDahUM2-59" style="rounded=0;orthogonalLoop=1;jettySize=auto;html=1;" parent="c3dWK8VUlBXcVYDahUM2-2" source="c3dWK8VUlBXcVYDahUM2-10" edge="1">
          <mxGeometry relative="1" as="geometry">
            <mxPoint x="1231" y="719" as="targetPoint" />
          </mxGeometry>
        </mxCell>
        <mxCell id="c3dWK8VUlBXcVYDahUM2-63" value="" style="group" parent="c3dWK8VUlBXcVYDahUM2-2" vertex="1" connectable="0">
          <mxGeometry x="1050" y="800" width="151.5" height="60" as="geometry" />
        </mxCell>
        <mxCell id="c3dWK8VUlBXcVYDahUM2-55" value="" style="outlineConnect=0;fontColor=#232F3E;gradientColor=#4D72F3;gradientDirection=north;fillColor=#3334B9;strokeColor=#ffffff;dashed=0;verticalLabelPosition=bottom;verticalAlign=top;align=center;html=1;fontSize=12;fontStyle=0;aspect=fixed;shape=mxgraph.aws4.resourceIcon;resIcon=mxgraph.aws4.dynamodb;" parent="c3dWK8VUlBXcVYDahUM2-63" vertex="1">
          <mxGeometry width="60" height="60" as="geometry" />
        </mxCell>
        <mxCell id="c3dWK8VUlBXcVYDahUM2-47" value="Amazon &lt;br&gt;DynamoDB&lt;br&gt;Event caching" style="text;html=1;align=left;verticalAlign=middle;resizable=0;points=[];autosize=1;" parent="c3dWK8VUlBXcVYDahUM2-63" vertex="1">
          <mxGeometry x="61.5" y="5.001560468140497" width="90" height="50" as="geometry" />
        </mxCell>
        <mxCell id="c3dWK8VUlBXcVYDahUM2-64" value="" style="group" parent="c3dWK8VUlBXcVYDahUM2-2" vertex="1" connectable="0">
          <mxGeometry x="1050.5" y="869.9980230168516" width="161" height="60" as="geometry" />
        </mxCell>
        <mxCell id="c3dWK8VUlBXcVYDahUM2-48" value="AWS Lambda&lt;br&gt;Customer&lt;br&gt;Call Initialization&lt;br&gt;(Optional)" style="text;html=1;align=left;verticalAlign=middle;resizable=0;points=[];autosize=1;" parent="c3dWK8VUlBXcVYDahUM2-64" vertex="1">
          <mxGeometry x="61" width="100" height="60" as="geometry" />
        </mxCell>
        <mxCell id="c3dWK8VUlBXcVYDahUM2-41" value="" style="outlineConnect=0;fontColor=#232F3E;gradientColor=#F78E04;gradientDirection=north;fillColor=#D05C17;strokeColor=#ffffff;dashed=0;verticalLabelPosition=bottom;verticalAlign=top;align=center;html=1;fontSize=12;fontStyle=0;aspect=fixed;shape=mxgraph.aws4.resourceIcon;resIcon=mxgraph.aws4.lambda;" parent="c3dWK8VUlBXcVYDahUM2-64" vertex="1">
          <mxGeometry y="0.001976983148438194" width="59" height="59" as="geometry" />
        </mxCell>
        <mxCell id="c3dWK8VUlBXcVYDahUM2-65" style="rounded=0;orthogonalLoop=1;jettySize=auto;html=1;startArrow=classic;startFill=1;" parent="c3dWK8VUlBXcVYDahUM2-2" source="c3dWK8VUlBXcVYDahUM2-36" target="c3dWK8VUlBXcVYDahUM2-41" edge="1">
          <mxGeometry relative="1" as="geometry" />
        </mxCell>
        <mxCell id="c3dWK8VUlBXcVYDahUM2-66" style="edgeStyle=none;rounded=0;orthogonalLoop=1;jettySize=auto;html=1;startArrow=classic;startFill=1;" parent="c3dWK8VUlBXcVYDahUM2-2" source="c3dWK8VUlBXcVYDahUM2-36" target="c3dWK8VUlBXcVYDahUM2-55" edge="1">
          <mxGeometry relative="1" as="geometry" />
        </mxCell>
        <mxCell id="c3dWK8VUlBXcVYDahUM2-67" style="edgeStyle=none;rounded=0;orthogonalLoop=1;jettySize=auto;html=1;startArrow=classic;startFill=1;" parent="c3dWK8VUlBXcVYDahUM2-2" source="c3dWK8VUlBXcVYDahUM2-15" target="c3dWK8VUlBXcVYDahUM2-36" edge="1">
          <mxGeometry relative="1" as="geometry" />
        </mxCell>
        <mxCell id="c3dWK8VUlBXcVYDahUM2-68" style="edgeStyle=orthogonalEdgeStyle;rounded=0;orthogonalLoop=1;jettySize=auto;html=1;startArrow=classic;startFill=1;endArrow=none;endFill=0;" parent="c3dWK8VUlBXcVYDahUM2-2" source="c3dWK8VUlBXcVYDahUM2-15" edge="1">
          <mxGeometry relative="1" as="geometry">
            <mxPoint x="752" y="800" as="targetPoint" />
          </mxGeometry>
        </mxCell>
        <mxCell id="c3dWK8VUlBXcVYDahUM2-69" value="Call Events" style="text;html=1;align=center;verticalAlign=middle;resizable=0;points=[];labelBackgroundColor=#ffffff;" parent="c3dWK8VUlBXcVYDahUM2-68" vertex="1" connectable="0">
          <mxGeometry x="0.6195" y="1" relative="1" as="geometry">
            <mxPoint x="1" y="9" as="offset" />
          </mxGeometry>
        </mxCell>
        <mxCell id="c3dWK8VUlBXcVYDahUM2-51" value="&lt;div&gt;Amazon Transcribe&lt;br&gt;Streaming&lt;br&gt;&lt;/div&gt;" style="text;html=1;align=center;verticalAlign=middle;resizable=0;points=[];autosize=1;" parent="c3dWK8VUlBXcVYDahUM2-2" vertex="1">
          <mxGeometry x="1211.5" y="899.9966666666667" width="120" height="30" as="geometry" />
        </mxCell>
        <mxCell id="c3dWK8VUlBXcVYDahUM2-75" style="edgeStyle=none;rounded=0;orthogonalLoop=1;jettySize=auto;html=1;startArrow=classic;startFill=1;endArrow=classic;endFill=1;" parent="c3dWK8VUlBXcVYDahUM2-2" source="c3dWK8VUlBXcVYDahUM2-52" edge="1">
          <mxGeometry relative="1" as="geometry">
            <mxPoint x="1270" y="800" as="targetPoint" />
          </mxGeometry>
        </mxCell>
        <mxCell id="c3dWK8VUlBXcVYDahUM2-52" value="" style="outlineConnect=0;fontColor=#232F3E;gradientColor=#4AB29A;gradientDirection=north;fillColor=#116D5B;strokeColor=#ffffff;dashed=0;verticalLabelPosition=bottom;verticalAlign=top;align=center;html=1;fontSize=12;fontStyle=0;aspect=fixed;shape=mxgraph.aws4.resourceIcon;resIcon=mxgraph.aws4.transcribe;" parent="c3dWK8VUlBXcVYDahUM2-2" vertex="1">
          <mxGeometry x="1241.5013793103449" y="841.8966666666666" width="58.09655172413803" height="58.09655172413803" as="geometry" />
        </mxCell>
        <mxCell id="c3dWK8VUlBXcVYDahUM2-71" value="" style="outlineConnect=0;fontColor=#232F3E;gradientColor=#60A337;gradientDirection=north;fillColor=#277116;strokeColor=#ffffff;dashed=0;verticalLabelPosition=bottom;verticalAlign=top;align=center;html=1;fontSize=12;fontStyle=0;aspect=fixed;shape=mxgraph.aws4.resourceIcon;resIcon=mxgraph.aws4.s3;" parent="c3dWK8VUlBXcVYDahUM2-2" vertex="1">
          <mxGeometry x="1485" y="677.52" width="60" height="60" as="geometry" />
        </mxCell>
        <mxCell id="c3dWK8VUlBXcVYDahUM2-80" style="edgeStyle=orthogonalEdgeStyle;rounded=0;orthogonalLoop=1;jettySize=auto;html=1;startArrow=none;startFill=0;endArrow=classic;endFill=1;" parent="c3dWK8VUlBXcVYDahUM2-2" source="c3dWK8VUlBXcVYDahUM2-73" edge="1">
          <mxGeometry relative="1" as="geometry">
            <mxPoint x="1450" y="1050" as="targetPoint" />
            <Array as="points">
              <mxPoint x="1515" y="1050" />
            </Array>
          </mxGeometry>
        </mxCell>
        <mxCell id="c3dWK8VUlBXcVYDahUM2-73" value="AWS Lambda&lt;br&gt;Voice Tone Processor" style="text;html=1;align=center;verticalAlign=middle;resizable=0;points=[];autosize=1;" parent="c3dWK8VUlBXcVYDahUM2-2" vertex="1">
          <mxGeometry x="1450" y="848.9980230168516" width="130" height="30" as="geometry" />
        </mxCell>
        <mxCell id="c3dWK8VUlBXcVYDahUM2-74" value="" style="outlineConnect=0;fontColor=#232F3E;gradientColor=#F78E04;gradientDirection=north;fillColor=#D05C17;strokeColor=#ffffff;dashed=0;verticalLabelPosition=bottom;verticalAlign=top;align=center;html=1;fontSize=12;fontStyle=0;aspect=fixed;shape=mxgraph.aws4.resourceIcon;resIcon=mxgraph.aws4.lambda;" parent="c3dWK8VUlBXcVYDahUM2-2" vertex="1">
          <mxGeometry x="1485.5" y="780.9" width="59" height="59" as="geometry" />
        </mxCell>
        <mxCell id="c3dWK8VUlBXcVYDahUM2-76" style="edgeStyle=orthogonalEdgeStyle;rounded=0;orthogonalLoop=1;jettySize=auto;html=1;startArrow=classic;startFill=1;endArrow=classic;endFill=1;" parent="c3dWK8VUlBXcVYDahUM2-2" target="c3dWK8VUlBXcVYDahUM2-71" edge="1">
          <mxGeometry relative="1" as="geometry">
            <Array as="points">
              <mxPoint x="1400" y="700" />
              <mxPoint x="1400" y="700" />
            </Array>
            <mxPoint x="1309" y="700.0344827586207" as="sourcePoint" />
          </mxGeometry>
        </mxCell>
        <mxCell id="c3dWK8VUlBXcVYDahUM2-77" style="edgeStyle=orthogonalEdgeStyle;rounded=0;orthogonalLoop=1;jettySize=auto;html=1;startArrow=classic;startFill=1;endArrow=classic;endFill=1;" parent="c3dWK8VUlBXcVYDahUM2-2" target="c3dWK8VUlBXcVYDahUM2-74" edge="1">
          <mxGeometry relative="1" as="geometry">
            <Array as="points">
              <mxPoint x="1440" y="719" />
              <mxPoint x="1440" y="813" />
            </Array>
            <mxPoint x="1309" y="719.344827586207" as="sourcePoint" />
          </mxGeometry>
        </mxCell>
        <mxCell id="c3dWK8VUlBXcVYDahUM2-79" style="edgeStyle=orthogonalEdgeStyle;rounded=0;orthogonalLoop=1;jettySize=auto;html=1;startArrow=classic;startFill=1;endArrow=none;endFill=0;" parent="c3dWK8VUlBXcVYDahUM2-2" edge="1">
          <mxGeometry relative="1" as="geometry">
            <mxPoint x="1410" y="910" as="targetPoint" />
            <Array as="points">
              <mxPoint x="1410" y="740" />
            </Array>
            <mxPoint x="1309" y="740.0344827586207" as="sourcePoint" />
          </mxGeometry>
        </mxCell>
        <mxCell id="YTRh0Q0eAyeyaQV84tSw-4" value="" style="shape=image;verticalLabelPosition=bottom;labelBackgroundColor=#ffffff;verticalAlign=top;aspect=fixed;imageAspect=0;image=data:image/png,iVBORw0KGgoAAAANSUhEUgAAAFAAAABQCAIAAAABc2X6AAAAAXNSR0IArs4c6QAAAERlWElmTU0AKgAAAAgAAYdpAAQAAAABAAAAGgAAAAAAA6ABAAMAAAABAAEAAKACAAQAAAABAAAAUKADAAQAAAABAAAAUAAAAAAx4ExPAAAa2UlEQVR4AcVcaZRV1ZV+rwaGQkCKKmZkkCiOOLYr7Ry1kxXHLEc6GlvEeWrUNrYa2yRmiTgPjS0qEcUhLkObqLGdIo5JR0ERTdpEEQUNUoDMQ1H1Xn/DPvfeB3SblR/dp8p7z9n729/+9jnn3nfvK5blebvsVS6Xq9UqjuVyqaQDjiV08VOiXcMqT+zLY3sOlxU8sjtQcBOVS+IXI53gqVZ5zPlDwFfwA6+cKdAcmU7rUQaohNP8MISwcrkBdlRLt1qxH8pglxqCiDSL4TWxMLEGcHs61Ak8Qt1LDCZz5XCyk/hJgSRqNXrMTxXCk5GpFL4FPBxFfiAQWJcxolOpMKkbpwkmz0Uygx6NGdyzN0XQV2MBTj88KzL4TUca/RbO4iUfAis1bFwltcjmU7LU6Al6TgaayJiJnCiYnaQy1kcywoiTVGIygNMiMRBixcGdKYYgEZy2CsPsYwKC2LiMGOmXRuDR1CG/19kWwh3KGBIWa6YsBlII3dwVaNQjOMgqSpfx0wP+BqcjVlcyIs1LKgISI3OTM2DqSSJ7TMmW8EBqf9hUDATUDIpJeIUbBr9nSjCAea3bQsXk1Q/T1eihbCoGgrnpB6BGP011Eq2JMUhI5GYYa+RCwUOngiUL1KQTgq4wAo2rIvGIIVzUCLuUMJb9xA+H+ZmRQM8IrOaPWK4e1KSNo4kTE5UBw1DzF/R4Y+b8VRRMECdGVothSlJzZC50CENzT0Na0hBqsIVQhUVTgOAEQIBgwisdcJLCCLqiMUJFcjrMEENWK37roa/ALxk4WI/SBd48BXrctLQkguayOPQouPJ5hYs2nQRRPYKBN9jigmcioiXFHdKmWHeFSfuCFz+BwPAX52CQHvHAWFxnoRMlIyJAPdppKOjhTStrcIOrOERfMVo3VF1oMjHCNinkpkKE183J8gjulRzvUoimJm6MuBoKSeCiVjWYWbRIChdLgT4EJbyS2Sb6KB43Le0iBWJDoqWZBQx95ueGr3CIIAwRgDO4aOFm48EEOZ67MsLl4iHHs1waQERNJiab7c5DPJpzGk9+5iQQZXMKsgZLHX2C1Ooxr/jTCgsAKOuPvDixpZTsw1vIICky2KpwRmQyauCyh0TJDZhKMi3xSYnSMWPwAUYJrJOYgNkmB+UJr44rhwUFJDivuPxzmD6XxLsVMZbLk3w6chYQZmTgCWdEBmNADIXPw0Vqp/kFo0H5WI72toY4BB6n1MvO7BT3tjgiACf3cgYz8nOYtPRiJoRz0qCDl2Y15IzZFRn6XXYc3XvCBV12GF3X1BSg/9tTtaOjMm9e58xXNs6Y4akNqZof7E0Oo0KuCDSX/2u7Mdj69ETBAcMpevTYr/g0bNx2xMBHHih36eIc/7/HjrdmtV91NW5xXBL+SKULToJdBV4eWDn+i5JDOK8T7hnHgIAIX3kEwtXrtFNR7epfPr38uknV9nbHFacmpcN84cIJqiJAGQtTaaFgr+MTPpCFec7LyKPQa2yoH7Nrt0svadhrz84jDu948knL0OIV9IeVNebXMHc1LEjlpvL8+ciXCt5IVTQO3P+lrrvshPjld02prF+vj1/S0SUK9zkKo132OUGGD1eK45nToGBBBfBQDwTKIvjGjs5ZszfcejvgDYcczCD+RNtCaj5pqWUUHipfZAQJhnhmtCvwlWrDoIHody5eTAsDmI0xUSReBsJMT1IfMJ7YqE4B2I2MM08BLwM/OIjTFDEI/0mP4R3vzIGlbsSIyIJB3lg8RuC3LV4esu1nt32gw64y3tsLXlmkrbGRRJ2dBvOIfecPD8PoBhI0VOxW5GcES+FP1gk8YtxLDCZTdnazRORYv55U3boJQ21ZIy1VWDZA6X0YtLCiEeoQSg8LDLQVMcTVNF5kmzAoYvCbr+O3hj/ieCNAy1haX5/Z+tpMJIGFGdG06hrBxomLfnYWb8ZQZIMeMhT4CfP7MFk40WhcT7NpDxRqZqjWgVHCEs9QjniUESepTI+vsbKaZ6C9XxhivOCMzB9pySYqsuuZQSkyfOr8le/P+Vc8nBLtPa8V06GO2ItUkGR4puVXpZ7L2Lk1+Ey3yuPuxZQhMGPAjuOY1Dqb1CVx0wIPdOpQzRb4KTsFAkGULSxHK5kAhPkrHq8vsyK1fuHTltB7ho0UCnN2PUQSnqSMZWh9KRi/SGwIAUIJQRcR4i++PxtsFwLYsR7Gs4zgh8P8cJM59h365o9Y83O/KTnlEJ9/LImFPiFQrW5rnK3UmMkivFBhhxFc/9v7s4AZP9QP+t3rA//zVZgtAinyLCFAp5QOOF0jjMB/fWa+gF8gmFonZeA4DUO/V5jsnCO2+BLPg0iLQRLALsBa5yDVR7PttCQiRwS+MK+OimwaZOSMNluRX8nBQyrPRAw0kp7g1IkEhdliBAMj1r7i+3N8DiNWCw7AV7xPFpOhn99sSqXhc36HX+XgOvjuleFlyvkJgCxZvW4ZMjq8gKotr73U8tpMWlQKz6m+v+79me/DpEND9r/gfZIwZXcQ9qQIEokEYe6K789AYh0QpQ1svKNDPfGJINcTeCKTkThOUd5SWLLU6kEuyZVi3lxLej1MYGY1tdJTGTu6jE2cL1pKBDy3BoehJKUkaxLqDCpV1B4HPwITm+3pWLBTdhpqKyYGSExwplNGA9PdJ7+MpafmpsVQaKQm/qpjg1hhVzLbs5S8DoXPLWRQ7jQLaVhgC0BYFGECB8YxODESEHmy7OpwlvmonxqMtAecrGFRB8Xja1p0EwsBbDjnLAIEBkjCE95oLS3T1DZhw5S8m2Lgjv2RYk1j/JYYEg5nQWsZOfJOSxkDD4fZ8j+1wOM7HqFJPfocRoW8JPJdLSphA2PuDM9rJvFwkkRCQ2aUhfsj+AsYmvLbXsbDTNl68vbBxjA1j3SkkZWnAc7Qg1z4xgM+7HqFeXKIDbBuMyLjIVGn9+fMIYY0Eh/l4icRIh/chauPYIrYxCQzgHJx4ObrEITGL9nvYNppVdsCiR4fkFQuw6ihXOKjJavlhc454JFK2XT7YQ4rYwBtFioEDrIKXfpo5z2VAg8J1bo6RSVJ5JePuQpNzLS5EnuSMZ8OJykqCR1JT0YpJArUzRzKK9KvmbJLz9KAa7KViXMTM0cawpSpsommLAc6xMc0sR5unkrgP95170yoK8sDiVU2Tkft+3bSk4PVcxIujD/3CkLJpX2LszI6lDmgCM9OMALO92GuborUNBgqoLZETAS1cQeIMTBFPBwpUyxOCnRWhhTx5PKHR2FvawfAHvw+ZVHUzKLFrw6nl7MWTciwpKWCK0/UELOOYJWuWWCwZpFEmYVW83GTl9o/+ZQWNE4EcUkA9wgax/V1jSNHdHw0jyg2P9vIbZP5zSAzQPhOEUjxlv68z37oSQOvkdQXVBBcgZDqsTdwJsgMiI4J4T7iTYtasqqoSdGVUqWuHPdweLXlcLYToPK8vzvSmXoctH/LheeU6uuX3z991VO/wr2e+Lq6nkd+u8/Z4xuHDln35qwl11zbsWAhwzkrpU922wdJSAYJJNO7gVVTpmoATpUzSCrVYZd4fEFJOhdDt5rmOkaQQXrYA89zufz2kO2RQl2iyYH/HM2e+mFwBGUKVO6y7cj+V/5Tj/3+1ngc2+d/uuzf7sEjavPZZzRuMxQWfAdUrq/HF33LJ09Z8cBD+KjJOJWK1E44dPZv0V+4F9hUsKxUYLd0Z/2kCwbqaX39ZcTi7m08CxGv8YmAVPxY0hbKZoJQzrGWVx2SOBxHzBnC6nv3br3o3K3HnoBiOlesXHLnXdWVq5vPGd9l+LABE38MGFr7/E++vOueta//puWyCT2POqL54gt7fOuwth/8qOPDj0CC7SMyzh0LTM38UsyytULwJT3KzjI850lPRHNJVStOdYmf4nP9WOHtiNYk0KOOhlr2AlTdUrmxsfnkk1ovOKe+dy988b/80cfb7phcXb6Smurrex11uAtedPkPVj/1DJ7X9EJSatr36y3/cmXjoIHVjR3Lp05bcc/U6sb2wgpT0DZvc4UX7Pl1q6MoCUtD6cnlWY4El0v9tMJt+x1k/ZoR4lWIMFFiqc5PV5wZTSYmiPuev+ipr3dAjZG/NHz6fQOu+j6qXf3qG/OOPO6LH11X+XJ5eCuVFU/EV+GrfvEUqgUeNxKQYZ0XHH38ioceLdXX9Tnr9AH3Tia/c/GYfy8BNIXoJAhVUI+a2Wrezy013AjMY91VFokQBndpzyRHTJVuYMrASYLJWxpeDJv22gPIT8eft+blV8QQ8ydJmlRbxcY5Tq26bt2S625Y9cyzQ6b/tNtuY2A2oY8Y4k7m7eAIRkqQSQr8oTgLNJ5wTU0kZQHc94aBDW8HcOlPLWRmFMZopuaYlxBiNCM8s3jZS6teepnm9P68wx/5VfgH248hXk2BgDBCJ1pB3j5nbgZQLuIxLcX3Z0xwpOV8SY/uvuonPGuRPNPlxxr9IAIFFFAX2fA+LIXWiaMrNKs8rJOYgNkW9IFPyTRMLp25Vd0iXPxhohK0NMXsI3sKoIcDGWzFUR3pIbzI5jFkOlOSDbOW0LSgx60s3gQTqZKK2+l5lA9H721xO7c1hkjD7OURUZzUkJXxJ0BOm/FDHfGapszIDn8zHgbKhrw5v2ntc4BAjGInZOCzR0CbYMTIM58s5qEDLE178wJG633Mkbzvi6j7mF1srDlaH44iBdvXfj971PuzRr0/27DuBx9IRqeXSVhLiNpiYG+CQp6DUhmlcs+egOT3zlq8RmHCqeZ9GBSg1ZGcMXu0lcpb9Rj8k2tG/OwBxw+56bpRzz/Z65gj+102YfhjD8K4dvY7OApLiP62yGss39U0523g7TcNnHZP1512cAiOvEeoEaSaYpQZxY8bLv0SJU+1cffdYOn4dEHcw2vxFIAfHH0De7P/yK/8e2yvbxw49PofN/bvV2lvb5s8pX3BZ/3OP6vriOFIg4ZnqaX33t92279W2zfighz22INNu4+Bcdl905bePrm6EUY+A/Bi5RTiRlnf+4Tjms89s765D7Steea5L2+7s+PzRZxgXTN+5iHceNrZU3BmClvDiOHNN17fMHTIip9MXPfk04WYTfFBjoIpxXR8iY0RTDB7uOsf367r3n3NW7MXXH51+4cfUVV93dbHHDH0pomIm/edk9a9+16mpq5rl9aLzms+/VQ8h2z4cB6eQNbPfd8JIo80123Vo/nMcb1P+fu6rl07vli84LDDUfzIuW9JSH5Y+8prSy66xDPh8LqeW7XcPKnrHrvnIDzVzX1v6dnnl/2nTOorzkvW504tu2BsEdJlP6lUrAzsuy34AOxzthltDNPLvsvHv4f9vZE7WUr/71+88j+eW/8uyit3G7PzoInXdh01MlvqUkcHwGawIAwaBvQb/uIzsOPLA7g2LxiuT3ffB0jG4qexod9dtxerraxatX7mqytuuKm0YUPwO4uO2MugVTpvsfSPS1kBGePa0Ah96uPFouZLhzzcn2HECSuDY89DDmo5c1zf00/19l4/572Pjz6+9R/Pax53at8zx62b/c7amXxQMdjB4OhcpL+nMzUZ/a/Vw1su42v9mpByqeXaa1AtdkTbaWd0Lm5jjOcC8eoU+eWkWJftDu7SKkRS0g3GJYINHfetQXI9AdVSt11rbs5rXn2j7e77gGs56/Rh06eig0t68aRb5p/4vaVTpq7+9cuQEmqCno8xYXEaj9MEZy7nRkVbX3JR02GHVFatXnL+BFTLFGKg0NpYhWCp2BweR/6TBxaVWflEo2AykVEtobk9aG1sGHD5JaNmPIzumlnveFo6N2xYfP0t8477LoxNe+zGuzMZyuvnzG278VasHwP1LIEOf/mdDmum2Ym0/dyXLQ6kqZa2Onlsr++OxS2wbcJlGz+alx6nucYg8cn8Ysj1W0f25yU+eGRVUaKexdxRyaRyCxhy779vv3PGw7j4rnvmjf2eiqFuBGMnJ3ANLWL7nj0e91KgJE6VakaMTypSZuVOrlLTNw/tc/GF8C296ocbZuGTXOkkiHnd1LFLR2KwQpEuwfw5rI2OHDhLCU9Egil/z0A42UvVVS/O/GLyPX865qRFE2+ubNhIE/VxCzUMGZSpTLno6nXEt1snXDB8xsNNB+zHFAnPhVKjwdtAt8+Eoa/b3nvi0gXblzfdtubZ5xwtAtei1ARyKhWY8xf//uzbhFZYExa6WTOr1Z4BC0ndmnbbBS6RVv888aa1c+ZmQ8AwNU1/s9e2T/ws0NKlwki46sWXVj77Qn2vXkPuvqP5rHHGA1nf3Bx4nIBjap4x2yxJrd8tN+AlfMX0h1c+iIsIjrALroGgODAcjUfqQTcmHbag99+HM3E0J0/qIqx94ec4bv/U41/790d6fvPQtBMADThy9Dnh2JHT72to7gOj7PSyIxGVNWsXnjdh8c13wNJ68YWD7rixxwH7Drx10siZz8JSWb1GKoXXllJUMOCDd/Wzzy+bdEvGxn2X6lbZuWZi+JOym63w9+fyb/oO8zR4LbGAHHKGedB/pcZ+rf3Hn9pyytiGrXuDcfVv3/zw+JOpTg0PaoOuuqz1jNMwarv3/tbx/4AOPpxxNHM6wlDqceD+g2+eiKXmAOI6O9e8/Nqy++7foCfTpCTO2743Cxh8B7jo7AtKGzein6i0PaGQ76cQHnj0PYAFFasOAlIcceU3mrcJuOLExLAMhS55cUNvamoZe9zQa6+Gy18MIbC+51bD7rwZz5546vzsyh9++diMXT/5AwBzR+xIqs158B3RsG1GvfAUMG233rny57/oWLw4CdCZEx2Bg386BYNFF15SXb0604OO/qwh9akcel0WVwkuHMTDc3ScpViwsSEzidgkrLrn5x+CYvbg7YxuPvboYbdN6lj25fwzL1jz5iwkioKH7wgG7C0c0ZhVmZ1+hz+9iw7+XSuHWiXbsRUzfASgdoRrvUSzqR6Ogz9l8DDPmdx8iKrqTy1xY2QyX3JKxqsB6Xy12GVqiEPDZQKmZT9/onFA/+VP/mrjws943Ygc513m86kza+9vu7PxCIvLiwx5RjIHIrOTjHBWS0Xyh8KiHlzRmLUaNiaO6U4JSQCj/tRiXi1IJpHxUXeyJUEYm10UpcWTpwQiVZsC8nOwgWHzlmzcDlDJlYnizG8VZqBkA+iTQoUntYmLBFoQzpVnLDT733ho5UAQIIZ5MWnRRUVGzaLklLrvOHr9Hz6gNwiJpxJa2OYM24Ffd8tNj1Tilole19HbGYOjGBhLfu8vpEubfBN+kdBWg7dUZTJeWyXXT0+BH5/DlCgoO54+CnT9mTRjqtUVL78G2+inH/fdOPlZG0hIkZo5SWOXnH3HnTJyxiOA4FveWjhsBPJXqWu90uMPI+cwJkKUuphcc13LEPzxaMmRAnBM6UicGdEXa+nDU89cfP9DeIkd+sMrRj08tb6lrwPgJQSaUiNViOMJyGHTpuA7bbwwL3vo0U/PuoB4R6Wj8RGGAeJIooZBWf9GwV/C+TKkVpFomMP58cukOuZ92OrHdcNHIvc51h2ITY7MyeUmgD5gOjpXvDhzzbtzex+wX/cdRvc94Tt4y2//eD756+qbjz1q628dBp7Khg34O1N17TqG4lunQw4c8cC93Udv17F02YKLLl029cES/ubEjJTljo46KF30dDlIAIHSiVNcAhkGNaGvVHEUWnjCo0PMq73xQE+L8ehrGLGZMTrM7J9SQ7/Wkbff0Oug/YFvm/bQmrfnDLjw3G4jhzNeDX+IWfH8r5c9+njvQw/ue8pY2Fa98vrCS/65Y8kSs+HoDlzRCe5aPbmReMwQxBFPjSlQHdjsZXxYBEowBr7Sa3DcXQrxSo+xpi0Fkx4NiWRRt9T/rHGDr7gUO1y+0vp587+4ffLGtqUtJ5/Y+7BvlBv4sYdW2dC+6Pqbl0yd5lgcQYPtw04NPwUnCwNTn1mpR+lt57jAQDTwKIYn8tNPMk5DuhFWWbCchIk0DmmkYJJ4z5gtIZmed+wRt00qd+3yxZ13L5vxS/99GHg8kPY96bjmE4/rXLVq4aVX4K5ODaKHCGjl359zxbWlMqPYfQoBvsWqBhGxGDV3NhtmTsCon/WjYA5IHnKKYVlfWgVSbkaiwxlkN9tINMZsMJmGkSxgwheEEG9y4xWilZHV/Bme+f5nfsJUSdbZRA/C430YilW2b3q+ufHGsPn7pO57LJUdnNFhqEqnTfdHemGlOK8hHGgsHXbH6saTfRFBtIoBjIEiDf4C3l90ABL8ZOPSycIYBcKmJeSZH2WBFz8/lmDxQck8BMWW3yfFGdTEs2ZWu/n7M4miSAE0Vs0IT/yuDQbpIpVgRT3wZHgmgs+N9CEAtaCbhWMKOJWEeu4YILjeh+nwSERMICxBXDAc/T8AiLBcHAPzWHdFrTCxacWJMWdgOGSsJRbX2ZaQA4zohE5dxBX1WCEFCy1OiS7gtc4c46PTJxy1/4DMv3NhmHdlcmZgdjh3OV4FMCWjsBB6PMhkOBAualWTQK2P7yARaCePaYMnvJJZZObL0eqRPumHQUpCD4d6KOI/W8J+d2m6ing98CODDX12vGF0qdguJ+0QILxnl3PAC1VnhYWd/OJBRA2e/OSAHBx46w5qnGDhQzXxaV8mPXQmfhE4jOwFfvUDiHnAEDrir4dKIymSZn04qpPSIY0dIYr2kCi5UkEdDBSGePUcxxH+M1+6GnlbBSZgjosEgWdeWESLjgKN86IRrbHxXAXhzZKmQCj/fdhhLgZHdvgb5dliLmQjOQaFYxagQHrZCQDx/pfIsiWv6YQTPPAsPmdGVwNG8jejdQcGFL8JniBc1VvCK8r/XjrlEK/S5BZKoJxkYfasH57cwl7WBC3GmokaE0OOpc/U6qU0BmD0l/37bTEoAcvjmmUZgj/9fdi5OD/SkoAYc75CHy8hNbGALt0hYUzKGEBuHLm32bKcHulIY6yOEDhgeclXwGvIlc2Ey1+rR7eiPDuxbLSkBOjCwnuEvuKBjz0CPPnqmZUXet7EwiHx9tjt6xC5injlULAqZ1hOprsikspkMzXE7QIn5crwgilpZgJf0pP+xXORX8ub9CAI4vBT5r8AYPXMxJOO6HhuNbSN9EaEUVHhk0cS0TMSx2DUmTKTC2fCPPR2KLgcSDh+fAz6nDnLojixmT8vgAlQlLagLgcVCNt/A4D7Ywhvi2SEAAAAAElFTkSuQmCC;" parent="c3dWK8VUlBXcVYDahUM2-2" vertex="1">
          <mxGeometry x="1230.55" y="680" width="80" height="80" as="geometry" />
        </mxCell>
        <mxCell id="c3dWK8VUlBXcVYDahUM2-8" value="&lt;div align=&quot;center&quot;&gt;Amazon Chime&lt;br&gt;&lt;/div&gt;&lt;div align=&quot;center&quot;&gt;Voice Connector&lt;br&gt;&lt;/div&gt;" style="text;html=1;align=center;" parent="c3dWK8VUlBXcVYDahUM2-2" vertex="1">
          <mxGeometry x="692" y="758.13" width="120" height="47" as="geometry" />
        </mxCell>
        <mxCell id="YTRh0Q0eAyeyaQV84tSw-6" value="" style="shape=image;verticalLabelPosition=bottom;labelBackgroundColor=#ffffff;verticalAlign=top;aspect=fixed;imageAspect=0;image=data:image/png,iVBORw0KGgoAAAANSUhEUgAAAFAAAABQCAIAAAABc2X6AAAAAXNSR0IArs4c6QAAAERlWElmTU0AKgAAAAgAAYdpAAQAAAABAAAAGgAAAAAAA6ABAAMAAAABAAEAAKACAAQAAAABAAAAUKADAAQAAAABAAAAUAAAAAAx4ExPAAAa2UlEQVR4AcVcaZRV1ZV+rwaGQkCKKmZkkCiOOLYr7Ry1kxXHLEc6GlvEeWrUNrYa2yRmiTgPjS0qEcUhLkObqLGdIo5JR0ERTdpEEQUNUoDMQ1H1Xn/DPvfeB3SblR/dp8p7z9n729/+9jnn3nfvK5blebvsVS6Xq9UqjuVyqaQDjiV08VOiXcMqT+zLY3sOlxU8sjtQcBOVS+IXI53gqVZ5zPlDwFfwA6+cKdAcmU7rUQaohNP8MISwcrkBdlRLt1qxH8pglxqCiDSL4TWxMLEGcHs61Ak8Qt1LDCZz5XCyk/hJgSRqNXrMTxXCk5GpFL4FPBxFfiAQWJcxolOpMKkbpwkmz0Uygx6NGdyzN0XQV2MBTj88KzL4TUca/RbO4iUfAis1bFwltcjmU7LU6Al6TgaayJiJnCiYnaQy1kcywoiTVGIygNMiMRBixcGdKYYgEZy2CsPsYwKC2LiMGOmXRuDR1CG/19kWwh3KGBIWa6YsBlII3dwVaNQjOMgqSpfx0wP+BqcjVlcyIs1LKgISI3OTM2DqSSJ7TMmW8EBqf9hUDATUDIpJeIUbBr9nSjCAea3bQsXk1Q/T1eihbCoGgrnpB6BGP011Eq2JMUhI5GYYa+RCwUOngiUL1KQTgq4wAo2rIvGIIVzUCLuUMJb9xA+H+ZmRQM8IrOaPWK4e1KSNo4kTE5UBw1DzF/R4Y+b8VRRMECdGVothSlJzZC50CENzT0Na0hBqsIVQhUVTgOAEQIBgwisdcJLCCLqiMUJFcjrMEENWK37roa/ALxk4WI/SBd48BXrctLQkguayOPQouPJ5hYs2nQRRPYKBN9jigmcioiXFHdKmWHeFSfuCFz+BwPAX52CQHvHAWFxnoRMlIyJAPdppKOjhTStrcIOrOERfMVo3VF1oMjHCNinkpkKE183J8gjulRzvUoimJm6MuBoKSeCiVjWYWbRIChdLgT4EJbyS2Sb6KB43Le0iBWJDoqWZBQx95ueGr3CIIAwRgDO4aOFm48EEOZ67MsLl4iHHs1waQERNJiab7c5DPJpzGk9+5iQQZXMKsgZLHX2C1Ooxr/jTCgsAKOuPvDixpZTsw1vIICky2KpwRmQyauCyh0TJDZhKMi3xSYnSMWPwAUYJrJOYgNkmB+UJr44rhwUFJDivuPxzmD6XxLsVMZbLk3w6chYQZmTgCWdEBmNADIXPw0Vqp/kFo0H5WI72toY4BB6n1MvO7BT3tjgiACf3cgYz8nOYtPRiJoRz0qCDl2Y15IzZFRn6XXYc3XvCBV12GF3X1BSg/9tTtaOjMm9e58xXNs6Y4akNqZof7E0Oo0KuCDSX/2u7Mdj69ETBAcMpevTYr/g0bNx2xMBHHih36eIc/7/HjrdmtV91NW5xXBL+SKULToJdBV4eWDn+i5JDOK8T7hnHgIAIX3kEwtXrtFNR7epfPr38uknV9nbHFacmpcN84cIJqiJAGQtTaaFgr+MTPpCFec7LyKPQa2yoH7Nrt0svadhrz84jDu948knL0OIV9IeVNebXMHc1LEjlpvL8+ciXCt5IVTQO3P+lrrvshPjld02prF+vj1/S0SUK9zkKo132OUGGD1eK45nToGBBBfBQDwTKIvjGjs5ZszfcejvgDYcczCD+RNtCaj5pqWUUHipfZAQJhnhmtCvwlWrDoIHody5eTAsDmI0xUSReBsJMT1IfMJ7YqE4B2I2MM08BLwM/OIjTFDEI/0mP4R3vzIGlbsSIyIJB3lg8RuC3LV4esu1nt32gw64y3tsLXlmkrbGRRJ2dBvOIfecPD8PoBhI0VOxW5GcES+FP1gk8YtxLDCZTdnazRORYv55U3boJQ21ZIy1VWDZA6X0YtLCiEeoQSg8LDLQVMcTVNF5kmzAoYvCbr+O3hj/ieCNAy1haX5/Z+tpMJIGFGdG06hrBxomLfnYWb8ZQZIMeMhT4CfP7MFk40WhcT7NpDxRqZqjWgVHCEs9QjniUESepTI+vsbKaZ6C9XxhivOCMzB9pySYqsuuZQSkyfOr8le/P+Vc8nBLtPa8V06GO2ItUkGR4puVXpZ7L2Lk1+Ey3yuPuxZQhMGPAjuOY1Dqb1CVx0wIPdOpQzRb4KTsFAkGULSxHK5kAhPkrHq8vsyK1fuHTltB7ho0UCnN2PUQSnqSMZWh9KRi/SGwIAUIJQRcR4i++PxtsFwLYsR7Gs4zgh8P8cJM59h365o9Y83O/KTnlEJ9/LImFPiFQrW5rnK3UmMkivFBhhxFc/9v7s4AZP9QP+t3rA//zVZgtAinyLCFAp5QOOF0jjMB/fWa+gF8gmFonZeA4DUO/V5jsnCO2+BLPg0iLQRLALsBa5yDVR7PttCQiRwS+MK+OimwaZOSMNluRX8nBQyrPRAw0kp7g1IkEhdliBAMj1r7i+3N8DiNWCw7AV7xPFpOhn99sSqXhc36HX+XgOvjuleFlyvkJgCxZvW4ZMjq8gKotr73U8tpMWlQKz6m+v+79me/DpEND9r/gfZIwZXcQ9qQIEokEYe6K789AYh0QpQ1svKNDPfGJINcTeCKTkThOUd5SWLLU6kEuyZVi3lxLej1MYGY1tdJTGTu6jE2cL1pKBDy3BoehJKUkaxLqDCpV1B4HPwITm+3pWLBTdhpqKyYGSExwplNGA9PdJ7+MpafmpsVQaKQm/qpjg1hhVzLbs5S8DoXPLWRQ7jQLaVhgC0BYFGECB8YxODESEHmy7OpwlvmonxqMtAecrGFRB8Xja1p0EwsBbDjnLAIEBkjCE95oLS3T1DZhw5S8m2Lgjv2RYk1j/JYYEg5nQWsZOfJOSxkDD4fZ8j+1wOM7HqFJPfocRoW8JPJdLSphA2PuDM9rJvFwkkRCQ2aUhfsj+AsYmvLbXsbDTNl68vbBxjA1j3SkkZWnAc7Qg1z4xgM+7HqFeXKIDbBuMyLjIVGn9+fMIYY0Eh/l4icRIh/chauPYIrYxCQzgHJx4ObrEITGL9nvYNppVdsCiR4fkFQuw6ihXOKjJavlhc454JFK2XT7YQ4rYwBtFioEDrIKXfpo5z2VAg8J1bo6RSVJ5JePuQpNzLS5EnuSMZ8OJykqCR1JT0YpJArUzRzKK9KvmbJLz9KAa7KViXMTM0cawpSpsommLAc6xMc0sR5unkrgP95170yoK8sDiVU2Tkft+3bSk4PVcxIujD/3CkLJpX2LszI6lDmgCM9OMALO92GuborUNBgqoLZETAS1cQeIMTBFPBwpUyxOCnRWhhTx5PKHR2FvawfAHvw+ZVHUzKLFrw6nl7MWTciwpKWCK0/UELOOYJWuWWCwZpFEmYVW83GTl9o/+ZQWNE4EcUkA9wgax/V1jSNHdHw0jyg2P9vIbZP5zSAzQPhOEUjxlv68z37oSQOvkdQXVBBcgZDqsTdwJsgMiI4J4T7iTYtasqqoSdGVUqWuHPdweLXlcLYToPK8vzvSmXoctH/LheeU6uuX3z991VO/wr2e+Lq6nkd+u8/Z4xuHDln35qwl11zbsWAhwzkrpU922wdJSAYJJNO7gVVTpmoATpUzSCrVYZd4fEFJOhdDt5rmOkaQQXrYA89zufz2kO2RQl2iyYH/HM2e+mFwBGUKVO6y7cj+V/5Tj/3+1ngc2+d/uuzf7sEjavPZZzRuMxQWfAdUrq/HF33LJ09Z8cBD+KjJOJWK1E44dPZv0V+4F9hUsKxUYLd0Z/2kCwbqaX39ZcTi7m08CxGv8YmAVPxY0hbKZoJQzrGWVx2SOBxHzBnC6nv3br3o3K3HnoBiOlesXHLnXdWVq5vPGd9l+LABE38MGFr7/E++vOueta//puWyCT2POqL54gt7fOuwth/8qOPDj0CC7SMyzh0LTM38UsyytULwJT3KzjI850lPRHNJVStOdYmf4nP9WOHtiNYk0KOOhlr2AlTdUrmxsfnkk1ovOKe+dy988b/80cfb7phcXb6Smurrex11uAtedPkPVj/1DJ7X9EJSatr36y3/cmXjoIHVjR3Lp05bcc/U6sb2wgpT0DZvc4UX7Pl1q6MoCUtD6cnlWY4El0v9tMJt+x1k/ZoR4lWIMFFiqc5PV5wZTSYmiPuev+ipr3dAjZG/NHz6fQOu+j6qXf3qG/OOPO6LH11X+XJ5eCuVFU/EV+GrfvEUqgUeNxKQYZ0XHH38ioceLdXX9Tnr9AH3Tia/c/GYfy8BNIXoJAhVUI+a2Wrezy013AjMY91VFokQBndpzyRHTJVuYMrASYLJWxpeDJv22gPIT8eft+blV8QQ8ydJmlRbxcY5Tq26bt2S625Y9cyzQ6b/tNtuY2A2oY8Y4k7m7eAIRkqQSQr8oTgLNJ5wTU0kZQHc94aBDW8HcOlPLWRmFMZopuaYlxBiNCM8s3jZS6teepnm9P68wx/5VfgH248hXk2BgDBCJ1pB3j5nbgZQLuIxLcX3Z0xwpOV8SY/uvuonPGuRPNPlxxr9IAIFFFAX2fA+LIXWiaMrNKs8rJOYgNkW9IFPyTRMLp25Vd0iXPxhohK0NMXsI3sKoIcDGWzFUR3pIbzI5jFkOlOSDbOW0LSgx60s3gQTqZKK2+l5lA9H721xO7c1hkjD7OURUZzUkJXxJ0BOm/FDHfGapszIDn8zHgbKhrw5v2ntc4BAjGInZOCzR0CbYMTIM58s5qEDLE178wJG633Mkbzvi6j7mF1srDlaH44iBdvXfj971PuzRr0/27DuBx9IRqeXSVhLiNpiYG+CQp6DUhmlcs+egOT3zlq8RmHCqeZ9GBSg1ZGcMXu0lcpb9Rj8k2tG/OwBxw+56bpRzz/Z65gj+102YfhjD8K4dvY7OApLiP62yGss39U0523g7TcNnHZP1512cAiOvEeoEaSaYpQZxY8bLv0SJU+1cffdYOn4dEHcw2vxFIAfHH0De7P/yK/8e2yvbxw49PofN/bvV2lvb5s8pX3BZ/3OP6vriOFIg4ZnqaX33t92279W2zfighz22INNu4+Bcdl905bePrm6EUY+A/Bi5RTiRlnf+4Tjms89s765D7Steea5L2+7s+PzRZxgXTN+5iHceNrZU3BmClvDiOHNN17fMHTIip9MXPfk04WYTfFBjoIpxXR8iY0RTDB7uOsf367r3n3NW7MXXH51+4cfUVV93dbHHDH0pomIm/edk9a9+16mpq5rl9aLzms+/VQ8h2z4cB6eQNbPfd8JIo80123Vo/nMcb1P+fu6rl07vli84LDDUfzIuW9JSH5Y+8prSy66xDPh8LqeW7XcPKnrHrvnIDzVzX1v6dnnl/2nTOorzkvW504tu2BsEdJlP6lUrAzsuy34AOxzthltDNPLvsvHv4f9vZE7WUr/71+88j+eW/8uyit3G7PzoInXdh01MlvqUkcHwGawIAwaBvQb/uIzsOPLA7g2LxiuT3ffB0jG4qexod9dtxerraxatX7mqytuuKm0YUPwO4uO2MugVTpvsfSPS1kBGePa0Ah96uPFouZLhzzcn2HECSuDY89DDmo5c1zf00/19l4/572Pjz6+9R/Pax53at8zx62b/c7amXxQMdjB4OhcpL+nMzUZ/a/Vw1su42v9mpByqeXaa1AtdkTbaWd0Lm5jjOcC8eoU+eWkWJftDu7SKkRS0g3GJYINHfetQXI9AdVSt11rbs5rXn2j7e77gGs56/Rh06eig0t68aRb5p/4vaVTpq7+9cuQEmqCno8xYXEaj9MEZy7nRkVbX3JR02GHVFatXnL+BFTLFGKg0NpYhWCp2BweR/6TBxaVWflEo2AykVEtobk9aG1sGHD5JaNmPIzumlnveFo6N2xYfP0t8477LoxNe+zGuzMZyuvnzG278VasHwP1LIEOf/mdDmum2Ym0/dyXLQ6kqZa2Onlsr++OxS2wbcJlGz+alx6nucYg8cn8Ysj1W0f25yU+eGRVUaKexdxRyaRyCxhy779vv3PGw7j4rnvmjf2eiqFuBGMnJ3ANLWL7nj0e91KgJE6VakaMTypSZuVOrlLTNw/tc/GF8C296ocbZuGTXOkkiHnd1LFLR2KwQpEuwfw5rI2OHDhLCU9Egil/z0A42UvVVS/O/GLyPX865qRFE2+ubNhIE/VxCzUMGZSpTLno6nXEt1snXDB8xsNNB+zHFAnPhVKjwdtAt8+Eoa/b3nvi0gXblzfdtubZ5xwtAtei1ARyKhWY8xf//uzbhFZYExa6WTOr1Z4BC0ndmnbbBS6RVv888aa1c+ZmQ8AwNU1/s9e2T/ws0NKlwki46sWXVj77Qn2vXkPuvqP5rHHGA1nf3Bx4nIBjap4x2yxJrd8tN+AlfMX0h1c+iIsIjrALroGgODAcjUfqQTcmHbag99+HM3E0J0/qIqx94ec4bv/U41/790d6fvPQtBMADThy9Dnh2JHT72to7gOj7PSyIxGVNWsXnjdh8c13wNJ68YWD7rixxwH7Drx10siZz8JSWb1GKoXXllJUMOCDd/Wzzy+bdEvGxn2X6lbZuWZi+JOym63w9+fyb/oO8zR4LbGAHHKGedB/pcZ+rf3Hn9pyytiGrXuDcfVv3/zw+JOpTg0PaoOuuqz1jNMwarv3/tbx/4AOPpxxNHM6wlDqceD+g2+eiKXmAOI6O9e8/Nqy++7foCfTpCTO2743Cxh8B7jo7AtKGzein6i0PaGQ76cQHnj0PYAFFasOAlIcceU3mrcJuOLExLAMhS55cUNvamoZe9zQa6+Gy18MIbC+51bD7rwZz5546vzsyh9++diMXT/5AwBzR+xIqs158B3RsG1GvfAUMG233rny57/oWLw4CdCZEx2Bg386BYNFF15SXb0604OO/qwh9akcel0WVwkuHMTDc3ScpViwsSEzidgkrLrn5x+CYvbg7YxuPvboYbdN6lj25fwzL1jz5iwkioKH7wgG7C0c0ZhVmZ1+hz+9iw7+XSuHWiXbsRUzfASgdoRrvUSzqR6Ogz9l8DDPmdx8iKrqTy1xY2QyX3JKxqsB6Xy12GVqiEPDZQKmZT9/onFA/+VP/mrjws943Ygc513m86kza+9vu7PxCIvLiwx5RjIHIrOTjHBWS0Xyh8KiHlzRmLUaNiaO6U4JSQCj/tRiXi1IJpHxUXeyJUEYm10UpcWTpwQiVZsC8nOwgWHzlmzcDlDJlYnizG8VZqBkA+iTQoUntYmLBFoQzpVnLDT733ho5UAQIIZ5MWnRRUVGzaLklLrvOHr9Hz6gNwiJpxJa2OYM24Ffd8tNj1Tilole19HbGYOjGBhLfu8vpEubfBN+kdBWg7dUZTJeWyXXT0+BH5/DlCgoO54+CnT9mTRjqtUVL78G2+inH/fdOPlZG0hIkZo5SWOXnH3HnTJyxiOA4FveWjhsBPJXqWu90uMPI+cwJkKUuphcc13LEPzxaMmRAnBM6UicGdEXa+nDU89cfP9DeIkd+sMrRj08tb6lrwPgJQSaUiNViOMJyGHTpuA7bbwwL3vo0U/PuoB4R6Wj8RGGAeJIooZBWf9GwV/C+TKkVpFomMP58cukOuZ92OrHdcNHIvc51h2ITY7MyeUmgD5gOjpXvDhzzbtzex+wX/cdRvc94Tt4y2//eD756+qbjz1q628dBp7Khg34O1N17TqG4lunQw4c8cC93Udv17F02YKLLl029cES/ubEjJTljo46KF30dDlIAIHSiVNcAhkGNaGvVHEUWnjCo0PMq73xQE+L8ehrGLGZMTrM7J9SQ7/Wkbff0Oug/YFvm/bQmrfnDLjw3G4jhzNeDX+IWfH8r5c9+njvQw/ue8pY2Fa98vrCS/65Y8kSs+HoDlzRCe5aPbmReMwQxBFPjSlQHdjsZXxYBEowBr7Sa3DcXQrxSo+xpi0Fkx4NiWRRt9T/rHGDr7gUO1y+0vp587+4ffLGtqUtJ5/Y+7BvlBv4sYdW2dC+6Pqbl0yd5lgcQYPtw04NPwUnCwNTn1mpR+lt57jAQDTwKIYn8tNPMk5DuhFWWbCchIk0DmmkYJJ4z5gtIZmed+wRt00qd+3yxZ13L5vxS/99GHg8kPY96bjmE4/rXLVq4aVX4K5ODaKHCGjl359zxbWlMqPYfQoBvsWqBhGxGDV3NhtmTsCon/WjYA5IHnKKYVlfWgVSbkaiwxlkN9tINMZsMJmGkSxgwheEEG9y4xWilZHV/Bme+f5nfsJUSdbZRA/C430YilW2b3q+ufHGsPn7pO57LJUdnNFhqEqnTfdHemGlOK8hHGgsHXbH6saTfRFBtIoBjIEiDf4C3l90ABL8ZOPSycIYBcKmJeSZH2WBFz8/lmDxQck8BMWW3yfFGdTEs2ZWu/n7M4miSAE0Vs0IT/yuDQbpIpVgRT3wZHgmgs+N9CEAtaCbhWMKOJWEeu4YILjeh+nwSERMICxBXDAc/T8AiLBcHAPzWHdFrTCxacWJMWdgOGSsJRbX2ZaQA4zohE5dxBX1WCEFCy1OiS7gtc4c46PTJxy1/4DMv3NhmHdlcmZgdjh3OV4FMCWjsBB6PMhkOBAualWTQK2P7yARaCePaYMnvJJZZObL0eqRPumHQUpCD4d6KOI/W8J+d2m6ing98CODDX12vGF0qdguJ+0QILxnl3PAC1VnhYWd/OJBRA2e/OSAHBx46w5qnGDhQzXxaV8mPXQmfhE4jOwFfvUDiHnAEDrir4dKIymSZn04qpPSIY0dIYr2kCi5UkEdDBSGePUcxxH+M1+6GnlbBSZgjosEgWdeWESLjgKN86IRrbHxXAXhzZKmQCj/fdhhLgZHdvgb5dliLmQjOQaFYxagQHrZCQDx/pfIsiWv6YQTPPAsPmdGVwNG8jejdQcGFL8JniBc1VvCK8r/XjrlEK/S5BZKoJxkYfasH57cwl7WBC3GmokaE0OOpc/U6qU0BmD0l/37bTEoAcvjmmUZgj/9fdi5OD/SkoAYc75CHy8hNbGALt0hYUzKGEBuHLm32bKcHulIY6yOEDhgeclXwGvIlc2Ey1+rR7eiPDuxbLSkBOjCwnuEvuKBjz0CPPnqmZUXet7EwiHx9tjt6xC5injlULAqZ1hOprsikspkMzXE7QIn5crwgilpZgJf0pP+xXORX8ub9CAI4vBT5r8AYPXMxJOO6HhuNbSN9EaEUVHhk0cS0TMSx2DUmTKTC2fCPPR2KLgcSDh+fAz6nDnLojixmT8vgAlQlLagLgcVCNt/A4D7Ywhvi2SEAAAAAElFTkSuQmCC;" parent="c3dWK8VUlBXcVYDahUM2-2" vertex="1">
          <mxGeometry x="712" y="681" width="80" height="80" as="geometry" />
        </mxCell>
        <object label="Connect KVS" id="1WR4CuMOh7M6e6OQyLBG-1">
          <mxCell style="locked=1;" parent="0" visible="0" />
        </object>
        <mxCell id="1WR4CuMOh7M6e6OQyLBG-2" value=" Call Processing" style="fillColor=none;strokeColor=#5A6C86;dashed=1;verticalAlign=top;fontStyle=0;fontColor=#5A6C86;align=left;" parent="1WR4CuMOh7M6e6OQyLBG-1" vertex="1">
          <mxGeometry x="1311" y="640" width="351.5" height="300" as="geometry" />
        </mxCell>
        <mxCell id="1WR4CuMOh7M6e6OQyLBG-3" value=" Call Ingestion" style="fillColor=none;strokeColor=#5A6C86;dashed=1;verticalAlign=top;fontStyle=0;fontColor=#5A6C86;align=left;" parent="1WR4CuMOh7M6e6OQyLBG-1" vertex="1">
          <mxGeometry x="680" y="520" width="610" height="420" as="geometry" />
        </mxCell>
        <mxCell id="1WR4CuMOh7M6e6OQyLBG-4" style="edgeStyle=orthogonalEdgeStyle;rounded=0;orthogonalLoop=1;jettySize=auto;html=1;" parent="1WR4CuMOh7M6e6OQyLBG-1" edge="1">
          <mxGeometry relative="1" as="geometry">
            <mxPoint x="460" y="720" as="sourcePoint" />
            <mxPoint x="713" y="719.1300000000001" as="targetPoint" />
          </mxGeometry>
        </mxCell>
        <mxCell id="1WR4CuMOh7M6e6OQyLBG-9" value="" style="group" parent="1WR4CuMOh7M6e6OQyLBG-1" vertex="1" connectable="0">
          <mxGeometry x="940" y="543.88" width="120" height="113.12" as="geometry" />
        </mxCell>
        <mxCell id="1WR4CuMOh7M6e6OQyLBG-10" value="" style="outlineConnect=0;fontColor=#232F3E;gradientColor=#945DF2;gradientDirection=north;fillColor=#5A30B5;strokeColor=#ffffff;dashed=0;verticalLabelPosition=bottom;verticalAlign=top;align=center;html=1;fontSize=12;fontStyle=0;aspect=fixed;shape=mxgraph.aws4.resourceIcon;resIcon=mxgraph.aws4.kinesis_video_streams;" parent="1WR4CuMOh7M6e6OQyLBG-9" vertex="1">
          <mxGeometry x="21" width="78" height="78" as="geometry" />
        </mxCell>
        <mxCell id="1WR4CuMOh7M6e6OQyLBG-11" value="&lt;div align=&quot;center&quot;&gt;Amazon Kinesis Video Streams&lt;br&gt;&lt;/div&gt;&lt;div align=&quot;center&quot;&gt;Audio Streams&lt;br&gt;&lt;/div&gt;" style="text;html=1;align=center;" parent="1WR4CuMOh7M6e6OQyLBG-9" vertex="1">
          <mxGeometry y="77.12" width="120" height="30" as="geometry" />
        </mxCell>
        <mxCell id="1WR4CuMOh7M6e6OQyLBG-12" value="&lt;div align=&quot;center&quot;&gt;Contact Flow&lt;br&gt;Lambda Trigger&lt;/div&gt;" style="text;html=1;align=center;" parent="1WR4CuMOh7M6e6OQyLBG-1" vertex="1">
          <mxGeometry x="812" y="680.59" width="170" height="30" as="geometry" />
        </mxCell>
        <mxCell id="1WR4CuMOh7M6e6OQyLBG-13" value="&lt;div&gt;Call audio streams&lt;br&gt;&lt;/div&gt;" style="text;html=1;align=left;" parent="1WR4CuMOh7M6e6OQyLBG-1" vertex="1">
          <mxGeometry x="1089" y="557.88" width="170" height="30" as="geometry" />
        </mxCell>
        <mxCell id="1WR4CuMOh7M6e6OQyLBG-17" value="" style="edgeStyle=orthogonalEdgeStyle;html=1;endArrow=block;elbow=vertical;startArrow=none;endFill=1;strokeColor=#545B64;rounded=0;" parent="1WR4CuMOh7M6e6OQyLBG-1" source="1WR4CuMOh7M6e6OQyLBG-46" edge="1" target="1WR4CuMOh7M6e6OQyLBG-49">
          <mxGeometry width="100" relative="1" as="geometry">
            <mxPoint x="742" y="878" as="sourcePoint" />
            <mxPoint x="961" y="853" as="targetPoint" />
            <Array as="points" />
          </mxGeometry>
        </mxCell>
        <mxCell id="1WR4CuMOh7M6e6OQyLBG-18" value="" style="edgeStyle=orthogonalEdgeStyle;html=1;endArrow=block;elbow=vertical;startArrow=none;endFill=1;strokeColor=#545B64;rounded=0;" parent="1WR4CuMOh7M6e6OQyLBG-1" target="1WR4CuMOh7M6e6OQyLBG-10" edge="1">
          <mxGeometry width="100" relative="1" as="geometry">
            <mxPoint x="791" y="719" as="sourcePoint" />
            <mxPoint x="1014.25" y="721" as="targetPoint" />
            <Array as="points">
              <mxPoint x="791" y="700" />
              <mxPoint x="820" y="700" />
              <mxPoint x="820" y="583" />
            </Array>
          </mxGeometry>
        </mxCell>
        <mxCell id="1WR4CuMOh7M6e6OQyLBG-19" value="&lt;div align=&quot;center&quot;&gt;Call audio streams&lt;br&gt;&lt;/div&gt;" style="text;html=1;align=center;" parent="1WR4CuMOh7M6e6OQyLBG-1" vertex="1">
          <mxGeometry x="812" y="557.88" width="170" height="30" as="geometry" />
        </mxCell>
        <mxCell id="1WR4CuMOh7M6e6OQyLBG-20" value="" style="verticalLabelPosition=bottom;aspect=fixed;html=1;verticalAlign=top;strokeColor=none;align=center;outlineConnect=0;shape=mxgraph.citrix.ip_phone;" parent="1WR4CuMOh7M6e6OQyLBG-1" vertex="1">
          <mxGeometry x="370" y="700" width="76.5" height="37" as="geometry" />
        </mxCell>
        <mxCell id="1WR4CuMOh7M6e6OQyLBG-23" value="" style="group" parent="1WR4CuMOh7M6e6OQyLBG-1" vertex="1" connectable="0">
          <mxGeometry x="1491.5" y="753.59" width="125" height="100.55156046814044" as="geometry" />
        </mxCell>
        <mxCell id="1WR4CuMOh7M6e6OQyLBG-24" value="" style="outlineConnect=0;fontColor=#232F3E;gradientColor=#4D72F3;gradientDirection=north;fillColor=#3334B9;strokeColor=#ffffff;dashed=0;verticalLabelPosition=bottom;verticalAlign=top;align=center;html=1;fontSize=12;fontStyle=0;aspect=fixed;shape=mxgraph.aws4.resourceIcon;resIcon=mxgraph.aws4.dynamodb;" parent="1WR4CuMOh7M6e6OQyLBG-23" vertex="1">
          <mxGeometry x="17" width="60" height="60" as="geometry" />
        </mxCell>
        <mxCell id="1WR4CuMOh7M6e6OQyLBG-25" value="" style="group" parent="1WR4CuMOh7M6e6OQyLBG-1" vertex="1" connectable="0">
          <mxGeometry x="1359.5" y="787" width="130" height="116.64999999999998" as="geometry" />
        </mxCell>
        <mxCell id="1WR4CuMOh7M6e6OQyLBG-26" value="&lt;div&gt;AWS Lambda&lt;br&gt;Connect KVS&amp;nbsp;Transcriber&lt;/div&gt;" style="text;html=1;align=center;verticalAlign=middle;resizable=0;points=[];autosize=1;" parent="1WR4CuMOh7M6e6OQyLBG-25" vertex="1">
          <mxGeometry x="-30" y="76.64999999999998" width="160" height="40" as="geometry" />
        </mxCell>
        <mxCell id="1WR4CuMOh7M6e6OQyLBG-27" value="" style="outlineConnect=0;fontColor=#232F3E;gradientColor=#F78E04;gradientDirection=north;fillColor=#D05C17;strokeColor=#ffffff;dashed=0;verticalLabelPosition=bottom;verticalAlign=top;align=center;html=1;fontSize=12;fontStyle=0;aspect=fixed;shape=mxgraph.aws4.resourceIcon;resIcon=mxgraph.aws4.lambda;" parent="1WR4CuMOh7M6e6OQyLBG-25" vertex="1">
          <mxGeometry x="11" width="78" height="78" as="geometry" />
        </mxCell>
        <mxCell id="1WR4CuMOh7M6e6OQyLBG-28" value="" style="group" parent="1WR4CuMOh7M6e6OQyLBG-1" vertex="1" connectable="0">
          <mxGeometry x="1508.5" y="835.5" width="154" height="96.5" as="geometry" />
        </mxCell>
        <mxCell id="1WR4CuMOh7M6e6OQyLBG-29" value="" style="outlineConnect=0;fontColor=#232F3E;gradientColor=#60A337;gradientDirection=north;fillColor=#277116;strokeColor=#ffffff;dashed=0;verticalLabelPosition=bottom;verticalAlign=top;align=center;html=1;fontSize=12;fontStyle=0;aspect=fixed;shape=mxgraph.aws4.resourceIcon;resIcon=mxgraph.aws4.s3;" parent="1WR4CuMOh7M6e6OQyLBG-28" vertex="1">
          <mxGeometry x="0.53" y="11.59" width="59.47" height="59.47" as="geometry" />
        </mxCell>
        <mxCell id="1WR4CuMOh7M6e6OQyLBG-30" value="" style="html=1;endArrow=block;elbow=vertical;startArrow=none;endFill=1;strokeColor=#545B64;rounded=0;" parent="1WR4CuMOh7M6e6OQyLBG-1" source="1WR4CuMOh7M6e6OQyLBG-27" target="1WR4CuMOh7M6e6OQyLBG-29" edge="1">
          <mxGeometry width="100" relative="1" as="geometry">
            <mxPoint x="1423.5" y="918" as="sourcePoint" />
            <mxPoint x="1523.5" y="918" as="targetPoint" />
          </mxGeometry>
        </mxCell>
        <mxCell id="1WR4CuMOh7M6e6OQyLBG-31" value="" style="group" parent="1WR4CuMOh7M6e6OQyLBG-1" vertex="1" connectable="0">
          <mxGeometry x="1491.5" y="682.59" width="100" height="130" as="geometry" />
        </mxCell>
        <mxCell id="1WR4CuMOh7M6e6OQyLBG-32" value="" style="outlineConnect=0;fontColor=#232F3E;gradientColor=#F78E04;gradientDirection=north;fillColor=#D05C17;strokeColor=#ffffff;dashed=0;verticalLabelPosition=bottom;verticalAlign=top;align=center;html=1;fontSize=12;fontStyle=0;aspect=fixed;shape=mxgraph.aws4.resourceIcon;resIcon=mxgraph.aws4.lambda;" parent="1WR4CuMOh7M6e6OQyLBG-31" vertex="1">
          <mxGeometry x="17.5" y="-21" width="59" height="59" as="geometry" />
        </mxCell>
        <mxCell id="1WR4CuMOh7M6e6OQyLBG-33" value="" style="html=1;endArrow=block;elbow=vertical;startArrow=none;endFill=1;strokeColor=#545B64;rounded=0;" parent="1WR4CuMOh7M6e6OQyLBG-31" edge="1">
          <mxGeometry width="100" relative="1" as="geometry">
            <mxPoint x="-41" y="142.4128788787391" as="sourcePoint" />
            <mxPoint x="18" y="107.40999999999997" as="targetPoint" />
          </mxGeometry>
        </mxCell>
        <mxCell id="1WR4CuMOh7M6e6OQyLBG-34" value="" style="edgeStyle=orthogonalEdgeStyle;rounded=0;orthogonalLoop=1;jettySize=auto;html=1;" parent="1WR4CuMOh7M6e6OQyLBG-1" source="1WR4CuMOh7M6e6OQyLBG-27" edge="1">
          <mxGeometry relative="1" as="geometry">
            <mxPoint x="1399.5" y="767" as="targetPoint" />
            <Array as="points">
              <mxPoint x="1399.5" y="767" />
            </Array>
          </mxGeometry>
        </mxCell>
        <mxCell id="1WR4CuMOh7M6e6OQyLBG-35" value="Amazon S3&lt;br&gt;Call Recordings" style="text;html=1;align=center;verticalAlign=middle;resizable=0;points=[];autosize=1;" parent="1WR4CuMOh7M6e6OQyLBG-1" vertex="1">
          <mxGeometry x="1561.500909090909" y="855.0910619469026" width="100" height="30" as="geometry" />
        </mxCell>
        <mxCell id="1WR4CuMOh7M6e6OQyLBG-36" value="Amazon &lt;br&gt;DynamoDB&lt;br&gt;Event caching" style="text;html=1;align=center;verticalAlign=middle;resizable=0;points=[];autosize=1;" parent="1WR4CuMOh7M6e6OQyLBG-1" vertex="1">
          <mxGeometry x="1563.5" y="754.7115604681405" width="90" height="50" as="geometry" />
        </mxCell>
        <mxCell id="1WR4CuMOh7M6e6OQyLBG-37" value="AWS Lambda&lt;br&gt;Call Initialization&lt;br&gt;(Optional)" style="text;html=1;align=center;verticalAlign=middle;resizable=0;points=[];autosize=1;" parent="1WR4CuMOh7M6e6OQyLBG-1" vertex="1">
          <mxGeometry x="1562.5" y="670.5880230168516" width="100" height="50" as="geometry" />
        </mxCell>
        <mxCell id="1WR4CuMOh7M6e6OQyLBG-38" value="" style="html=1;endArrow=block;elbow=vertical;startArrow=none;endFill=1;strokeColor=#545B64;rounded=0;" parent="1WR4CuMOh7M6e6OQyLBG-1" edge="1">
          <mxGeometry width="100" relative="1" as="geometry">
            <mxPoint x="1449.5" y="804.712878878739" as="sourcePoint" />
            <mxPoint x="1509.5" y="720" as="targetPoint" />
          </mxGeometry>
        </mxCell>
        <mxCell id="1WR4CuMOh7M6e6OQyLBG-39" value="" style="group" parent="1WR4CuMOh7M6e6OQyLBG-1" vertex="1" connectable="0">
          <mxGeometry x="1349.5" y="657" width="144.99999999999974" height="123" as="geometry" />
        </mxCell>
        <mxCell id="1WR4CuMOh7M6e6OQyLBG-40" value="&lt;div&gt;Amazon Transcribe&lt;br&gt;Streaming&lt;br&gt;&lt;/div&gt;" style="text;html=1;align=center;verticalAlign=middle;resizable=0;points=[];autosize=1;" parent="1WR4CuMOh7M6e6OQyLBG-39" vertex="1">
          <mxGeometry y="82.99999999999997" width="120" height="30" as="geometry" />
        </mxCell>
        <mxCell id="1WR4CuMOh7M6e6OQyLBG-41" value="" style="outlineConnect=0;fontColor=#232F3E;gradientColor=#4AB29A;gradientDirection=north;fillColor=#116D5B;strokeColor=#ffffff;dashed=0;verticalLabelPosition=bottom;verticalAlign=top;align=center;html=1;fontSize=12;fontStyle=0;aspect=fixed;shape=mxgraph.aws4.resourceIcon;resIcon=mxgraph.aws4.transcribe;" parent="1WR4CuMOh7M6e6OQyLBG-39" vertex="1">
          <mxGeometry x="21" y="5" width="78" height="78" as="geometry" />
        </mxCell>
        <mxCell id="1WR4CuMOh7M6e6OQyLBG-42" value="" style="edgeStyle=orthogonalEdgeStyle;rounded=0;orthogonalLoop=1;jettySize=auto;html=1;" parent="1WR4CuMOh7M6e6OQyLBG-1" edge="1">
          <mxGeometry relative="1" as="geometry">
            <mxPoint x="1410" y="789" as="targetPoint" />
            <Array as="points">
              <mxPoint x="1409.5" y="769" />
            </Array>
            <mxPoint x="1410" y="769" as="sourcePoint" />
          </mxGeometry>
        </mxCell>
        <mxCell id="1WR4CuMOh7M6e6OQyLBG-43" style="edgeStyle=orthogonalEdgeStyle;rounded=0;orthogonalLoop=1;jettySize=auto;html=1;" parent="1WR4CuMOh7M6e6OQyLBG-1" source="1WR4CuMOh7M6e6OQyLBG-10" edge="1">
          <mxGeometry relative="1" as="geometry">
            <mxPoint x="1370" y="830" as="targetPoint" />
            <Array as="points">
              <mxPoint x="1260" y="583" />
              <mxPoint x="1260" y="830" />
            </Array>
          </mxGeometry>
        </mxCell>
        <mxCell id="1WR4CuMOh7M6e6OQyLBG-45" value="&lt;div align=&quot;center&quot;&gt;Amazon Connect&lt;br&gt;Media Streams&lt;/div&gt;" style="text;html=1;align=center;" parent="1WR4CuMOh7M6e6OQyLBG-1" vertex="1">
          <mxGeometry x="692" y="758" width="120" height="47" as="geometry" />
        </mxCell>
        <mxCell id="4OL-QABRtN6HnD3MbLxt-9" style="edgeStyle=orthogonalEdgeStyle;rounded=0;orthogonalLoop=1;jettySize=auto;html=1;" edge="1" parent="1WR4CuMOh7M6e6OQyLBG-1" source="1WR4CuMOh7M6e6OQyLBG-46" target="4OL-QABRtN6HnD3MbLxt-2">
          <mxGeometry relative="1" as="geometry">
            <Array as="points">
              <mxPoint x="820" y="740" />
              <mxPoint x="820" y="849" />
            </Array>
          </mxGeometry>
        </mxCell>
        <mxCell id="1WR4CuMOh7M6e6OQyLBG-46" value="" style="sketch=0;points=[[0,0,0],[0.25,0,0],[0.5,0,0],[0.75,0,0],[1,0,0],[0,1,0],[0.25,1,0],[0.5,1,0],[0.75,1,0],[1,1,0],[0,0.25,0],[0,0.5,0],[0,0.75,0],[1,0.25,0],[1,0.5,0],[1,0.75,0]];outlineConnect=0;fontColor=#232F3E;gradientColor=#4D72F3;gradientDirection=north;fillColor=#3334B9;strokeColor=#ffffff;dashed=0;verticalLabelPosition=bottom;verticalAlign=top;align=center;html=1;fontSize=12;fontStyle=0;aspect=fixed;shape=mxgraph.aws4.resourceIcon;resIcon=mxgraph.aws4.connect;" parent="1WR4CuMOh7M6e6OQyLBG-1" vertex="1">
          <mxGeometry x="713" y="680" width="78" height="78" as="geometry" />
        </mxCell>
        <mxCell id="1WR4CuMOh7M6e6OQyLBG-47" value="" style="group" parent="1WR4CuMOh7M6e6OQyLBG-1" vertex="1" connectable="0">
          <mxGeometry x="950" y="680" width="130" height="116.64999999999998" as="geometry" />
        </mxCell>
        <mxCell id="1WR4CuMOh7M6e6OQyLBG-48" value="&lt;div&gt;AWS Lambda&lt;br&gt;Start LCA&lt;/div&gt;" style="text;html=1;align=center;verticalAlign=middle;resizable=0;points=[];autosize=1;" parent="1WR4CuMOh7M6e6OQyLBG-47" vertex="1">
          <mxGeometry y="76.64999999999998" width="100" height="40" as="geometry" />
        </mxCell>
        <mxCell id="1WR4CuMOh7M6e6OQyLBG-49" value="" style="outlineConnect=0;fontColor=#232F3E;gradientColor=#F78E04;gradientDirection=north;fillColor=#D05C17;strokeColor=#ffffff;dashed=0;verticalLabelPosition=bottom;verticalAlign=top;align=center;html=1;fontSize=12;fontStyle=0;aspect=fixed;shape=mxgraph.aws4.resourceIcon;resIcon=mxgraph.aws4.lambda;" parent="1WR4CuMOh7M6e6OQyLBG-47" vertex="1">
          <mxGeometry x="11" width="78" height="78" as="geometry" />
        </mxCell>
        <mxCell id="1WR4CuMOh7M6e6OQyLBG-50" style="edgeStyle=orthogonalEdgeStyle;rounded=0;orthogonalLoop=1;jettySize=auto;html=1;" parent="1WR4CuMOh7M6e6OQyLBG-1" source="1WR4CuMOh7M6e6OQyLBG-49" target="1WR4CuMOh7M6e6OQyLBG-27" edge="1">
          <mxGeometry relative="1" as="geometry">
            <Array as="points">
              <mxPoint x="1230" y="719" />
              <mxPoint x="1230" y="849" />
            </Array>
          </mxGeometry>
        </mxCell>
        <mxCell id="4OL-QABRtN6HnD3MbLxt-1" value="" style="group" vertex="1" connectable="0" parent="1WR4CuMOh7M6e6OQyLBG-1">
          <mxGeometry x="880" y="810" width="120" height="113" as="geometry" />
        </mxCell>
        <mxCell id="4OL-QABRtN6HnD3MbLxt-2" value="" style="outlineConnect=0;fontColor=#232F3E;gradientColor=#F34482;gradientDirection=north;fillColor=#BC1356;strokeColor=#ffffff;dashed=0;verticalLabelPosition=bottom;verticalAlign=top;align=center;html=1;fontSize=12;fontStyle=0;aspect=fixed;shape=mxgraph.aws4.resourceIcon;resIcon=mxgraph.aws4.eventbridge;" vertex="1" parent="4OL-QABRtN6HnD3MbLxt-1">
          <mxGeometry x="21" width="78" height="78" as="geometry" />
        </mxCell>
        <mxCell id="4OL-QABRtN6HnD3MbLxt-3" value="Amazon EventBridge&lt;br&gt;&lt;div align=&quot;center&quot;&gt;Contact Events&lt;/div&gt;" style="text;html=1;" vertex="1" parent="4OL-QABRtN6HnD3MbLxt-1">
          <mxGeometry y="79" width="120" height="30" as="geometry" />
        </mxCell>
        <mxCell id="4OL-QABRtN6HnD3MbLxt-7" style="edgeStyle=none;rounded=0;orthogonalLoop=1;jettySize=auto;html=1;startArrow=classic;startFill=1;" edge="1" parent="1WR4CuMOh7M6e6OQyLBG-1" source="4OL-QABRtN6HnD3MbLxt-2" target="4OL-QABRtN6HnD3MbLxt-6">
          <mxGeometry relative="1" as="geometry" />
        </mxCell>
        <mxCell id="4OL-QABRtN6HnD3MbLxt-8" value="" style="group" vertex="1" connectable="0" parent="1WR4CuMOh7M6e6OQyLBG-1">
          <mxGeometry x="990" y="810" width="160" height="116.64999999999998" as="geometry" />
        </mxCell>
        <mxCell id="4OL-QABRtN6HnD3MbLxt-6" value="" style="outlineConnect=0;fontColor=#232F3E;gradientColor=#F78E04;gradientDirection=north;fillColor=#D05C17;strokeColor=#ffffff;dashed=0;verticalLabelPosition=bottom;verticalAlign=top;align=center;html=1;fontSize=12;fontStyle=0;aspect=fixed;shape=mxgraph.aws4.resourceIcon;resIcon=mxgraph.aws4.lambda;" vertex="1" parent="4OL-QABRtN6HnD3MbLxt-8">
          <mxGeometry x="41" width="78" height="78" as="geometry" />
        </mxCell>
        <mxCell id="4OL-QABRtN6HnD3MbLxt-5" value="&lt;div&gt;AWS Lambda&lt;br&gt;Contact Event Processor&lt;/div&gt;" style="text;html=1;align=center;verticalAlign=middle;resizable=0;points=[];autosize=1;" vertex="1" parent="4OL-QABRtN6HnD3MbLxt-8">
          <mxGeometry y="76.64999999999998" width="160" height="40" as="geometry" />
        </mxCell>
        <mxCell id="4OL-QABRtN6HnD3MbLxt-10" value="&lt;div align=&quot;center&quot;&gt;Contact Flow&lt;br&gt;Lambda Trigger&lt;/div&gt;" style="text;html=1;align=center;" vertex="1" parent="1WR4CuMOh7M6e6OQyLBG-1">
          <mxGeometry x="720" y="860" width="170" height="30" as="geometry" />
        </mxCell>
        <mxCell id="4OL-QABRtN6HnD3MbLxt-11" style="edgeStyle=orthogonalEdgeStyle;rounded=0;orthogonalLoop=1;jettySize=auto;html=1;endArrow=none;endFill=0;" edge="1" parent="1WR4CuMOh7M6e6OQyLBG-1" source="4OL-QABRtN6HnD3MbLxt-6">
          <mxGeometry relative="1" as="geometry">
            <mxPoint x="1410" y="910" as="targetPoint" />
            <Array as="points">
              <mxPoint x="1200" y="849" />
              <mxPoint x="1200" y="920" />
              <mxPoint x="1410" y="920" />
            </Array>
          </mxGeometry>
        </mxCell>
        <mxCell id="4OL-QABRtN6HnD3MbLxt-12" value="&lt;div align=&quot;center&quot;&gt;UPDATE_AGENT&lt;/div&gt;" style="text;html=1;align=center;" vertex="1" parent="1WR4CuMOh7M6e6OQyLBG-1">
          <mxGeometry x="1080" y="825.0899999999999" width="170" height="30" as="geometry" />
        </mxCell>
      </root>
    </mxGraphModel>
  </diagram>
</mxfile>
